<?xml version="1.0" encoding="UTF-8"?>
<svg version="1.1" xmlns="http://www.w3.org/2000/svg" width="1536" height="1024">
<path d="M0 0 C506.88 0 1013.76 0 1536 0 C1536 337.92 1536 675.84 1536 1024 C1029.12 1024 522.24 1024 0 1024 C0 686.08 0 348.16 0 0 Z " fill="#FEFEFE" transform="translate(0,0)"/>
<path d="M0 0 C48.51 0 97.02 0 147 0 C147 35.97 147 71.94 147 109 C98.49 109 49.98 109 0 109 C0 73.03 0 37.06 0 0 Z " fill="#FEFEFE" transform="translate(579,121)"/>
<path d="M0 0 C48.18 0 96.36 0 146 0 C146 35.97 146 71.94 146 109 C97.82 109 49.64 109 0 109 C0 73.03 0 37.06 0 0 Z " fill="#FEFEFE" transform="translate(878,121)"/>
<path d="M0 0 C36.32199006 -0.04030303 36.32199006 -0.04030303 51.49414062 -0.04882812 C61.98739101 -0.05477137 72.4806334 -0.06177375 82.97387695 -0.07543945 C90.61462903 -0.08538554 98.25537464 -0.09185325 105.89613301 -0.09408849 C109.94438385 -0.09539573 113.99261619 -0.09848238 118.04086113 -0.10573006 C121.84680869 -0.11248909 125.65273002 -0.1146172 129.45868301 -0.11310768 C130.85957672 -0.11338406 132.26047125 -0.11538988 133.66135979 -0.11920547 C135.56589508 -0.12414083 137.47044426 -0.122398 139.37498474 -0.12025452 C140.44334281 -0.12117631 141.51170088 -0.1220981 142.61243343 -0.12304783 C145 0 145 0 146 1 C146.0954693 2.40411317 146.12188529 3.81299809 146.12025452 5.22035217 C146.12232076 6.5826563 146.12232076 6.5826563 146.12442875 7.97248173 C146.12083064 8.98066676 146.11723253 9.9888518 146.11352539 11.02758789 C146.11364593 12.09822448 146.11376646 13.16886106 146.11389065 14.27194118 C146.11314115 17.75553363 146.10551126 21.23907331 146.09765625 24.72265625 C146.09618694 26.86616999 146.09516616 29.00968408 146.09460449 31.15319824 C146.08935029 39.12297095 146.07538923 47.09273599 146.0625 55.0625 C146.041875 72.861875 146.02125 90.66125 146 109 C97.82 109 49.64 109 0 109 C0 73.03 0 37.06 0 0 Z " fill="#FEFEFE" transform="translate(1025,121)"/>
<path d="M0 0 C48.51 0 97.02 0 147 0 C147 35.64 147 71.28 147 108 C98.49 108 49.98 108 0 108 C0 72.36 0 36.72 0 0 Z " fill="#FEFEFE" transform="translate(579,780)"/>
<path d="M0 0 C47.85 0 95.7 0 145 0 C145 35.97 145 71.94 145 109 C97.15 109 49.3 109 0 109 C0 73.03 0 37.06 0 0 Z " fill="#FEFEFE" transform="translate(1172,121)"/>
<path d="M0 0 C19.14 0 38.28 0 58 0 C59.32 3.3 60.64 6.6 62 10 C65.941062 13.941062 69.3178437 15.15213369 74.8125 15.3125 C79.67068222 15.24885569 82.3127617 14.33607275 86 11 C88.08598771 8.1988165 89.76447823 5.49450169 91.26496887 2.34407043 C93 0 93 0 95.52470398 -0.60127258 C97.03360954 -0.584618 97.03360954 -0.584618 98.57299805 -0.56762695 C99.72989136 -0.56702271 100.88678467 -0.56641846 102.07873535 -0.5657959 C103.90181213 -0.52742615 103.90181213 -0.52742615 105.76171875 -0.48828125 C106.87921509 -0.48324585 107.99671143 -0.47821045 109.14807129 -0.47302246 C113.3281413 -0.44683421 117.50784603 -0.37702727 121.6875 -0.3125 C135.7021875 -0.1578125 135.7021875 -0.1578125 150 0 C150 35.64 150 71.28 150 108 C100.5 108 51 108 0 108 C0 72.36 0 36.72 0 0 Z " fill="#FEFEFE" transform="translate(276,341)"/>
<path d="M0 0 C48.18 0 96.36 0 146 0 C146 35.64 146 71.28 146 108 C97.82 108 49.64 108 0 108 C0 72.36 0 36.72 0 0 Z " fill="#FEFEFE" transform="translate(1318,780)"/>
<path d="M0 0 C48.18 0 96.36 0 146 0 C146 35.64 146 71.28 146 108 C97.82 108 49.64 108 0 108 C0 72.36 0 36.72 0 0 Z " fill="#FEFEFE" transform="translate(1025,780)"/>
<path d="M0 0 C48.18 0 96.36 0 146 0 C146 35.64 146 71.28 146 108 C97.82 108 49.64 108 0 108 C0 72.36 0 36.72 0 0 Z " fill="#FEFEFE" transform="translate(878,780)"/>
<path d="M0 0 C48.18 0 96.36 0 146 0 C146 35.64 146 71.28 146 108 C97.82 108 49.64 108 0 108 C0 72.36 0 36.72 0 0 Z " fill="#FEFEFE" transform="translate(878,671)"/>
<path d="M0 0 C43.89 0 87.78 0 133 0 C133 35.64 133 71.28 133 108 C84.49 108 35.98 108 -14 108 C-14 77.31 -14 46.62 -14 15 C-11.03 13.68 -8.06 12.36 -5 11 C-1.44568919 7.67499957 -1.46636981 5.13229435 0 0 Z " fill="#FEFEFE" transform="translate(593,341)"/>
<path d="M0 0 C0.67578125 1.70703125 0.67578125 1.70703125 1.3125 3.8125 C2.9684198 8.52680229 5.54075145 10.77037573 10 13 C14.76459594 13.5313352 19.47735231 13.6611605 23.875 11.5625 C27.99574681 8.57466975 27.99574681 8.57466975 31 0 C50.8 0 70.6 0 91 0 C91 35.31 91 70.62 91 107 C41.5 107 -8 107 -59 107 C-59 71.69 -59 36.38 -59 0 C-49.63625 -0.185625 -40.2725 -0.37125 -30.625 -0.5625 C-27.66740723 -0.62381104 -24.70981445 -0.68512207 -21.66259766 -0.74829102 C-19.3297603 -0.79223982 -16.99691567 -0.83580484 -14.6640625 -0.87890625 C-13.44356201 -0.90561401 -12.22306152 -0.93232178 -10.96557617 -0.95983887 C-9.80856201 -0.98026245 -8.65154785 -1.00068604 -7.45947266 -1.02172852 C-6.451315 -1.04171402 -5.44315735 -1.06169952 -4.40444946 -1.08229065 C-2 -1 -2 -1 0 0 Z " fill="#FEFEFE" transform="translate(786,562)"/>
<path d="M0 0 C17.49 0 34.98 0 53 0 C55.63812149 2.63812149 56.45917327 3.71794189 57.8125 6.9375 C59.82428639 11.05183006 61.7633575 13.00158373 66 15 C70.64106903 16.21955099 74.11409051 16.25100769 78.75 14.9375 C84.67540004 11.40504998 86.93678381 7.12643237 90 1 C109.8 1 129.6 1 150 1 C150 36.31 150 71.62 150 108 C100.5 108 51 108 0 108 C0 72.36 0 36.72 0 0 Z " fill="#FEFEFE" transform="translate(125,231)"/>
<path d="M0 0 C47.85 0 95.7 0 145 0 C145 35.64 145 71.28 145 108 C97.15 108 49.3 108 0 108 C0 72.36 0 36.72 0 0 Z " fill="#FEFEFE" transform="translate(1172,780)"/>
<path d="M0 0 C19.47 0 38.94 0 59 0 C61.475 4.95 61.475 4.95 64 10 C68.11971191 13.32234832 70.36038431 14.73649033 75.5 15.5625 C81.42372296 14.6104731 85.56863894 12.77036763 89.375 8.0625 C91.20608838 4.74366232 91.20608838 4.74366232 93 0 C111.81 0 130.62 0 150 0 C150 35.31 150 70.62 150 107 C100.5 107 51 107 0 107 C0 71.69 0 36.38 0 0 Z " fill="#FEFEFE" transform="translate(427,671)"/>
<path d="M0 0 C48.18 0 96.36 0 146 0 C146 35.31 146 70.62 146 107 C97.82 107 49.64 107 0 107 C0 71.69 0 36.38 0 0 Z " fill="#FEFEFE" transform="translate(579,671)"/>
<path d="M0 0 C47.52 0 95.04 0 144 0 C144 35.31 144 70.62 144 107 C96.48 107 48.96 107 0 107 C0 71.69 0 36.38 0 0 Z " fill="#FEFEFE" transform="translate(1026,232)"/>
<path d="M0 0 C19.47 0 38.94 0 59 0 C63 8 63 8 63 10 C69.12663936 13.16895139 75.25749608 14.34719881 82.03515625 12.421875 C87.93930567 9.56712143 88.5051519 6.29072659 92 0 C110.15 0 128.3 0 147 0 C147 35.31 147 70.62 147 107 C98.49 107 49.98 107 0 107 C0 71.69 0 36.38 0 0 Z " fill="#FEFEFE" transform="translate(579,562)"/>
<path d="M0 0 C17.82 0 35.64 0 54 0 C58 4 58 4 59.4375 7 C61.47672181 10.91530587 64.07872942 13.03936471 68 15 C73.12208169 15.66644186 77.7539317 15.59188609 82.375 13.125 C87.06334359 9.56855976 87.06334359 9.56855976 90 0 C107.82 0 125.64 0 144 0 C144 35.97 144 71.94 144 109 C96.48 109 48.96 109 0 109 C0 73.03 0 37.06 0 0 Z " fill="#FEFEFE" transform="translate(1026,451)"/>
<path d="M0 0 C292.38 0 584.76 0 886 0 C886 253.77 886 507.54 886 769 C787.99 769 689.98 769 589 769 C589.66 768.67 590.32 768.34 591 768 C591 732.36 591 696.72 591 660 C542.82 660 494.64 660 445 660 C445 695.64 445 731.28 445 768 C444.67 768 444.34 768 444 768 C444 732.36 444 696.72 444 660 C408.36 660 372.72 660 336 660 C336 659.67 336 659.34 336 659 C371.64 659 407.28 659 444 659 C444 623.03 444 587.06 444 550 C436.41 550 428.82 550 421 550 C421 549.67 421 549.34 421 549 C428.59 549 436.18 549 444 549 C444 513.69 444 478.38 444 442 C425.19 442 406.38 442 387 442 C386.67 443.98 386.34 445.96 386 448 C382.70428939 452.94356592 379.87024994 455.33676252 374 457 C368.02152718 457.25040724 363.5588169 456.02872191 359 452 C355.56566406 447.39075966 354.32913225 443.90199084 354.61328125 438.140625 C355.62764939 432.52573871 359.54682339 429.16409917 364 426 C368.1642133 423.91789335 373.69782306 424.28029873 378.07421875 425.6484375 C382.92785887 428.11210732 384.86226975 431.21148424 387 436 C387 437.32 387 438.64 387 440 C406.14 440 425.28 440 445 440 C445 404.03 445 368.06 445 331 C445.33 331 445.66 331 446 331 C446 366.97 446 402.94 446 440 C493.52 440 541.04 440 590 440 C590 404.03 590 368.06 590 331 C590.33 331 590.66 331 591 331 C591 366.97 591 402.94 591 440 C639.18 440 687.36 440 737 440 C737 440.33 737 440.66 737 441 C688.82 441.33 640.64 441.66 591 442 C591 477.31 591 512.62 591 549 C590.67 549 590.34 549 590 549 C590 513.69 590 478.38 590 442 C542.15 442 494.3 442 445 442 C445 477.31 445 512.62 445 549 C473.05 549 501.1 549 530 549 C530 549.33 530 549.66 530 550 C501.95 550 473.9 550 445 550 C445 585.97 445 621.94 445 659 C493.18 659 541.36 659 591 659 C591 623.36 591 587.72 591 551 C591.33 551 591.66 551 592 551 C592 586.64 592 622.28 592 659 C639.85 659 687.7 659 737 659 C737 623.36 737 587.72 737 551 C737.33 551 737.66 551 738 551 C738 586.64 738 622.28 738 659 C786.51 659 835.02 659 885 659 C884.835 643.056875 884.67 627.11375 884.5 610.6875 C884.1054828 569.99913208 883.90789899 529.31528728 883.9375 488.625 C883.93878403 486.84701334 883.93878403 486.84701334 883.94009399 485.03310776 C883.95124447 470.6887136 883.97419043 456.34438325 884 442 C865.19 442 846.38 442 827 442 C826.67 443.98 826.34 445.96 826 448 C822.67908333 452.981375 819.85444745 455.18310252 814 457 C808.39881565 457.81471772 805.24402587 456.45770824 800.73046875 453.3671875 C797.60131665 450.89494543 796.25082705 448.75248116 795 445 C794.45774541 440.33305478 794.5301544 436.92228952 796.6875 432.6875 C799.80599312 429.0633053 803.18008978 425.31446896 808.13671875 424.76171875 C814.38554498 424.57989992 818.01904604 425.11485591 823 429 C825.79723312 432.57747026 827 435.36448808 827 440 C845.81 440 864.62 440 884 440 C884 404.03 884 368.06 884 331 C817.34 331 750.68 331 682 331 C682 330.34 682 329.68 682 329 C748.66 329 815.32 329 884 329 C883.979375 313.44875 883.95875 297.8975 883.9375 281.875 C883.90129038 224.90932665 884.40970122 167.96383257 885 111 C836.49 111 787.98 111 738 111 C738 146.64 738 182.28 738 219 C737.67 219 737.34 219 737 219 C737 183.36 737 147.72 737 111 C689.15 111 641.3 111 592 111 C592 146.64 592 182.28 592 219 C591.67 219 591.34 219 591 219 C591 183.36 591 147.72 591 111 C542.82 111 494.64 111 445 111 C445 146.64 445 182.28 445 219 C444.67 219 444.34 219 444 219 C444 183.36 444 147.72 444 111 C395.82 111 347.64 111 298 111 C298.185625 126.9225 298.37125 142.845 298.5625 159.25 C298.98459552 200.13243411 299.00047234 240.99267447 298.5625 281.875 C298.54968616 283.07228226 298.53687233 284.26956451 298.5236702 285.50312805 C298.36689625 300.0023502 298.1863244 314.5010954 298 329 C319.45 329 340.9 329 363 329 C363 329.33 363 329.66 363 330 C341.55 330 320.1 330 298 330 C298 366.3 298 402.6 298 440 C297.67 440 297.34 440 297 440 C297 404.03 297 368.06 297 331 C247.5 331 198 331 147 331 C147 366.97 147 402.94 147 440 C146.67 440 146.34 440 146 440 C146 403.7 146 367.4 146 330 C112.34 330 78.68 330 44 330 C44 329.67 44 329.34 44 329 C77.66 329 111.32 329 146 329 C146 293.36 146 257.72 146 221 C102.11 221 58.22 221 13 221 C12.67 223.31 12.34 225.62 12 228 C10.31508308 231.19486169 7.87670438 233.44892867 4.8125 235.375 C-0.919265 236.64872555 -6.01727468 236.95464552 -11.375 234.375 C-14.95907713 231.13226355 -17.59535241 228.53524104 -18.3828125 223.6015625 C-18.63883919 217.91777006 -17.93626932 214.35061345 -14 210 C-10.30010527 206.57082928 -7.4207651 205.70030251 -2.5 205.5 C2.4207651 205.70030251 5.30010527 206.57082928 9 210 C11.96788373 213.74890577 13 215.15769617 13 220 C56.89 220 100.78 220 146 220 C146 184.03 146 148.06 146 111 C97.82 111 49.64 111 0 111 C0 110.67 0 110.34 0 110 C48.18 110 96.36 110 146 110 C146 74.03 146 38.06 146 1 C97.82 1 49.64 1 0 1 C0 0.67 0 0.34 0 0 Z M147 1 C147 36.97 147 72.94 147 110 C196.5 110 246 110 297 110 C297 74.03 297 38.06 297 1 C247.5 1 198 1 147 1 Z M298 1 C298 36.97 298 72.94 298 110 C346.18 110 394.36 110 444 110 C444 74.03 444 38.06 444 1 C395.82 1 347.64 1 298 1 Z M445 1 C445 36.97 445 72.94 445 110 C493.18 110 541.36 110 591 110 C591.020625 92.200625 591.04125 74.40125 591.0625 56.0625 C591.071604 50.43324463 591.08070801 44.80398926 591.09008789 39.00415039 C591.09343142 33.9772876 591.09343142 33.9772876 591.09544373 28.95042419 C591.09698371 26.70379946 591.10050974 24.45717558 591.10557556 22.21055603 C591.11284959 18.81621861 591.11390753 15.42193189 591.11352539 12.02758789 C591.1171235 11.01940286 591.12072161 10.01121782 591.12442875 8.97248173 C591.1223625 7.6101776 591.1223625 7.6101776 591.12025452 6.22035217 C591.12117631 5.42484483 591.1220981 4.62933748 591.12304783 3.80972385 C591.19778133 1.97861111 591.19778133 1.97861111 590 1 C588.12705216 0.90347404 586.25041756 0.87812734 584.37498474 0.87974548 C583.15355774 0.87837082 581.93213074 0.87699615 580.6736908 0.87557983 C579.30776953 0.87911944 577.94184852 0.88275426 576.57592773 0.88647461 C575.14722699 0.88675648 573.7185261 0.88659876 572.28982544 0.8860321 C568.39950028 0.88574411 564.50920569 0.89164113 560.61888766 0.89860606 C556.55761795 0.9048393 552.49634761 0.90544337 548.43507385 0.90663147 C540.73921067 0.90974488 533.04336162 0.91795839 525.34750468 0.92798096 C514.95180949 0.94122697 504.55611046 0.94664193 494.16040897 0.95248318 C477.77359539 0.96189827 461.38681163 0.98181712 445 1 Z M592 1 C592 36.97 592 72.94 592 110 C639.85 110 687.7 110 737 110 C737 74.03 737 38.06 737 1 C689.15 1 641.3 1 592 1 Z M738 1 C738 36.97 738 72.94 738 110 C786.51 110 835.02 110 885 110 C885 74.03 885 38.06 885 1 C836.49 1 787.98 1 738 1 Z M147 111 C147 146.97 147 182.94 147 220 C196.5 220 246 220 297 220 C297 184.03 297 148.06 297 111 C247.5 111 198 111 147 111 Z M147 221 C147 256.64 147 292.28 147 329 C196.5 329 246 329 297 329 C297 293.36 297 257.72 297 221 C247.5 221 198 221 147 221 Z M592 660 C592 695.64 592 731.28 592 768 C639.85 768 687.7 768 737 768 C737 732.36 737 696.72 737 660 C689.15 660 641.3 660 592 660 Z M738 660 C738 695.64 738 731.28 738 768 C786.18 768 834.36 768 884 768 C884 732.36 884 696.72 884 660 C835.82 660 787.64 660 738 660 Z " fill="#D5D5D5" transform="translate(580,120)"/>
<path d="M0 0 C0.33 0 0.66 0 1 0 C1 35.31 1 70.62 1 107 C42.58 107 84.16 107 127 107 C127 107.33 127 107.66 127 108 C85.42 108 43.84 108 1 108 C1 143.97 1 179.94 1 217 C50.5 217 100 217 151 217 C151 181.36 151 145.72 151 109 C151.33 109 151.66 109 152 109 C152 144.64 152 180.28 152 217 C201.17 217 250.34 217 301 217 C301 217.33 301 217.66 301 218 C251.83 218 202.66 218 152 218 C152 253.64 152 289.28 152 326 C250.67 326 349.34 326 451 326 C451 290.36 451 254.72 451 218 C402.82 218 354.64 218 305 218 C305 217.67 305 217.34 305 217 C353.18 217 401.36 217 451 217 C451 181.36 451 145.72 451 109 C451.33 109 451.66 109 452 109 C452 144.64 452 180.28 452 217 C501.5 217 551 217 602 217 C602 181.36 602 145.72 602 109 C602.33 109 602.66 109 603 109 C603 144.64 603 180.28 603 217 C615.54 217 628.08 217 641 217 C641 217.33 641 217.66 641 218 C628.46 218 615.92 218 603 218 C603 253.64 603 289.28 603 326 C699.03 326 795.06 326 894 326 C894 326.33 894 326.66 894 327 C549.15 327 204.3 327 -151 327 C-151 326.67 -151 326.34 -151 326 C-101.17 326 -51.34 326 0 326 C0 290.36 0 254.72 0 218 C-49.17 218 -98.34 218 -149 218 C-149 217.67 -149 217.34 -149 217 C-99.83 217 -50.66 217 0 217 C0 181.03 0 145.06 0 108 C-49.17 108 -98.34 108 -149 108 C-149 107.67 -149 107.34 -149 107 C-99.83 107 -50.66 107 0 107 C0 71.69 0 36.38 0 0 Z M1 218 C1 253.64 1 289.28 1 326 C50.5 326 100 326 151 326 C151 290.36 151 254.72 151 218 C101.5 218 52 218 1 218 Z M452 218 C452 253.64 452 289.28 452 326 C501.5 326 551 326 602 326 C602 290.36 602 254.72 602 218 C552.5 218 503 218 452 218 Z " fill="#D4D4D5" transform="translate(275,562)"/>
<path d="M0 0 C48.18 0 96.36 0 146 0 C146 35.64 146 71.28 146 108 C243.02 108 340.04 108 440 108 C440 108.66 440 109.32 440 110 C391.49 110 342.98 110 293 110 C293 145.64 293 181.28 293 218 C292.67 218 292.34 218 292 218 C292 182.36 292 146.72 292 110 C244.15 110 196.3 110 147 110 C147 145.64 147 181.28 147 218 C165.48 218 183.96 218 203 218 C203 218.66 203 219.32 203 220 C184.52 220 166.04 220 147 220 C147 255.97 147 291.94 147 329 C146.67 329 146.34 329 146 329 C146 293.03 146 257.06 146 220 C128.18 220 110.36 220 92 220 C92 219.34 92 218.68 92 218 C109.49 218 126.98 218 145 218 C145 182.36 145 146.72 145 110 C97.15 110 49.3 110 0 110 C0 145.64 0 181.28 0 218 C18.48 218 36.96 218 56 218 C56 218.66 56 219.32 56 220 C37.52 220 19.04 220 0 220 C0 255.97 0 291.94 0 329 C-0.33 329 -0.66 329 -1 329 C-1 293.03 -1 257.06 -1 220 C-49.18 220 -97.36 220 -147 220 C-147 219.67 -147 219.34 -147 219 C-137.85441036 218.81940946 -128.70856484 218.65449044 -119.5625 218.5 C-118.85981617 218.48812275 -118.15713234 218.4762455 -117.43315506 218.46400833 C-78.6206735 217.81513179 -39.81865021 217.93341569 -1 218 C-1 182.36 -1 146.72 -1 110 C-48.85 110 -96.7 110 -146 110 C-146.33 109.34 -146.66 108.68 -147 108 C-98.49 108 -49.98 108 0 108 C0 72.36 0 36.72 0 0 Z M1 1 C1 36.31 1 71.62 1 108 C48.52 108 96.04 108 145 108 C145 72.69 145 37.38 145 1 C97.48 1 49.96 1 1 1 Z " fill="#E2E2E2" transform="translate(1025,231)"/>
<path d="M0 0 C0.23047829 1.94838905 0.23047829 1.94838905 0.20254517 4.37857056 C0.19690363 5.29654734 0.19126209 6.21452412 0.1854496 7.16031837 C0.16888502 8.17427366 0.15232044 9.18822895 0.13525391 10.23291016 C0.12074723 11.85391412 0.12074723 11.85391412 0.10594749 13.50766563 C0.07222901 17.01830181 0.02463365 20.5285965 -0.0234375 24.0390625 C-0.04624169 26.20140658 -0.06813972 28.36376042 -0.08911133 30.52612305 C-0.17340717 38.559205 -0.2752818 46.59209469 -0.375 54.625 C-0.58125 72.56875 -0.7875 90.5125 -1 109 C48.83 108.67 98.66 108.34 150 108 C151.17907645 110.3581529 151.10972209 111.71328411 151.08229065 114.34060669 C151.07525116 115.25208466 151.06821167 116.16356262 151.06095886 117.10266113 C151.04801285 118.10535034 151.03506683 119.10803955 151.02172852 120.14111328 C151.0073172 121.72162979 151.0073172 121.72162979 150.99261475 123.33407593 C150.95953757 126.82955425 150.91923845 130.32491097 150.87890625 133.8203125 C150.85461366 136.23883633 150.83076968 138.6573647 150.80735779 141.07589722 C150.74443123 147.45132613 150.6753889 153.82667491 150.60510254 160.20202637 C150.52208945 167.84612851 150.44661973 175.49030835 150.36989594 183.13447571 C150.25239807 194.75638722 150.1252769 206.378158 150 218 C171.45 218 192.9 218 215 218 C215 218.33 215 218.66 215 219 C193.55 219 172.1 219 150 219 C150 255.3 150 291.6 150 329 C149.67 329 149.34 329 149 329 C149 293.03 149 257.06 149 220 C99.5 220 50 220 -1 220 C-1 255.97 -1 291.94 -1 329 C-1.33 329 -1.66 329 -2 329 C-2 292.7 -2 256.4 -2 219 C-35.66 219 -69.32 219 -104 219 C-104 218.67 -104 218.34 -104 218 C-70.34 218 -36.68 218 -2 218 C-2 182.36 -2 146.72 -2 110 C-45.89 110 -89.78 110 -135 110 C-135.33 112.31 -135.66 114.62 -136 117 C-137.68491692 120.19486169 -140.12329562 122.44892867 -143.1875 124.375 C-148.919265 125.64872555 -154.01727468 125.95464552 -159.375 123.375 C-162.95907713 120.13226355 -165.59535241 117.53524104 -166.3828125 112.6015625 C-166.63883919 106.91777006 -165.93626932 103.35061345 -162 99 C-158.30010527 95.57082928 -155.4207651 94.70030251 -150.5 94.5 C-145.5792349 94.70030251 -142.69989473 95.57082928 -139 99 C-136.03211627 102.74890577 -135 104.15769617 -135 109 C-91.11 109 -47.22 109 -2 109 C-2 73.03 -2 37.06 -2 0 C-50.18 0 -98.36 0 -148 0 C-148 -0.33 -148 -0.66 -148 -1 C-128.99860033 -1.17713643 -109.99713396 -1.34281936 -90.99551582 -1.49477577 C-82.17322292 -1.56559646 -73.35099197 -1.64019957 -64.52880859 -1.72363281 C-56.84158648 -1.79632297 -49.15434237 -1.86199208 -41.46698844 -1.91914403 C-37.39461223 -1.94966779 -33.32233517 -1.98376545 -29.25006485 -2.02626419 C-25.42035008 -2.06612083 -21.59067694 -2.09661873 -17.76082611 -2.11981392 C-16.35226104 -2.1300175 -14.94371639 -2.14369538 -13.5352211 -2.16103554 C-11.6179811 -2.18412886 -9.70059243 -2.1937234 -7.78323364 -2.20254517 C-6.70842302 -2.2117631 -5.6336124 -2.22098103 -4.52623177 -2.23047829 C-2 -2 -2 -2 0 0 Z M-1 110 C-1 145.64 -1 181.28 -1 218 C48.5 218 98 218 149 218 C149 182.36 149 146.72 149 110 C99.5 110 50 110 -1 110 Z " fill="#D9D9D9" transform="translate(728,231)"/>
<path d="M0 0 C0.33 0 0.66 0 1 0 C1 35.97 1 71.94 1 109 C19.15 109 37.3 109 56 109 C56 109.66 56 110.32 56 111 C37.85 111 19.7 111 1 111 C1 146.31 1 181.62 1 218 C49.51 218 98.02 218 148 218 C148 254.3 148 290.6 148 328 C99.49 328 50.98 328 1 328 C1 327.67 1 327.34 1 327 C49.18 327 97.36 327 147 327 C147 291.69 147 256.38 147 220 C50.31 220 -46.38 220 -146 220 C-146 255.64 -146 291.28 -146 328 C-194.18 328 -242.36 328 -292 328 C-292 292.03 -292 256.06 -292 219 C-243.31663738 218.37081276 -194.68482457 217.87919398 -146 218 C-146 182.69 -146 147.38 -146 111 C-145.67 111 -145.34 111 -145 111 C-145 146.31 -145 181.62 -145 218 C-97.15 218 -49.3 218 0 218 C0 182.69 0 147.38 0 111 C-47.52 111 -95.04 111 -144 111 C-144 110.67 -144 110.34 -144 110 C-96.48 110 -48.96 110 0 110 C0 73.7 0 37.4 0 0 Z M-291 220 C-291 255.31 -291 290.62 -291 327 C-243.48 327 -195.96 327 -147 327 C-147 291.69 -147 256.38 -147 220 C-194.52 220 -242.04 220 -291 220 Z " fill="#E3E3E3" transform="translate(1317,451)"/>
<path d="M0 0 C0.33 0 0.66 0 1 0 C1 35.97 1 71.94 1 109 C48.52 109 96.04 109 145 109 C145 73.03 145 37.06 145 0 C145.33 0 145.66 0 146 0 C146 35.97 146 71.94 146 109 C194.18 109 242.36 109 292 109 C292 109.33 292 109.66 292 110 C243.82 110.33 195.64 110.66 146 111 C146 146.31 146 181.62 146 218 C145.67 218 145.34 218 145 218 C145 182.69 145 147.38 145 111 C78.01 111 11.02 111 -58 111 C-58.33 112.98 -58.66 114.96 -59 117 C-62.29571061 121.94356592 -65.12975006 124.33676252 -71 126 C-76.97847282 126.25040724 -81.4411831 125.02872191 -86 121 C-89.43433594 116.39075966 -90.67086775 112.90199084 -90.38671875 107.140625 C-89.37235061 101.52573871 -85.45317661 98.16409917 -81 95 C-76.8357867 92.91789335 -71.30217694 93.28029873 -66.92578125 94.6484375 C-62.07214113 97.11210732 -60.13773025 100.21148424 -58 105 C-58 106.32 -58 107.64 -58 109 C-38.86 109 -19.72 109 0 109 C0 73.03 0 37.06 0 0 Z " fill="#E7E7E7" transform="translate(1025,451)"/>
<path d="M0 0 C0.33 0 0.66 0 1 0 C1 108.24 1 216.48 1 328 C0.67 328 0.34 328 0 328 C0 292.69 0 257.38 0 221 C-18.81 221 -37.62 221 -57 221 C-57.33 222.98 -57.66 224.96 -58 227 C-61.32091667 231.981375 -64.14555255 234.18310252 -70 236 C-75.60118435 236.81471772 -78.75597413 235.45770824 -83.26953125 232.3671875 C-86.39868335 229.89494543 -87.74917295 227.75248116 -89 224 C-89.54225459 219.33305478 -89.4698456 215.92228952 -87.3125 211.6875 C-84.19400688 208.0633053 -80.81991022 204.31446896 -75.86328125 203.76171875 C-69.61445502 203.57989992 -65.98095396 204.11485591 -61 208 C-58.20276688 211.57747026 -57 214.36448808 -57 219 C-38.19 219 -19.38 219 0 219 C0 183.03 0 147.06 0 110 C-66.66 110 -133.32 110 -202 110 C-202 109.34 -202 108.68 -202 108 C-135.34 108 -68.68 108 0 108 C0 72.36 0 36.72 0 0 Z " fill="#E3E3E3" transform="translate(1464,341)"/>
<path d="M0 0 C149.16 0 298.32 0 452 0 C452 0.33 452 0.66 452 1 C402.5 1 353 1 302 1 C302 36.97 302 72.94 302 110 C351.5 110 401 110 452 110 C452 110.33 452 110.66 452 111 C402.5 111 353 111 302 111 C302 146.64 302 182.28 302 219 C301.67 219 301.34 219 301 219 C301 183.36 301 147.72 301 111 C251.5 111 202 111 151 111 C151 146.64 151 182.28 151 219 C150.67 219 150.34 219 150 219 C150 183.36 150 147.72 150 111 C130.53 111 111.06 111 91 111 C91 110.67 91 110.34 91 110 C110.47 110 129.94 110 150 110 C150 74.03 150 38.06 150 1 C100.5 1 51 1 0 1 C0 0.67 0 0.34 0 0 Z M151 1 C151 36.97 151 72.94 151 110 C200.5 110 250 110 301 110 C301 74.03 301 38.06 301 1 C251.5 1 202 1 151 1 Z " fill="#D6D6D6" transform="translate(125,120)"/>
<path d="M0 0 C0.99 0.33 1.98 0.66 3 1 C3 36.97 3 72.94 3 110 C51.18 110.33 99.36 110.66 149 111 C149 146.97 149 182.94 149 220 C105.77 220 62.54 220 18 220 C18 219.67 18 219.34 18 219 C60.9 219 103.8 219 148 219 C148 183.69 148 148.38 148 112 C99.82 112 51.64 112 2 112 C2 142.36 2 172.72 2 204 C1.34 204 0.68 204 0 204 C0 173.64 0 143.28 0 112 C-49.5 112 -99 112 -150 112 C-150 111.67 -150 111.34 -150 111 C-100.5 111 -51 111 0 111 C0 74.37 0 37.74 0 0 Z " fill="#EAEAEA" transform="translate(577,120)"/>
<path d="M0 0 C4.30056149 2.19189908 6.75085001 5.04466877 8.87890625 9.30078125 C10.33721727 15.32846681 10.08729533 19.89169208 6.87890625 25.30078125 C2.90327141 29.80042526 -1.55692261 31.96211714 -7.43359375 32.73828125 C-13.57061677 32.01015987 -17.51106392 29.11722517 -21.55859375 24.55078125 C-23.86460987 19.75426772 -24.95480859 15.36139231 -23.52734375 10.12109375 C-19.16563384 0.15684265 -10.40091111 -3.4286613 0 0 Z " fill="#036CB4" transform="translate(510.12109375,654.69921875)"/>
<path d="M0 0 C4.90674853 2.45337426 7.90176289 6.35318083 9.9609375 11.38671875 C11.00019596 16.67209033 9.85732318 20.89232717 6.9609375 25.38671875 C3.64807338 29.32634095 1.04979911 31.40809152 -4.0390625 32.38671875 C-10.04042986 32.47306936 -14.43431722 31.45602853 -19.0390625 27.38671875 C-22.71611467 22.54849221 -23.69292102 18.82052096 -23.42578125 12.75 C-22.63284608 7.90428507 -19.98136289 5.21684052 -16.4140625 2.07421875 C-11.45487225 -1.44941643 -5.84663895 -1.75847187 0 0 Z " fill="#026BB4" transform="translate(204.0390625,215.61328125)"/>
<path d="M0 0 C5.28294713 2.79099094 9.0860914 6.2582742 11 12 C11.597149 17.87196515 10.96284979 21.37603996 7.5390625 26.234375 C4.36703361 29.8733523 1.32672397 31.64545158 -3.4609375 32.375 C-9.143598 32.64804074 -12.60831494 31.86886541 -17 28 C-21.53522058 22.9744853 -22.3638642 19.10830087 -22.27734375 12.50390625 C-21.86265651 8.76003972 -20.50322623 6.76672373 -18 4 C-11.7826847 -0.69470747 -7.48076799 -1.65242992 0 0 Z " fill="#026DB5" transform="translate(1105,435)"/>
<path d="M0 0 C4.06104818 2.66721385 6.45597455 5.30713755 7.96875 10.0234375 C8.62595367 15.0592606 8.57501149 18.81091452 6.28125 23.3984375 C3.13154803 26.97377487 -0.23017232 30.71106869 -5.16796875 31.26171875 C-11.42638122 31.44381651 -15.0046524 30.84365167 -20.03125 27.0234375 C-24.16614906 21.69159397 -25.48797521 17.76013432 -25.03125 11.0234375 C-22.88272003 5.05529871 -19.09087895 1.84267634 -13.71875 -1.3515625 C-8.96501973 -2.45708117 -4.43085845 -2.13022041 0 0 Z " fill="#026CB4" transform="translate(359.03125,325.9765625)"/>
<path d="M0 0 C4.61430601 2.3421857 7.32398814 5.52722704 8.92578125 10.3515625 C9.72091 14.98298252 9.44913247 18.94860023 7.30078125 23.1640625 C4.12973716 27.41993746 0.94251757 29.67931706 -4.07421875 31.3515625 C-9.70290038 32.01376034 -12.81586746 30.81907963 -17.34375 27.71875 C-20.4729021 25.24650793 -21.8233917 23.10404366 -23.07421875 19.3515625 C-23.61647334 14.68461728 -23.54406435 11.27385202 -21.38671875 7.0390625 C-15.40129486 0.08302933 -9.09518111 -2.84331462 0 0 Z " fill="#026CB4" transform="translate(1398.07421875,545.6484375)"/>
<path d="M0 0 C4.60610295 2.33802189 7.3367468 5.52770792 8.92578125 10.3515625 C9.79491254 16.02066889 9.18584045 20.51768162 5.92578125 25.3515625 C2.33198439 28.75621215 -1.09692325 31.30184885 -6.1796875 31.38671875 C-11.45699387 31.02429067 -15.01471798 29.93902829 -19.07421875 26.3515625 C-22.50855469 21.74232216 -23.7450865 18.25355334 -23.4609375 12.4921875 C-22.44656936 6.87730121 -18.52739536 3.51566167 -14.07421875 0.3515625 C-9.91000545 -1.73054415 -4.37639569 -1.36813877 0 0 Z " fill="#026CB4" transform="translate(958.07421875,545.6484375)"/>
<path d="M0 0 C3.88446678 2.58964452 6.69907021 5.64814041 8.8125 9.875 C9.48075868 15.25393466 9.18114264 19.7941504 6.12890625 24.3671875 C3.04246223 27.90240231 -0.08644075 29.54734285 -4.6171875 30.25390625 C-9.51073959 30.48445354 -13.58993872 30.02921948 -17.71484375 27.26953125 C-21.52398152 23.66246976 -22.97249073 19.40694106 -23.6875 14.3125 C-22.88112623 8.76868035 -20.70930347 5.285452 -16.625 1.5 C-11.38219552 -1.99520299 -5.78544111 -2.04192039 0 0 Z " fill="#026BB4" transform="translate(661.1875,546.125)"/>
<path d="M0 0 C4.23301121 2.82200747 7.17159664 5.95228992 8.8125 10.875 C9.41475403 16.79716458 8.73867675 20.27928561 5.28515625 25.17578125 C2.4278774 28.47264146 -0.29547047 29.63116585 -4.58203125 30.18359375 C-10.28767203 30.46588182 -13.80940477 29.83613378 -18.1875 25.875 C-21.61667072 22.17510527 -22.48719749 19.2957651 -22.6875 14.375 C-22.48029901 9.44896351 -21.67564876 6.54202818 -18.1875 2.875 C-12.47530497 -1.73813979 -6.99463339 -2.46869414 0 0 Z " fill="#026BB4" transform="translate(808.1875,546.125)"/>
<path d="M0 0 C5.27322153 1.82534591 7.79691086 4.60719203 11 9 C12.41192337 13.23577012 12.86076548 16.84406402 11.1640625 21.09375 C8.6668871 25.58531381 5.93768185 28.42150299 1.1796875 30.44140625 C-4.18627361 31.81655399 -8.54377566 30.75507929 -13.375 28.25 C-16.95034337 25.18541997 -18.72444044 23.22488833 -19.31640625 18.4453125 C-19.50832092 13.87650528 -19.34850902 10.73723061 -17.375 6.5625 C-12.03772766 0.80386405 -7.71715289 -1.12426148 0 0 Z " fill="#036CB4" transform="translate(1249,435)"/>
<path d="M0 0 C4.85857844 2.29678253 7.63468979 5.17840611 10 10 C10.9021605 15.64610559 10.24179585 20.19319926 7 25 C2.04335678 29.58489498 -1.93349732 30.36331663 -8.49609375 30.27734375 C-13.51999602 29.72087408 -16.11416007 26.97908624 -19.375 23.375 C-21.57907893 18.79729761 -21.7971639 14.99447589 -21 10 C-16.59734415 0.85602246 -9.56397657 -1.39682519 0 0 Z " fill="#026BB4" transform="translate(583,326)"/>
<path d="M0 0 C3.61376334 2.15288029 5.41763144 4.155122 7 8 C7.74549479 13.86714084 7.49727901 19.05557105 4 24 C0.58682324 26.92558008 -2.5096408 27.53846957 -7.00390625 27.3515625 C-10.39677841 26.75399206 -12.45211152 25.24456842 -15 23 C-17.83666783 18.61605881 -17.66215909 13.04694429 -17 8 C-13.22210472 0.44420943 -8.05272874 -1.17914957 0 0 Z " fill="#080808" transform="translate(983,50)"/>
<path d="M0 0 C15 0 15 0 20 3 C22.47035712 5.47035712 22.35042281 6.3960007 22.4375 9.8125 C22.36848565 13.79232763 22.18415298 14.75612172 19.6875 18.0625 C16.10554006 20.64484321 13.61390621 21.12483922 9.3125 21.0625 C7.1778125 21.0315625 7.1778125 21.0315625 5 21 C5 25.29 5 29.58 5 34 C3.35 34 1.7 34 0 34 C0 22.78 0 11.56 0 0 Z " fill="#111111" transform="translate(927,42)"/>
<path d="M0 0 C3.76821527 2.74765697 5.76482214 5.50844416 7 10 C7 11.65 7 13.3 7 15 C0.4 15 -6.2 15 -13 15 C-10.83333333 20.83333333 -10.83333333 20.83333333 -8 22 C-3.26055347 22.31658385 1.38447404 22.19110347 6 21 C5.67 22.65 5.34 24.3 5 26 C-0.96316109 27.69002031 -6.77799562 28.05040207 -12.4375 25.375 C-16.34279524 21.75545807 -17.80799562 18.79204088 -18.375 13.5 C-17.83531067 8.46289961 -16.23685894 5.42426181 -12.9375 1.625 C-8.64996089 -0.74683015 -4.7900775 -0.91389637 0 0 Z " fill="#111111" transform="translate(579,50)"/>
<path d="M0 0 C3.67930728 2.09215512 4.6704934 3.01148019 6 7 C6.0806622 8.48123547 6.10761193 9.96582204 6.09765625 11.44921875 C6.09443359 12.29677734 6.09121094 13.14433594 6.08789062 14.01757812 C6.07951172 14.89865234 6.07113281 15.77972656 6.0625 16.6875 C6.05798828 17.58017578 6.05347656 18.47285156 6.04882812 19.39257812 C6.03704983 21.59511987 6.02060164 23.79752599 6 26 C4.68 26 3.36 26 2 26 C1.67 25.34 1.34 24.68 1 24 C0.319375 24.495 -0.36125 24.99 -1.0625 25.5 C-4.72431906 27.36986505 -6.93214595 27.50848176 -11 27 C-13.9375 25.5 -13.9375 25.5 -16 23 C-16.65352395 20.2024589 -16.63811011 17.79963625 -16 15 C-14.12984906 12.56880377 -12.71861655 11.35930827 -10 10 C-7.95944995 9.92934383 -5.91665743 9.91578024 -3.875 9.9375 C-2.77929688 9.94652344 -1.68359375 9.95554687 -0.5546875 9.96484375 C0.28835938 9.97644531 1.13140625 9.98804688 2 10 C0.98015185 7.39468525 0.98015185 7.39468525 -1 5 C-4.19375377 4.39442058 -4.19375377 4.39442058 -7.6875 4.6875 C-8.86699219 4.73261719 -10.04648437 4.77773438 -11.26171875 4.82421875 C-12.61716797 4.91123047 -12.61716797 4.91123047 -14 5 C-14 3.68 -14 2.36 -14 1 C-9.82666517 -1.08666742 -4.54557324 -0.44849656 0 0 Z " fill="#060606" transform="translate(811,50)"/>
<path d="M0 0 C3.24934121 1.82775443 4.5600113 3.18287812 6.3125 6.4375 C7.02695621 9.10047314 7.22862164 11.2565403 7 14 C6 15 6 15 4.14233398 15.11352539 C3.35157471 15.10828857 2.56081543 15.10305176 1.74609375 15.09765625 C0.89208984 15.09443359 0.03808594 15.09121094 -0.84179688 15.08789062 C-1.73962891 15.07951172 -2.63746094 15.07113281 -3.5625 15.0625 C-4.46419922 15.05798828 -5.36589844 15.05347656 -6.29492188 15.04882812 C-8.53001314 15.03700225 -10.76497437 15.0205222 -13 15 C-11.31192092 19.23084903 -11.31192092 19.23084903 -8 22 C-6.37731009 22.09611752 -4.75052694 22.12982352 -3.125 22.125 C-2.26132812 22.12757812 -1.39765625 22.13015625 -0.5078125 22.1328125 C1.80665971 22.01023921 3.78289116 21.64966445 6 21 C6 22.32 6 23.64 6 25 C1.22404285 27.54717715 -3.72395845 27.70065832 -9 27 C-12.85544798 25.00342873 -14.59805092 23.60292362 -17 20 C-17.6318919 15.01803123 -18.20011712 9.45823247 -15.94921875 4.84765625 C-11.41201561 -0.62643249 -6.70931037 -0.7607407 0 0 Z " fill="#0F1010" transform="translate(712,50)"/>
<path d="M0 0 C2.89728868 1.2328888 4.39683427 2.2245012 6.3125 4.6875 C7 7 7 7 7 15 C0.73 15 -5.54 15 -12 15 C-9.83333333 20.83333333 -9.83333333 20.83333333 -7 22 C-5.37731009 22.09611752 -3.75052694 22.12982352 -2.125 22.125 C-1.26132812 22.12757812 -0.39765625 22.13015625 0.4921875 22.1328125 C2.80665971 22.01023921 4.78289116 21.64966445 7 21 C7 22.32 7 23.64 7 25 C2.20210017 27.55887991 -2.70177518 27.56735521 -8 27 C-11.76292473 25.39875543 -13.84097382 23.45444189 -16 20 C-17.56840852 15.29477445 -17.54895539 11.47351184 -15.8125 6.8125 C-11.62113987 0.30866531 -7.45282005 -1.1226571 0 0 Z " fill="#0D0D0E" transform="translate(878,50)"/>
<path d="M0 0 C3.24434311 2.99477826 3.86040159 4.73568254 4.34375 9.11328125 C4.50480494 15.03876097 4.54809275 19.0639003 1 24 C-1 26 -1 26 -4.875 26.4375 C-8.32207166 26.36242766 -8.7903415 26.19890678 -11.4375 23.6875 C-14.58453455 18.27460057 -14.48918777 13.11484718 -14 7 C-12.82012983 3.63737002 -11.98204183 1.80667722 -9.25 -0.4375 C-5.77600177 -1.30599956 -3.43702211 -0.98200632 0 0 Z " fill="#0D0D0D" transform="translate(98,767)"/>
<path d="M0 0 C2.57285724 2.172635 4.48996919 3.97993838 6 7 C6.50408076 13.475499 6.90617268 19.50242364 3 25 C-0.51824511 27.34549674 -1.85775694 27.57991403 -6 27 C-9.10164769 24.44975635 -10.72566416 22.82300753 -12 19 C-12.99572163 7.68794933 -12.99572163 7.68794933 -10.125 3.3125 C-6.88557082 -0.21276116 -4.73505663 -0.55706549 0 0 Z " fill="#111111" transform="translate(1257,908)"/>
<path d="M0 0 C1.32 0 2.64 0 4 0 C4.33 0.99 4.66 1.98 5 3 C5.515625 2.505 6.03125 2.01 6.5625 1.5 C9.93763128 -0.57700386 12.09800946 -0.47919182 16 0 C18.9375 2 18.9375 2 21 4 C21.474375 3.34 21.94875 2.68 22.4375 2 C25.6920095 -0.54010497 27.76783057 -0.51207726 31.78125 -0.62890625 C34 0 34 0 36.265625 1.859375 C38.8173647 6.48009283 38.43097037 10.63048294 38.25 15.8125 C38.23195313 16.79154297 38.21390625 17.77058594 38.1953125 18.77929688 C38.14832887 21.18720771 38.08265694 23.59309335 38 26 C36.68 26 35.36 26 34 26 C33.97494385 25.43490723 33.9498877 24.86981445 33.92407227 24.28759766 C33.80820044 21.73316258 33.68543463 19.1791045 33.5625 16.625 C33.52318359 15.73554687 33.48386719 14.84609375 33.44335938 13.9296875 C33.40146484 13.07890625 33.35957031 12.228125 33.31640625 11.3515625 C33.26141968 10.17327881 33.26141968 10.17327881 33.20532227 8.97119141 C33.109109 6.92476504 33.109109 6.92476504 32 5 C28.62563814 4.66619186 28.62563814 4.66619186 25 5 C22.25130136 7.39238585 21.7829495 9.62318106 21.48828125 13.109375 C21.41559302 14.65565179 21.35740601 16.20266715 21.3125 17.75 C21.27833984 18.54277344 21.24417969 19.33554688 21.20898438 20.15234375 C21.12680896 22.10107504 21.06171955 24.05051362 21 26 C19.68 26 18.36 26 17 26 C16.95101562 24.73542969 16.90203125 23.47085938 16.8515625 22.16796875 C16.7765262 20.50779053 16.70097873 18.84763536 16.625 17.1875 C16.5940625 16.35412109 16.563125 15.52074219 16.53125 14.66210938 C16.49257813 13.85966797 16.45390625 13.05722656 16.4140625 12.23046875 C16.36693115 11.12288208 16.36693115 11.12288208 16.31884766 9.99291992 C16.09165386 7.68650412 16.09165386 7.68650412 14 5 C11.04279372 4.33319632 11.04279372 4.33319632 8 5 C4.58911837 9.16256881 4.47348171 13.16568479 4.3125 18.3125 C4.27833984 19.05306641 4.24417969 19.79363281 4.20898438 20.55664062 C4.12706446 22.37058164 4.06184178 24.18526353 4 26 C2.68 26 1.36 26 0 26 C0 17.42 0 8.84 0 0 Z " fill="#040404" transform="translate(650,50)"/>
<path d="M0 0 C0.99 0 1.98 0 3 0 C3 10.23 3 20.46 3 31 C2.01 31 1.02 31 0 31 C-0.33 30.34 -0.66 29.68 -1 29 C-1.66 29.66 -2.32 30.32 -3 31 C-10.04974619 31.6822335 -10.04974619 31.6822335 -13.4375 29.25 C-16.38216372 25.00968424 -16.352613 21.11288854 -16 16 C-14.79134451 12.79706296 -13.88138853 10.69903228 -11.1875 8.5625 C-8.1763985 7.78821676 -5.98557984 8.22115308 -3 9 C-2.34 9.66 -1.68 10.32 -1 11 C-0.67 7.37 -0.34 3.74 0 0 Z " fill="#060606" transform="translate(790,960)"/>
<path d="M0 0 C9.24 0 18.48 0 28 0 C28 0.99 28 1.98 28 3 C27.34 3 26.68 3 26 3 C26.99 4.485 26.99 4.485 28 6 C28.4375 9.375 28.4375 9.375 28 13 C25.8272578 15.63016161 24.05326212 17.47336894 21 19 C15.97371884 19.37934197 13.07141944 19.02448301 9 16 C7 14 7 14 6.8046875 11.8359375 C6.83949219 10.61777344 6.83949219 10.61777344 6.875 9.375 C6.89304687 8.55773437 6.91109375 7.74046875 6.9296875 6.8984375 C6.95289063 6.27195312 6.97609375 5.64546875 7 5 C4.69 4.67 2.38 4.34 0 4 C0 2.68 0 1.36 0 0 Z " fill="#050505" transform="translate(27,391)"/>
<path d="M0 0 C3 1.5625 3 1.5625 5 4 C4.93113135 7.99438174 4.8685771 10.1314229 2 13 C2.680625 13.53625 3.36125 14.0725 4.0625 14.625 C6 17 6 17 5.9375 20.0625 C5.00290216 22.99090656 4.40426176 24.17276106 2 26 C-1.13871188 27.56935594 -3.53855822 27.35201103 -7 27 C-10 24.9375 -10 24.9375 -12 22 C-12 18.3125 -12 18.3125 -11 15 C-10.01 14.34 -9.02 13.68 -8 13 C-8.495 12.649375 -8.99 12.29875 -9.5 11.9375 C-11.81346701 8.94927177 -11.4568702 6.65496159 -11 3 C-7.99718844 -0.72348634 -4.52491483 -0.5556913 0 0 Z " fill="#0D0D0D" transform="translate(954,908)"/>
<path d="M0 0 C0.61875 0.33 1.2375 0.66 1.875 1 C1.875 2.32 1.875 3.64 1.875 5 C0.6375 4.7525 0.6375 4.7525 -0.625 4.5 C-7.6080607 3.33729488 -7.6080607 3.33729488 -14.1875 5.1875 C-15.49394089 7.71328572 -14.7565158 9.3017052 -14.125 12 C-13.24457031 12.23074219 -12.36414063 12.46148437 -11.45703125 12.69921875 C0.91275942 16.17264499 0.91275942 16.17264499 3.875 21 C4.55041496 23.8402065 4.60187734 26.16689542 3.875 29 C1.34046343 32.21954645 -0.23797305 33.70432435 -4.125 35 C-9.81395404 35.42104135 -14.79909783 35.24248512 -20.125 33 C-20.125 31.35 -20.125 29.7 -20.125 28 C-19.50625 28.33 -18.8875 28.66 -18.25 29 C-13.91408215 30.38749371 -9.64550336 30.52100717 -5.125 30 C-4.135 29.34 -3.145 28.68 -2.125 28 C-1.8747843 24.91634129 -1.8747843 24.91634129 -2.125 22 C-2.69347656 21.81824219 -3.26195312 21.63648437 -3.84765625 21.44921875 C-16.57863938 17.30474177 -16.57863938 17.30474177 -20.125 14.3125 C-21.66310463 10.75563304 -21.24583596 7.66340344 -20.125 4 C-15.27942362 -2.2992493 -7.13875694 -2.28440222 0 0 Z " fill="#0A0A0A" transform="translate(760.125,42)"/>
<path d="M0 0 C7.68907943 0.01151771 15.37816018 0.01675878 23.0672462 0.021703 C38.78260065 0.03193718 54.49793764 0.04932289 70.21327937 0.07202661 C70.21327937 0.73202661 70.21327937 1.39202661 70.21327937 2.07202661 C53.72635478 2.2290135 37.23937389 2.37684109 20.75228179 2.51499021 C13.08958062 2.57939083 5.42692108 2.64636344 -2.23569524 2.72021997 C-41.7753737 3.09963837 -81.25309532 3.02947154 -120.78672063 2.07202661 C-120.78672063 1.74202661 -120.78672063 1.41202661 -120.78672063 1.07202661 C-80.51883075 0.17700879 -40.27582844 -0.06148202 0 0 Z " fill="#E1E1E1" transform="translate(489.7867206335068,338.92797338962555)"/>
<path d="M0 0 C2.69990662 1.79993774 4.5418865 3.083773 6 6 C6.1228777 7.93460941 6.17554888 9.87402904 6.1875 11.8125 C6.20167969 12.85019531 6.21585938 13.88789062 6.23046875 14.95703125 C5.89747057 19.35373602 4.85550538 22.06900885 1.875 25.3125 C-2.03814144 27.60934389 -4.51500934 27.30406716 -9 27 C-9.33 25.68 -9.66 24.36 -10 23 C-7.03 23 -4.06 23 -1 23 C-0.01 20.69 0.98 18.38 2 16 C1.34 16.66 0.68 17.32 0 18 C-3.82959591 18.42551066 -6.10789095 18.58691385 -9.375 16.4375 C-11.53538251 13.19692624 -11.93187446 10.88315597 -12 7 C-9.45092577 1.26458298 -6.25679495 -0.75081539 0 0 Z " fill="#090909" transform="translate(1100,908)"/>
<path d="M0 0 C0.66 0.33 1.32 0.66 2 1 C2 1.99 2 2.98 2 4 C0.1128125 3.9071875 0.1128125 3.9071875 -1.8125 3.8125 C-5.11345996 3.79634592 -5.11345996 3.79634592 -8 5.3125 C-9.2549012 7.10322171 -9.2549012 7.10322171 -9 10 C-7.9275 9.79375 -6.855 9.5875 -5.75 9.375 C-0.73417722 8.87341772 -0.73417722 8.87341772 2 11 C4.30567313 14.22794238 4.32369432 17.11566819 4 21 C3.13676251 23.58971247 2.46898968 24.66500737 0.25 26.25 C-2.7748674 27.25828913 -4.82612473 27.45341075 -8 27 C-11.10164769 24.44975635 -12.72566416 22.82300753 -14 19 C-14.53550042 13.01681258 -14.49180719 8.11300338 -11 3 C-7.68555192 -0.55119437 -4.69582131 -0.34783862 0 0 Z " fill="#0C0C0C" transform="translate(657,908)"/>
<path d="M0 0 C0 0.99 0 1.98 0 3 C-0.62648438 2.97679688 -1.25296875 2.95359375 -1.8984375 2.9296875 C-2.71570313 2.91164063 -3.53296875 2.89359375 -4.375 2.875 C-5.59316406 2.84019531 -5.59316406 2.84019531 -6.8359375 2.8046875 C-9.21342243 2.78629949 -9.21342243 2.78629949 -11 5 C-11.64767793 7.57061311 -11.64767793 7.57061311 -12 10 C-11.01 9.34 -10.02 8.68 -9 8 C-5.44582242 7.5462752 -3.68642854 7.53619693 -0.6875 9.5625 C1.55171252 12.79691808 1.93123623 15.08046521 2 19 C0.41161066 22.57387602 -0.71634358 23.81089572 -4 26 C-6.875 26.4375 -6.875 26.4375 -10 26 C-12.57285724 23.827365 -14.48996919 22.02006162 -16 19 C-16.49953618 12.58288137 -16.97530783 6.39506063 -13 1 C-9.3988017 -1.82951295 -4.05763629 -2.02881814 0 0 Z " fill="#0C0C0C" transform="translate(100,110)"/>
<path d="M0 0 C0.78375 0.495 1.5675 0.99 2.375 1.5 C2.375 3.15 2.375 4.8 2.375 6.5 C1.385 6.005 0.395 5.51 -0.625 5 C-5.68951899 2.83681476 -10.10422286 2.95200497 -15.5 4.125 C-17.83555601 5.38521827 -17.83555601 5.38521827 -18.9375 8.0625 C-20.3722942 15.236471 -20.30370629 21.06226399 -16.625 27.5 C-12.49159735 30.13834212 -8.37969899 30.06662216 -3.625 29.5 C-0.17153852 28.15253476 -0.17153852 28.15253476 2.375 26.5 C2.375 28.15 2.375 29.8 2.375 31.5 C-2.92593308 34.84795774 -7.53799383 35.21495015 -13.625 34.5 C-18.90226735 32.70772052 -21.46488933 29.92415494 -24.625 25.5 C-26.41894825 20.04959671 -26.75167418 13.54656739 -24.75390625 8.14453125 C-19.31939134 -1.35250627 -10.12336561 -4.18897887 0 0 Z " fill="#080808" transform="translate(485.625,42.5)"/>
<path d="M0 0 C2.65776679 0.65088166 4.70767067 1.39144462 7.0625 2.75 C7.59875 2.234375 8.135 1.71875 8.6875 1.1875 C11.0625 -0.25 11.0625 -0.25 14.125 -0.125 C17.18331325 0.78598693 18.15397643 1.28571102 20.0625 3.75 C20.40307617 5.8347168 20.40307617 5.8347168 20.35546875 8.19921875 C20.34580078 9.04677734 20.33613281 9.89433594 20.32617188 10.76757812 C20.30103516 11.64865234 20.27589844 12.52972656 20.25 13.4375 C20.22969727 14.77651367 20.22969727 14.77651367 20.20898438 16.14257812 C20.17364079 18.34566166 20.12430493 20.54752582 20.0625 22.75 C19.0725 22.75 18.0825 22.75 17.0625 22.75 C17.00191406 21.61820313 16.94132813 20.48640625 16.87890625 19.3203125 C16.79450083 17.83852855 16.70985283 16.3567584 16.625 14.875 C16.58568359 14.12863281 16.54636719 13.38226562 16.50585938 12.61328125 C16.34676376 8.55013136 16.34676376 8.55013136 15.0625 4.75 C13.06295254 4.70745644 11.06208364 4.70919217 9.0625 4.75 C6.94324396 6.86925604 7.64418983 11.3696093 7.5 14.3125 C7.45681641 15.11880859 7.41363281 15.92511719 7.36914062 16.75585938 C7.26274738 18.75368805 7.16209112 20.7518207 7.0625 22.75 C5.7425 22.75 4.4225 22.75 3.0625 22.75 C3.00191406 21.61820313 2.94132813 20.48640625 2.87890625 19.3203125 C2.79450083 17.83852855 2.70985283 16.3567584 2.625 14.875 C2.58568359 14.12863281 2.54636719 13.38226562 2.50585938 12.61328125 C2.34676376 8.55013136 2.34676376 8.55013136 1.0625 4.75 C-0.9175 4.75 -2.8975 4.75 -4.9375 4.75 C-6.523369 7.921738 -6.31616445 11.38513822 -6.5 14.875 C-6.54318359 15.62910156 -6.58636719 16.38320313 -6.63085938 17.16015625 C-6.7369832 19.02321888 -6.83775001 20.88658524 -6.9375 22.75 C-8.2575 22.75 -9.5775 22.75 -10.9375 22.75 C-10.9375 15.49 -10.9375 8.23 -10.9375 0.75 C-8.4625 1.245 -8.4625 1.245 -5.9375 1.75 C-2.9375 -0.25 -2.9375 -0.25 0 0 Z " fill="#181818" transform="translate(702.9375,968.25)"/>
<path d="M0 0 C1.18916016 0.02707031 1.18916016 0.02707031 2.40234375 0.0546875 C4.35208348 0.10166918 6.30119878 0.17340956 8.25 0.25 C8.25 1.57 8.25 2.89 8.25 4.25 C7.10660156 4.31058594 5.96320312 4.37117188 4.78515625 4.43359375 C3.29425695 4.51798428 1.80337225 4.60263302 0.3125 4.6875 C-0.81961914 4.74647461 -0.81961914 4.74647461 -1.97460938 4.80664062 C-5.66944187 4.69038024 -5.66944187 4.69038024 -8.75 6.25 C-8.91666667 8.75 -8.91666667 8.75 -8.75 11.25 C-6.69077598 13.30922402 -2.53291876 12.66427579 0.3125 12.8125 C1.45041992 12.87727539 1.45041992 12.87727539 2.61132812 12.94335938 C4.49065438 13.04973633 6.37030244 13.15039934 8.25 13.25 C8.25 14.57 8.25 15.89 8.25 17.25 C7.10660156 17.31058594 5.96320312 17.37117188 4.78515625 17.43359375 C3.29425695 17.51798428 1.80337225 17.60263302 0.3125 17.6875 C-0.44224609 17.72681641 -1.19699219 17.76613281 -1.97460938 17.80664062 C-5.66944187 17.69038024 -5.66944187 17.69038024 -8.75 19.25 C-8.91666667 22.25 -8.91666667 22.25 -8.75 25.25 C-6.69077598 27.30922402 -2.53291876 26.66427579 0.3125 26.8125 C1.07111328 26.85568359 1.82972656 26.89886719 2.61132812 26.94335938 C4.49065438 27.04973633 6.37030244 27.15039934 8.25 27.25 C8.25 28.57 8.25 29.89 8.25 31.25 C1.32 31.25 -5.61 31.25 -12.75 31.25 C-12.42 29.6 -12.09 27.95 -11.75 26.25 C-12.08 25.92 -12.41 25.59 -12.75 25.25 C-13.11090226 17.79135338 -13.11090226 17.79135338 -10.75 14.25 C-11.41 13.59 -12.07 12.93 -12.75 12.25 C-13.425 5.275 -13.425 5.275 -11.2734375 2.0078125 C-7.57569508 -0.56801426 -4.38936005 -0.18925931 0 0 Z " fill="#060606" transform="translate(46.75,460.75)"/>
<path d="M0 0 C2.26171875 -0.03515625 2.26171875 -0.03515625 5 1 C6.70837418 3.67923644 7.72938465 6.58572604 8.8125 9.5625 C9.12380859 10.36880859 9.43511719 11.17511719 9.75585938 12.00585938 C10.52173646 13.9971398 11.26322944 15.9977676 12 18 C14.26071155 14.60893267 15.65268823 11.08485863 17.125 7.3125 C17.40214844 6.61060547 17.67929687 5.90871094 17.96484375 5.18554688 C18.64635741 3.45826225 19.32359772 1.72929263 20 0 C21.65 0 23.3 0 25 0 C22.61048899 7.38718109 19.93969444 14.63962931 17.125 21.875 C16.70347656 23.00164062 16.28195312 24.12828125 15.84765625 25.2890625 C15.42613281 26.36671875 15.00460937 27.444375 14.5703125 28.5546875 C14.19664551 29.52905762 13.82297852 30.50342773 13.43798828 31.50732422 C11.70110037 34.51812653 10.12445428 35.54483288 7 37 C4.1875 37.1875 4.1875 37.1875 2 37 C2 35.68 2 34.36 2 33 C2.78375 32.9175 3.5675 32.835 4.375 32.75 C7.06141884 32.25307028 7.06141884 32.25307028 8.375 30.3125 C10.06354078 24.0648991 6.41846995 17.91289331 3.9375 12.3125 C3.19168527 10.62326151 2.45057837 8.93193436 1.71484375 7.23828125 C1.38605225 6.49618408 1.05726074 5.75408691 0.71850586 4.98950195 C0 3 0 3 0 0 Z " fill="#0A0A0A" transform="translate(493,50)"/>
<path d="M0 0 C2.5 2.125 2.5 2.125 4 5 C4 7.31 4 9.62 4 12 C-1.28 12 -6.56 12 -12 12 C-8.95416786 17.93397701 -8.95416786 17.93397701 -6 18.62109375 C-5.34 18.56050781 -4.68 18.49992188 -4 18.4375 C-3.3090625 18.38464844 -2.618125 18.33179688 -1.90625 18.27734375 C0.1153238 17.98322133 2.0589504 17.64701653 4 17 C4 18.32 4 19.64 4 21 C-0.33320102 22.44440034 -4.4714847 22.54168843 -9 22 C-11.93423195 20.20353146 -13.47205355 19.0558929 -15 16 C-15.42308538 11.40301468 -15.53894467 7.29346722 -13.75 3 C-9.77769255 -1.53977994 -5.61412826 -1.76016726 0 0 Z " fill="#0B0B0B" transform="translate(813,969)"/>
<path d="M0 0 C2.69990662 1.79993774 4.5418865 3.083773 6 6 C6 8.31 6 10.62 6 13 C1.05 13 -3.9 13 -9 13 C-7.54711014 17.5841963 -7.54711014 17.5841963 -6 19 C-4.5444063 19.09858603 -3.08392081 19.12972143 -1.625 19.125 C-0.43777344 19.12886719 -0.43777344 19.12886719 0.7734375 19.1328125 C3.17343496 19.08617666 3.17343496 19.08617666 6 18 C6 19.32 6 20.64 6 22 C2.0649579 23.96752105 -2.7105522 23.46422595 -7 23 C-10.00197464 21.19881522 -11.45166366 20.09667268 -13 17 C-13.51512617 12.90842645 -13.94367269 8.76410454 -11.953125 5.04296875 C-8.25633299 0.57419959 -5.72127737 -0.56090955 0 0 Z " fill="#09090A" transform="translate(680,968)"/>
<path d="M0 0 C1.18916016 0.03383789 1.18916016 0.03383789 2.40234375 0.06835938 C4.3523762 0.12709529 6.30143312 0.21677346 8.25 0.3125 C8.25 1.3025 8.25 2.2925 8.25 3.3125 C7.26 3.8075 7.26 3.8075 6.25 4.3125 C7.24 5.7975 7.24 5.7975 8.25 7.3125 C8.79468716 10.8211342 8.8702561 14.14495911 7.1875 17.3125 C4.08132725 18.91568593 1.67009021 18.74001128 -1.75 18.3125 C-3.94268229 16.12985287 -4.69181218 14.82455282 -5.04296875 11.734375 C-4.99076172 10.41179687 -4.99076172 10.41179687 -4.9375 9.0625 C-4.89689453 7.72445313 -4.89689453 7.72445313 -4.85546875 6.359375 C-4.80326172 5.34617187 -4.80326172 5.34617187 -4.75 4.3125 C-6.73 5.3025 -6.73 5.3025 -8.75 6.3125 C-8.75 10.2725 -8.75 14.2325 -8.75 18.3125 C-9.74 18.3125 -10.73 18.3125 -11.75 18.3125 C-12.70051172 15.46096484 -12.97656679 13.41350259 -13.0625 10.4375 C-13.11857422 9.17292969 -13.11857422 9.17292969 -13.17578125 7.8828125 C-11.85398254 -0.09648614 -6.81432453 -0.36727288 0 0 Z " fill="#090909" transform="translate(46.75,365.6875)"/>
<path d="M0 0 C68.64 0 137.28 0 208 0 C208 0.66 208 1.32 208 2 C200.5760314 2.15446386 193.15196462 2.30263598 185.72771454 2.4429636 C182.27966985 2.50832972 178.8316938 2.57579372 175.38378906 2.64819336 C171.41222372 2.7314941 167.44050945 2.8054161 163.46875 2.87890625 C161.62766663 2.91945885 161.62766663 2.91945885 159.74938965 2.96083069 C158.58879028 2.98092697 157.42819092 3.00102325 156.23242188 3.02172852 C154.71352356 3.05170677 154.71352356 3.05170677 153.16394043 3.08229065 C150 3 150 3 146.48193359 2.51147461 C140.36848283 1.69276478 134.21413656 1.82195878 128.05664062 1.79467773 C126.65646078 1.78508387 125.25628375 1.77507294 123.85610962 1.76467896 C120.07573024 1.73778704 116.29533857 1.71669305 112.51491737 1.69667697 C108.55643129 1.67471976 104.59798238 1.64737897 100.63952637 1.62062073 C93.15287771 1.57082485 85.66620826 1.52583774 78.17951918 1.48259836 C69.65226458 1.43311356 61.1250473 1.37823734 52.59782887 1.32291877 C35.0652538 1.20930007 17.532644 1.10241771 0 1 C0 0.67 0 0.34 0 0 Z " fill="#EAEBEA" transform="translate(125,339)"/>
<path d="M0 0 C9.9 0 19.8 0 30 0 C30 1.32 30 2.64 30 4 C26.04 4 22.08 4 18 4 C18 13.9 18 23.8 18 34 C16.35 34 14.7 34 13 34 C13 24.1 13 14.2 13 4 C8.71 4 4.42 4 0 4 C0 2.68 0 1.36 0 0 Z " fill="#0C0C0C" transform="translate(602,42)"/>
<path d="M0 0 C0 5.28 0 10.56 0 16 C4.94463635 14.66436384 4.94463635 14.66436384 6 12 C6.1421988 8.16063232 6.17754676 4.67983361 5 1 C6.9375 1.375 6.9375 1.375 9 2 C10.84862688 5.69725375 10.47587094 9.96461442 10 14 C8.20353146 16.93423195 7.0558929 18.47205355 4 20 C-0.63213493 20.55512815 -3.98172127 20.6364242 -8 18.125 C-11.08084718 14.85159987 -11.33387487 12.53873525 -11.29296875 8.0390625 C-10.83745033 4.86865433 -9.24684343 3.1807598 -7 1 C-5 0 -5 0 0 0 Z " fill="#070708" transform="translate(45,533)"/>
<path d="M0 0 C0 5.28 0 10.56 0 16 C4.94463635 14.66436384 4.94463635 14.66436384 6 12 C6.1421988 8.16063232 6.17754676 4.67983361 5 1 C6.9375 1.375 6.9375 1.375 9 2 C10.84862688 5.69725375 10.47587094 9.96461442 10 14 C8.20353146 16.93423195 7.0558929 18.47205355 4 20 C-0.63213493 20.55512815 -3.98172127 20.6364242 -8 18.125 C-11.08084718 14.85159987 -11.33387487 12.53873525 -11.29296875 8.0390625 C-10.83745033 4.86865433 -9.24684343 3.1807598 -7 1 C-5 0 -5 0 0 0 Z " fill="#070808" transform="translate(45,437)"/>
<path d="M0 0 C1.65 0 3.3 0 5 0 C5 5.61 5 11.22 5 17 C5.99 17 6.98 17 8 17 C8 17.99 8 18.98 8 20 C7.01 20 6.02 20 5 20 C5 21.98 5 23.96 5 26 C3.68 26 2.36 26 1 26 C1 24.02 1 22.04 1 20 C-2.96 20 -6.92 20 -11 20 C-10.55253502 14.40668776 -8.44019145 11.04147891 -5.25 6.625 C-4.60417969 5.66400391 -4.60417969 5.66400391 -3.9453125 4.68359375 C-2.640625 2.8515625 -2.640625 2.8515625 0 0 Z " fill="#131313" transform="translate(94,328)"/>
<path d="M0 0 C1.98 0 3.96 0 6 0 C6 5.28 6 10.56 6 16 C6.99 16 7.98 16 9 16 C9 16.99 9 17.98 9 19 C8.01 19 7.02 19 6 19 C6 21.31 6 23.62 6 26 C4.68 26 3.36 26 2 26 C2 23.69 2 21.38 2 19 C-1.63 19 -5.26 19 -9 19 C-9 13.59318829 -7.67330152 11.04190829 -4.875 6.6875 C-4.49601562 6.04232422 -4.11703125 5.39714844 -3.7265625 4.73242188 C-2.5546875 2.88671875 -2.5546875 2.88671875 0 0 Z " fill="#161616" transform="translate(503,909)"/>
<path d="M0 0 C1.0209375 0.01546875 1.0209375 0.01546875 2.0625 0.03125 C2.743125 0.0209375 3.42375 0.010625 4.125 0 C6.0625 0.53125 6.0625 0.53125 7.78515625 2.21875 C10.10335181 6.41560557 9.69055323 10.88083337 9.0625 15.53125 C7.4375 18.21875 7.4375 18.21875 5.0625 19.53125 C0.95472251 20.03424316 -0.44625983 19.85874345 -3.9375 17.53125 C-4.90056898 14.64204306 -5.1330936 12.60877119 -5.1875 9.59375 C-5.21328125 8.73910156 -5.2390625 7.88445313 -5.265625 7.00390625 C-4.79363104 3.44709465 -3.61075367 0.99004536 0 0 Z " fill="#F9F9F9" transform="translate(975.9375,53.46875)"/>
<path d="M0 0 C0.66 0.33 1.32 0.66 2 1 C2 2.32 2 3.64 2 5 C1.16855469 4.95359375 0.33710937 4.9071875 -0.51953125 4.859375 C-1.60621094 4.82328125 -2.69289063 4.7871875 -3.8125 4.75 C-4.89144531 4.70359375 -5.97039063 4.6571875 -7.08203125 4.609375 C-10.06123206 4.72154655 -10.06123206 4.72154655 -11.859375 6.734375 C-13.74973933 10.48920826 -13.63171836 13.90135114 -13 18 C-11.87905095 20.78829159 -11.87905095 20.78829159 -9 22 C-5.30826536 22.31339906 -1.69474459 22.22932897 2 22 C2 23.32 2 24.64 2 26 C-2.97251949 27.6575065 -8.08011029 27.89594853 -12.8125 25.6875 C-16.01258327 23.21886433 -17.70223538 21.89329386 -19 18 C-19.41110876 13.77822931 -19.47543683 10.12603459 -17.8125 6.1875 C-12.45431793 -0.27927147 -8.16655369 -0.80218965 0 0 Z " fill="#0A0A0A" transform="translate(541,50)"/>
<path d="M0 0 C0 1.32 0 2.64 0 4 C-0.83144531 3.96519531 -1.66289063 3.93039063 -2.51953125 3.89453125 C-3.60621094 3.86746094 -4.69289063 3.84039062 -5.8125 3.8125 C-6.89144531 3.77769531 -7.97039063 3.74289063 -9.08203125 3.70703125 C-11.99088795 3.74236174 -11.99088795 3.74236174 -13.82421875 5.38671875 C-15.94805754 8.30082314 -16.09885456 9.89662619 -15.75 13.4375 C-15.68296875 14.21996094 -15.6159375 15.00242187 -15.546875 15.80859375 C-14.87330938 18.50766739 -14.32009012 19.45327325 -12 21 C-9.02807238 21.36319309 -9.02807238 21.36319309 -5.8125 21.1875 C-4.18248047 21.14689453 -4.18248047 21.14689453 -2.51953125 21.10546875 C-1.68808594 21.07066406 -0.85664062 21.03585938 0 21 C-0.375 22.9375 -0.375 22.9375 -1 25 C-4.71013678 26.85506839 -8.95092823 26.45334699 -13 26 C-17.117806 23.941097 -19.32731755 22.26117747 -21 18 C-21.55633477 13.15193986 -21.61847647 8.56246688 -19.8125 4 C-14.43999443 -1.92828201 -7.42172479 -2.47390826 0 0 Z " fill="#0B0B0B" transform="translate(790,51)"/>
<path d="M0 0 C1.32 0 2.64 0 4 0 C4 2.31 4 4.62 4 7 C6.97 7 9.94 7 13 7 C13 8.32 13 9.64 13 11 C10.03 11 7.06 11 4 11 C4.33 16.61 4.66 22.22 5 28 C7.64 28.33 10.28 28.66 13 29 C13 30.32 13 31.64 13 33 C11.39667209 33.08121924 9.79215974 33.13929134 8.1875 33.1875 C6.84751953 33.23970703 6.84751953 33.23970703 5.48046875 33.29296875 C3 33 3 33 1.36328125 31.75976562 C-0.36514426 29.52866049 -0.34927995 28.347571 -0.29296875 25.55078125 C-0.28330078 24.70322266 -0.27363281 23.85566406 -0.26367188 22.98242188 C-0.23853516 22.10134766 -0.21339844 21.22027344 -0.1875 20.3125 C-0.17396484 19.41982422 -0.16042969 18.52714844 -0.14648438 17.60742188 C-0.11114079 15.40433834 -0.06180493 13.20247418 0 11 C-1.32 11 -2.64 11 -4 11 C-4 9.68 -4 8.36 -4 7 C-2.68 7 -1.36 7 0 7 C0 4.69 0 2.38 0 0 Z " fill="#060606" transform="translate(845,43)"/>
<path d="M0 0 C1.32 0 2.64 0 4 0 C4 2.31 4 4.62 4 7 C6.97 7 9.94 7 13 7 C13 8.32 13 9.64 13 11 C10.03 11 7.06 11 4 11 C4.33 16.61 4.66 22.22 5 28 C7.64 28.33 10.28 28.66 13 29 C13 30.32 13 31.64 13 33 C11.39667209 33.08121924 9.79215974 33.13929134 8.1875 33.1875 C6.84751953 33.23970703 6.84751953 33.23970703 5.48046875 33.29296875 C3 33 3 33 1.36328125 31.75976562 C-0.36514426 29.52866049 -0.34927995 28.347571 -0.29296875 25.55078125 C-0.28330078 24.70322266 -0.27363281 23.85566406 -0.26367188 22.98242188 C-0.23853516 22.10134766 -0.21339844 21.22027344 -0.1875 20.3125 C-0.17396484 19.41982422 -0.16042969 18.52714844 -0.14648438 17.60742188 C-0.11114079 15.40433834 -0.06180493 13.20247418 0 11 C-1.32 11 -2.64 11 -4 11 C-4 9.68 -4 8.36 -4 7 C-2.68 7 -1.36 7 0 7 C0 4.69 0 2.38 0 0 Z " fill="#060606" transform="translate(997,43)"/>
<path d="M0 0 C1.32 0 2.64 0 4 0 C4 2.31 4 4.62 4 7 C6.97 7 9.94 7 13 7 C13 8.32 13 9.64 13 11 C10.03 11 7.06 11 4 11 C4.33 16.61 4.66 22.22 5 28 C7.64 28.33 10.28 28.66 13 29 C13 30.32 13 31.64 13 33 C11.39667209 33.08121924 9.79215974 33.13929134 8.1875 33.1875 C6.84751953 33.23970703 6.84751953 33.23970703 5.48046875 33.29296875 C3 33 3 33 1.36328125 31.75976562 C-0.36514426 29.52866049 -0.34927995 28.347571 -0.29296875 25.55078125 C-0.28330078 24.70322266 -0.27363281 23.85566406 -0.26367188 22.98242188 C-0.23853516 22.10134766 -0.21339844 21.22027344 -0.1875 20.3125 C-0.17396484 19.41982422 -0.16042969 18.52714844 -0.14648438 17.60742188 C-0.11114079 15.40433834 -0.06180493 13.20247418 0 11 C-1.32 11 -2.64 11 -4 11 C-4 9.68 -4 8.36 -4 7 C-2.68 7 -1.36 7 0 7 C0 4.69 0 2.38 0 0 Z " fill="#050505" transform="translate(826,43)"/>
<path d="M0 0 C5.65590588 -0.5049916 9.13205424 -0.07805624 13.8359375 3.1640625 C18.33166729 6.97812929 22.35988298 11.3678019 26 16 C26 16.66 26 17.32 26 18 C25.29875 17.855625 24.5975 17.71125 23.875 17.5625 C22.92625 17.376875 21.9775 17.19125 21 17 C19.700625 16.690625 19.700625 16.690625 18.375 16.375 C13.51560845 15.83506761 8.84120485 16.44007417 4 17 C4.66 18.32 5.32 19.64 6 21 C3.53199953 19.84826645 1.95216435 18.95216435 0 17 C0.33 15.68 0.66 14.36 1 13 C5.29 13 9.58 13 14 13 C10.94205196 7.73120109 10.94205196 7.73120109 5.875 5.9375 C3.1796875 5.08984375 3.1796875 5.08984375 1 4 C0.1953125 1.87890625 0.1953125 1.87890625 0 0 Z " fill="#6B6B6B" transform="translate(35,688)"/>
<path d="M0 0 C4.75 0.75 4.75 0.75 7 3 C8.8442982 7.97960514 8.571259 13.11107573 6.5 17.9375 C6.005 18.948125 5.51 19.95875 5 21 C2.125 21.1875 2.125 21.1875 -1 21 C-3.43718285 17.34422573 -3.29880388 15.41330098 -3.3125 11.0625 C-3.32925781 9.83660156 -3.34601563 8.61070312 -3.36328125 7.34765625 C-2.98432293 3.85553495 -2.37989475 2.50548287 0 0 Z " fill="#F7F7F7" transform="translate(91,769)"/>
<path d="M0 0 C8.81500987 -0.61619487 8.81500987 -0.61619487 13.125 1.625 C15 4 15 4 15.5625 6.875 C14.38040606 13.44218858 9.2831016 18.1328391 5 23 C8.3 23.33 11.6 23.66 15 24 C15 25.32 15 26.64 15 28 C9.39 28 3.78 28 -2 28 C-0.93747536 22.68737681 -0.31995456 21.87394168 3.4375 18.375 C8.41392073 13.99823009 8.41392073 13.99823009 10.1875 7.875 C10.32420249 5.1043392 10.32420249 5.1043392 9 4 C7.31391034 3.92794489 5.62499341 3.91613932 3.9375 3.9375 C3.01839844 3.94652344 2.09929688 3.95554687 1.15234375 3.96484375 C0.44207031 3.97644531 -0.26820313 3.98804688 -1 4 C-0.67 2.68 -0.34 1.36 0 0 Z " fill="#0C0C0C" transform="translate(943,963)"/>
<path d="M0 0 C4.62 0 9.24 0 14 0 C14 0.99 14 1.98 14 3 C10.7 3 7.4 3 4 3 C4 4.65 4 6.3 4 8 C5.3303125 7.87625 5.3303125 7.87625 6.6875 7.75 C10.72466718 8.05469186 12.13864711 9.22040005 15 12 C16.42662219 14.85324437 16.31033868 16.83454549 16 20 C14.20006226 22.69990662 12.916227 24.5418865 10 26 C8.50243129 26.09499503 7.00057068 26.12987198 5.5 26.125 C4.7059375 26.12757813 3.911875 26.13015625 3.09375 26.1328125 C1 26 1 26 -1 25 C-1 24.01 -1 23.02 -1 22 C2.96 22 6.92 22 11 22 C11.061875 20.72125 11.12375 19.4425 11.1875 18.125 C11.22230469 17.40570313 11.25710937 16.68640625 11.29296875 15.9453125 C11.19628906 15.30335938 11.09960938 14.66140625 11 14 C7.91111478 11.94074319 7.29064073 11.7609626 3.8125 11.875 C2.554375 11.91625 1.29625 11.9575 0 12 C0 8.04 0 4.08 0 0 Z " fill="#151616" transform="translate(85,219)"/>
<path d="M0 0 C3.54745144 1.13216535 4.21389614 1.66772208 5.9375 4.9375 C6.30003051 8.03006891 6.21970205 11.07933013 6.125 14.1875 C6.10469727 15.44820312 6.10469727 15.44820312 6.08398438 16.734375 C6.04873464 18.80235938 5.9949302 20.87001271 5.9375 22.9375 C4.9475 22.9375 3.9575 22.9375 2.9375 22.9375 C2.87691406 21.80570313 2.81632813 20.67390625 2.75390625 19.5078125 C2.66950083 18.02602855 2.58485283 16.5442584 2.5 15.0625 C2.46068359 14.31613281 2.42136719 13.56976562 2.38085938 12.80078125 C2.22176376 8.73763136 2.22176376 8.73763136 0.9375 4.9375 C-1.97902174 4.77068891 -1.97902174 4.77068891 -5.0625 4.9375 C-7.99697357 7.87197357 -7.52408423 11.12009456 -7.6875 15.0625 C-7.72617187 15.81660156 -7.76484375 16.57070313 -7.8046875 17.34765625 C-7.89901031 19.21053184 -7.98184662 21.07398255 -8.0625 22.9375 C-9.3825 22.9375 -10.7025 22.9375 -12.0625 22.9375 C-12.0625 15.6775 -12.0625 8.4175 -12.0625 0.9375 C-10.7425 0.9375 -9.4225 0.9375 -8.0625 0.9375 C-7.7325 1.5975 -7.4025 2.2575 -7.0625 2.9375 C-6.52625 2.421875 -5.99 1.90625 -5.4375 1.375 C-3.0625 -0.0625 -3.0625 -0.0625 0 0 Z " fill="#121212" transform="translate(764.0625,968.0625)"/>
<path d="M0 0 C1.423125 0.4021875 1.423125 0.4021875 2.875 0.8125 C4.38429383 3.83108766 4.10010073 6.94150954 4.125 10.25 C4.145625 10.93126953 4.16625 11.61253906 4.1875 12.31445312 C4.210695 15.27471488 4.22027921 17.30801424 2.51953125 19.79296875 C0.875 20.8125 0.875 20.8125 -1.6875 20.6875 C-4.125 19.8125 -4.125 19.8125 -6.125 16.8125 C-6.42578125 13.5625 -6.42578125 13.5625 -6.4375 9.8125 C-6.45425781 8.575 -6.47101563 7.3375 -6.48828125 6.0625 C-6.125 2.8125 -6.125 2.8125 -4.80078125 0.86328125 C-3.125 -0.1875 -3.125 -0.1875 0 0 Z " fill="#FBFCFB" transform="translate(1255.125,911.1875)"/>
<path d="M0 0 C1.65 0 3.3 0 5 0 C5 11.88 5 23.76 5 36 C3.35 36 1.7 36 0 36 C0 24.12 0 12.24 0 0 Z " fill="#101011" transform="translate(954,40)"/>
<path d="M0 0 C2.9375 1.625 2.9375 1.625 5 4 C5.5 7.0625 5.5 7.0625 5 10 C3.5 11.875 3.5 11.875 2 13 C2.66 13.53625 3.32 14.0725 4 14.625 C6 17 6 17 6.5 20 C6 23 6 23 4.5625 25.3125 C0.94199701 27.69673367 -2.68743909 28.2277761 -7 28 C-9.28125 27.0078125 -9.28125 27.0078125 -11 26 C-11 25.01 -11 24.02 -11 23 C-7.04 23 -3.08 23 1 23 C2.45314664 18.39467611 2.45314664 18.39467611 1 16 C-0.89533342 15.53476937 -0.89533342 15.53476937 -3.0625 15.375 C-4.361875 15.25125 -5.66125 15.1275 -7 15 C-7 14.01 -7 13.02 -7 12 C-4.69 11.34 -2.38 10.68 0 10 C0.33 8.35 0.66 6.7 1 5 C-2.73486879 4.4254048 -6.21293268 4 -10 4 C-10 3.01 -10 2.02 -10 1 C-6.39427296 -0.20190901 -3.7897565 -0.32670315 0 0 Z " fill="#121212" transform="translate(95,437)"/>
<path d="M0 0 C0 7.92 0 15.84 0 24 C1.98 24 3.96 24 6 24 C6 25.32 6 26.64 6 28 C1.05 28 -3.9 28 -9 28 C-9 26.68 -9 25.36 -9 24 C-7.35 24 -5.7 24 -4 24 C-4 17.4 -4 10.8 -4 4 C-5.98 4.33 -7.96 4.66 -10 5 C-10 3.68 -10 2.36 -10 1 C-6.37900892 -0.1141511 -4.08844645 0 0 0 Z " fill="#151515" transform="translate(929,963)"/>
<path d="M0 0 C16.18081791 6.51362391 16.18081791 6.51362391 23 9.625 C23.763125 9.96789062 24.52625 10.31078125 25.3125 10.6640625 C27 12 27 12 27.75 14.6484375 C27.87375 15.81246094 27.87375 15.81246094 28 17 C25 17 25 17 23.5 15.5625 C23.005 15.046875 22.51 14.53125 22 14 C18.59867458 12.86622486 18.18208401 13.07003402 15.05859375 14.43359375 C14.31029297 14.75263672 13.56199219 15.07167969 12.79101562 15.40039062 C11.62602539 15.91375977 11.62602539 15.91375977 10.4375 16.4375 C8.89582479 17.1058563 7.35291018 17.77136315 5.80859375 18.43359375 C5.12595459 18.73322021 4.44331543 19.03284668 3.73999023 19.34155273 C2 20 2 20 0 20 C0 18.68 0 17.36 0 16 C0.85464844 15.65066406 1.70929687 15.30132813 2.58984375 14.94140625 C4.24693359 14.25884766 4.24693359 14.25884766 5.9375 13.5625 C7.03964844 13.11003906 8.14179687 12.65757812 9.27734375 12.19140625 C11.86568916 11.25575392 11.86568916 11.25575392 13 10 C11.71802734 9.54560547 11.71802734 9.54560547 10.41015625 9.08203125 C9.30542969 8.66308594 8.20070313 8.24414062 7.0625 7.8125 C5.40927734 7.20341797 5.40927734 7.20341797 3.72265625 6.58203125 C1 5 1 5 0.12109375 2.32421875 C0.08113281 1.55722656 0.04117188 0.79023437 0 0 Z " fill="#0A0A0A" transform="translate(34,586)"/>
<path d="M0 0 C0 7.92 0 15.84 0 24 C1.65 24 3.3 24 5 24 C5 25.32 5 26.64 5 28 C0.05 28 -4.9 28 -10 28 C-10 26.68 -10 25.36 -10 24 C-8.02 24 -6.04 24 -4 24 C-4 17.07 -4 10.14 -4 3 C-5.98 3.66 -7.96 4.32 -10 5 C-10 3.68 -10 2.36 -10 1 C-7 0 -7 0 0 0 Z " fill="#121212" transform="translate(879,963)"/>
<path d="M0 0 C3.0625 1.4375 3.0625 1.4375 5 4 C5.6080663 7.30470814 5.1737326 9.86673078 4 13 C1.66517359 16.36011974 -0.90297278 19.32097646 -4 22 C-4.66 22 -5.32 22 -6 22 C-6 22.66 -6 23.32 -6 24 C-2.37 24 1.26 24 5 24 C5 24.99 5 25.98 5 27 C-0.28 27 -5.56 27 -11 27 C-9.93380437 21.66902185 -9.27661048 20.83215755 -5.5 17.3125 C-1.08067231 13.42648252 -1.08067231 13.42648252 0.125 7.9375 C0.33648017 5.11101184 0.33648017 5.11101184 -1 4 C-4.66344611 3.86431681 -7.50615721 3.83538574 -11 5 C-10.625 3.0625 -10.625 3.0625 -10 1 C-6.78011708 -0.60994146 -3.49117286 -0.45305297 0 0 Z " fill="#0A0A0A" transform="translate(1406,908)"/>
<path d="M0 0 C3.5 0.125 3.5 0.125 7 1 C9.08239706 3.99218218 9.24631391 6.54269815 9.1875 10.125 C9.18105469 10.99382812 9.17460938 11.86265625 9.16796875 12.7578125 C9 15 9 15 8 17 C7.01 17 6.02 17 5 17 C5 13.37 5 9.74 5 6 C3.68 6 2.36 6 1 6 C0.76925781 6.71027344 0.53851563 7.42054688 0.30078125 8.15234375 C-0.02535156 9.07144531 -0.35148437 9.99054688 -0.6875 10.9375 C-1.00074219 11.85402344 -1.31398438 12.77054687 -1.63671875 13.71484375 C-3 16 -3 16 -5.5 16.89453125 C-8 17 -8 17 -10.3125 15.75 C-12.9727964 11.41470216 -12.30781191 6.9591919 -12 2 C-10.68 1.67 -9.36 1.34 -8 1 C-8 4.63 -8 8.26 -8 12 C-7.34 12 -6.68 12 -6 12 C-5.73445313 11.30132812 -5.46890625 10.60265625 -5.1953125 9.8828125 C-4.66550781 8.51769531 -4.66550781 8.51769531 -4.125 7.125 C-3.77695312 6.22007812 -3.42890625 5.31515625 -3.0703125 4.3828125 C-2 2 -2 2 0 0 Z " fill="#080808" transform="translate(46,322)"/>
<path d="M0 0 C4.63235294 2.26470588 4.63235294 2.26470588 6 5 C6.60576908 10.33076794 5.29064321 12.84339805 2 17 C0.05764083 19.07500809 -1.94217633 21.03571377 -4 23 C-0.7 23.33 2.6 23.66 6 24 C6 24.99 6 25.98 6 27 C0.72 27 -4.56 27 -10 27 C-8.84160954 21.2080477 -8.33973453 21.37534908 -4 18 C0.6059841 13.18622386 0.6059841 13.18622386 1.875 7 C1.58625 6.34 1.2975 5.68 1 5 C-3.41062136 3.9742741 -5.92630576 3.96315288 -10 6 C-10 4.68 -10 3.36 -10 2 C-6.58251778 -0.10306598 -3.97914475 -0.40603518 0 0 Z " fill="#0C0C0C" transform="translate(94,547)"/>
<path d="M0 0 C1.65 0 3.3 0 5 0 C5.33 0.66 5.66 1.32 6 2 C6.99 1.34 7.98 0.68 9 0 C11.33199388 -0.07905064 13.66832622 -0.08798769 16 0 C16 1.32 16 2.64 16 4 C12.97265625 4.24414062 12.97265625 4.24414062 9.9453125 4.48828125 C7.60480784 4.87393036 7.60480784 4.87393036 6 8 C5.63648496 10.02542148 5.63648496 10.02542148 5.5859375 12.23046875 C5.54726563 13.03291016 5.50859375 13.83535156 5.46875 14.66210938 C5.4378125 15.49548828 5.406875 16.32886719 5.375 17.1875 C5.33632813 18.03248047 5.29765625 18.87746094 5.2578125 19.74804688 C5.16363721 21.83167524 5.08073325 23.91580753 5 26 C3.35 26 1.7 26 0 26 C0 17.42 0 8.84 0 0 Z " fill="#0B0B0B" transform="translate(892,50)"/>
<path d="M0 0 C6.31351937 1.99984686 12.42672752 4.29803969 18.5 6.9375 C19.71429688 7.43926758 19.71429688 7.43926758 20.953125 7.95117188 C21.72140625 8.28568359 22.4896875 8.62019531 23.28125 8.96484375 C23.97283203 9.2599585 24.66441406 9.55507324 25.37695312 9.85913086 C27 11 27 11 27.73242188 13.12719727 C27.82072266 13.74522217 27.90902344 14.36324707 28 15 C27.29875 14.855625 26.5975 14.71125 25.875 14.5625 C24.92625 14.376875 23.9775 14.19125 23 14 C22.09894531 13.7628125 21.19789062 13.525625 20.26953125 13.28125 C16.16835023 12.92846023 13.40763461 14.18405655 9.8125 15.9375 C3.32760532 19 3.32760532 19 0 19 C0.12109375 17.171875 0.12109375 17.171875 1 15 C3.72265625 13.515625 3.72265625 13.515625 7.0625 12.25 C8.16722656 11.82203125 9.27195312 11.3940625 10.41015625 10.953125 C11.26480469 10.63859375 12.11945312 10.3240625 13 10 C11.3970947 9.18501438 9.79262722 8.37310073 8.1875 7.5625 C7.29417969 7.11003906 6.40085937 6.65757812 5.48046875 6.19140625 C2.96000522 4.9168395 2.96000522 4.9168395 0 4 C0 2.68 0 1.36 0 0 Z " fill="#0A0A0A" transform="translate(34,342)"/>
<path d="M0 0 C3.02665495 1.24170459 3.97227928 2.06955856 5.4375 5 C5.85353355 8.81364085 5.68590388 11.35138988 4.3125 14.9375 C2.4375 17 2.4375 17 -0.5625 17.5625 C-3.5625 17 -3.5625 17 -5.4375 15.5625 C-7.12946458 11.70858067 -7.24458814 8.13800139 -6.5625 4 C-4.56119177 0.88685387 -3.72555323 0 0 0 Z " fill="#F5F5F5" transform="translate(784.5625,971)"/>
<path d="M0 0 C2.125 1.9375 2.125 1.9375 3.1875 5.25 C3.06190941 12.65984483 -3.15881209 17.67713656 -7.875 22.9375 C-4.245 22.9375 -0.615 22.9375 3.125 22.9375 C3.125 23.9275 3.125 24.9175 3.125 25.9375 C-2.155 25.9375 -7.435 25.9375 -12.875 25.9375 C-11.80880437 20.60652185 -11.15161048 19.76965755 -7.375 16.25 C-2.95567231 12.36398252 -2.95567231 12.36398252 -1.75 6.875 C-1.53851983 4.04851184 -1.53851983 4.04851184 -2.875 2.9375 C-6.53844611 2.80181681 -9.38115721 2.77288574 -12.875 3.9375 C-12.875 2.6175 -12.875 1.2975 -12.875 -0.0625 C-8.33558517 -1.57563828 -4.51227879 -1.66758129 0 0 Z " fill="#050505" transform="translate(354.875,909.0625)"/>
<path d="M0 0 C2.1875 -0.4375 2.1875 -0.4375 5 0 C7.02282729 2.18137321 8.4108284 4.45732544 10 7 C11.65 4.69 13.3 2.38 15 0 C16.32 0.33 17.64 0.66 19 1 C18.55527344 1.53109375 18.11054687 2.0621875 17.65234375 2.609375 C17.08644531 3.31578125 16.52054688 4.0221875 15.9375 4.75 C15.36902344 5.44609375 14.80054688 6.1421875 14.21484375 6.859375 C12.8117268 8.87654988 12.8117268 8.87654988 13.125 10.96875 C14.19155761 13.4446873 15.52981818 15.53250291 17.0625 17.75 C17.61035156 18.54921875 18.15820312 19.3484375 18.72265625 20.171875 C19.14417969 20.77515625 19.56570313 21.3784375 20 22 C17.67578125 22.25 17.67578125 22.25 15 22 C13.41796875 20.25 13.41796875 20.25 12.1875 18 C11.55908203 16.88625 11.55908203 16.88625 10.91796875 15.75 C10.61503906 15.1725 10.31210937 14.595 10 14 C7.87961365 16.61514317 5.86908256 19.19637616 4 22 C2.68 22 1.36 22 0 22 C1.05329235 18.92789731 2.0571617 16.93303916 4.1875 14.4375 C6.24934186 12.24849362 6.24934186 12.24849362 5.7734375 10.11328125 C4.91202248 7.75961698 3.80264103 5.85021697 2.4375 3.75 C1.98246094 3.04359375 1.52742187 2.3371875 1.05859375 1.609375 C0.70925781 1.07828125 0.35992188 0.5471875 0 0 Z " fill="#0B0A0B" transform="translate(819,969)"/>
<path d="M0 0 C0 7.92 0 15.84 0 24 C1.65 24 3.3 24 5 24 C5 24.99 5 25.98 5 27 C0.05 27 -4.9 27 -10 27 C-10 26.01 -10 25.02 -10 24 C-8.02 24 -6.04 24 -4 24 C-4 17.4 -4 10.8 -4 4 C-5.98 4.33 -7.96 4.66 -10 5 C-10 4.01 -10 3.02 -10 2 C-6.19956554 0.26265853 -4.40285423 0 0 0 Z " fill="#181819" transform="translate(1384,908)"/>
<path d="M0 0 C0 7.59 0 15.18 0 23 C1.98 23 3.96 23 6 23 C6 23.99 6 24.98 6 26 C1.05 26 -3.9 26 -9 26 C-9 25.01 -9 24.02 -9 23 C-7.35 23 -5.7 23 -4 23 C-4 16.4 -4 9.8 -4 3 C-5.98 3.33 -7.96 3.66 -10 4 C-10 3.01 -10 2.02 -10 1 C-8 0 -8 0 0 0 Z " fill="#0E0E0E" transform="translate(202,909)"/>
<path d="M0 0 C1.32 0 2.64 0 4 0 C4 1.98 4 3.96 4 6 C6.31 6 8.62 6 11 6 C11 6.99 11 7.98 11 9 C8.69 9 6.38 9 4 9 C4 13.95 4 18.9 4 24 C6.31 24.33 8.62 24.66 11 25 C11 25.99 11 26.98 11 28 C4.7019774 28.48446328 4.7019774 28.48446328 1.78125 26.46875 C-0.63638004 23.11799959 -0.44466269 20.21063705 -0.25 16.25 C-0.23195313 15.55261719 -0.21390625 14.85523438 -0.1953125 14.13671875 C-0.14838554 12.42388461 -0.07664605 10.71176176 0 9 C-0.66 9 -1.32 9 -2 9 C-2 8.01 -2 7.02 -2 6 C-1.34 6 -0.68 6 0 6 C0 4.02 0 2.04 0 0 Z " fill="#060606" transform="translate(652,963)"/>
<path d="M0 0 C0 7.59 0 15.18 0 23 C1.65 23 3.3 23 5 23 C5 23.99 5 24.98 5 26 C0.38 26 -4.24 26 -9 26 C-9 25.01 -9 24.02 -9 23 C-7.35 23 -5.7 23 -4 23 C-4 16.4 -4 9.8 -4 3 C-5.98 3.33 -7.96 3.66 -10 4 C-10 3.01 -10 2.02 -10 1 C-8 0 -8 0 0 0 Z " fill="#0A0A0A" transform="translate(1234,909)"/>
<path d="M0 0 C0 7.59 0 15.18 0 23 C1.65 23 3.3 23 5 23 C5 23.99 5 24.98 5 26 C0.38 26 -4.24 26 -9 26 C-9 25.01 -9 24.02 -9 23 C-7.35 23 -5.7 23 -4 23 C-4.33 16.73 -4.66 10.46 -5 4 C-6.65 4 -8.3 4 -10 4 C-10 3.01 -10 2.02 -10 1 C-7 0 -7 0 0 0 Z " fill="#111111" transform="translate(95,657)"/>
<path d="M0 0 C1.98 0.495 1.98 0.495 4 1 C3.67 1.66 3.34 2.32 3 3 C2.63724048 7.11082609 2.63724048 7.11082609 4.0625 10.875 C7.1069286 12.64273274 9.5631012 12.36823916 13 12 C15.06402685 11.01951062 15.06402685 11.01951062 16 9 C16.28600189 5.56797729 16.09190042 3.27570125 15 0 C16.32 0 17.64 0 19 0 C20.59561887 3.19123774 20.3799142 6.52745091 20 10 C18.36312815 13.58552881 17.31027417 14.79315055 14 17 C9.40728797 17.73965025 5.97537911 17.60961194 2 15.125 C-0.82792841 12.12032607 -1.13806024 10.52255492 -1.125 6.5 C-1.12757812 5.7059375 -1.13015625 4.911875 -1.1328125 4.09375 C-1 2 -1 2 0 0 Z " fill="#090909" transform="translate(35,614)"/>
<path d="M0 0 C1.98 0.495 1.98 0.495 4 1 C3.67 1.66 3.34 2.32 3 3 C2.75212983 7.14503661 2.75212983 7.14503661 4 11 C9.31651632 12.15586477 9.31651632 12.15586477 14.5 11.125 C16.9149202 7.70386305 16.30596215 4.05399842 16 0 C16.99 0 17.98 0 19 0 C20.59689041 3.19378082 20.37348957 6.52521315 20 10 C18.76467542 12.84124653 17.7444561 14.42097859 15.3125 16.3125 C11.84767407 17.34258338 8.54883321 17.5914722 5 17 C2.1899654 15.20636089 0.49059532 13.98119065 -1 11 C-1.09499503 9.50243129 -1.12987198 8.00057068 -1.125 6.5 C-1.12757812 5.7059375 -1.13015625 4.911875 -1.1328125 4.09375 C-1 2 -1 2 0 0 Z " fill="#0B0B0B" transform="translate(35,567)"/>
<path d="M0 0 C1.32 0 2.64 0 4 0 C4 11.88 4 23.76 4 36 C2.68 36 1.36 36 0 36 C0 24.12 0 12.24 0 0 Z " fill="#000000" transform="translate(550,40)"/>
<path d="M0 0 C0.87785156 0.00515625 1.75570312 0.0103125 2.66015625 0.015625 C3.53542969 0.01046875 4.41070312 0.0053125 5.3125 0 C7.72265625 0.265625 7.72265625 0.265625 10.72265625 2.265625 C11.22265625 5.203125 11.22265625 5.203125 10.72265625 8.265625 C8.04386253 10.62926652 6.19552175 11.2077231 2.66015625 11.640625 C-0.67766785 11.2145198 -2.06981539 10.81277311 -4.27734375 8.265625 C-4.65234375 5.203125 -4.65234375 5.203125 -4.27734375 2.265625 C-2.27734375 0.265625 -2.27734375 0.265625 0 0 Z " fill="#FAFAFA" transform="translate(41.27734375,394.734375)"/>
<path d="M0 0 C0.99 0 1.98 0 3 0 C3 1.98 3 3.96 3 6 C7.62 5.67 12.24 5.34 17 5 C17.33 3.35 17.66 1.7 18 0 C18.99 0 19.98 0 21 0 C21.25 3.3125 21.25 3.3125 21 7 C18.58104807 9.66084713 17.15780496 9.98661157 13.546875 10.29296875 C12.29390625 10.25816406 11.0409375 10.22335937 9.75 10.1875 C8.48671875 10.16042969 7.2234375 10.13335938 5.921875 10.10546875 C4.95765625 10.07066406 3.9934375 10.03585937 3 10 C3 10.99 3 11.98 3 13 C2.01 13 1.02 13 0 13 C0 12.01 0 11.02 0 10 C-1.65 9.67 -3.3 9.34 -5 9 C-5 8.01 -5 7.02 -5 6 C-3.35 6 -1.7 6 0 6 C0 4.02 0 2.04 0 0 Z " fill="#050505" transform="translate(34,507)"/>
<path d="M0 0 C2.31 0 4.62 0 7 0 C6.01 5.61 5.02 11.22 4 17 C5.98 16.67 7.96 16.34 10 16 C9.690625 16.8353125 9.690625 16.8353125 9.375 17.6875 C8.89304789 20.659538 9.73434972 22.31979941 11 25 C11.99 25 12.98 25 14 25 C14 25.66 14 26.32 14 27 C12.35 27.66 10.7 28.32 9 29 C8.01 26.36 7.02 23.72 6 21 C5.01 21 4.02 21 3 21 C2.34 23.64 1.68 26.28 1 29 C0.01 29 -0.98 29 -2 29 C-0.7144018 19.89493982 0.98294223 10.96918357 3 2 C2.01 1.67 1.02 1.34 0 1 C0 0.67 0 0.34 0 0 Z " fill="#0E0D0E" transform="translate(563,962)"/>
<path d="M0 0 C1.423125 -0.061875 2.84625 -0.12375 4.3125 -0.1875 C5.51326172 -0.23970703 5.51326172 -0.23970703 6.73828125 -0.29296875 C9 0 9 0 10.7734375 1.2890625 C12.78316905 4.092446 12.30214868 6.67636457 12 10 C10 12 10 12 7.6171875 12.1953125 C6.71226562 12.17210937 5.80734375 12.14890625 4.875 12.125 C2.461875 12.063125 2.461875 12.063125 0 12 C0 8.04 0 4.08 0 0 Z " fill="#FBFBFB" transform="translate(932,46)"/>
<path d="M0 0 C5.61 0 11.22 0 17 0 C16.26006651 3.69966744 15.48783502 6.62671258 14.15234375 10.08203125 C13.79462891 11.01337891 13.43691406 11.94472656 13.06835938 12.90429688 C12.69517578 13.86400391 12.32199219 14.82371094 11.9375 15.8125 C11.56044922 16.79154297 11.18339844 17.77058594 10.79492188 18.77929688 C9.86684405 21.1876001 8.93509884 23.59441614 8 26 C6.68 26 5.36 26 4 26 C6.39690506 18.55697903 9.15262441 11.28162848 12 4 C8.04 3.67 4.08 3.34 0 3 C0 2.01 0 1.02 0 0 Z " fill="#0B0B0B" transform="translate(793,909)"/>
<path d="M0 0 C6 2 6 2 8.875 3.125 C16.21595158 5.18046644 21.11485663 3.89925896 27.8984375 0.875 C30 0 30 0 32 0 C32 1.32 32 2.64 32 4 C23.49136276 8.53934741 23.49136276 8.53934741 19 9 C17.989375 9.12375 16.97875 9.2475 15.9375 9.375 C10.13509697 8.82239019 5.25843163 6.41766971 0 4 C0 2.68 0 1.36 0 0 Z " fill="#0C0C0C" transform="translate(27,413)"/>
<path d="M0 0 C1.27605103 0.00141495 2.55210205 0.0028299 3.86682129 0.00428772 C7.23363156 0.00891614 10.60037207 0.01787654 13.96716309 0.0289917 C17.41299848 0.03928295 20.85884112 0.04380175 24.3046875 0.04882812 C31.04689403 0.05982299 37.78906799 0.07653545 44.53125 0.09765625 C44.53125 0.75765625 44.53125 1.41765625 44.53125 2.09765625 C37.1072814 2.25212011 29.68321462 2.40029223 22.25896454 2.54061985 C18.81091985 2.60598597 15.3629438 2.67344997 11.91503906 2.74584961 C7.94347372 2.82915035 3.97175945 2.90307235 0 2.9765625 C-1.84108337 3.0171151 -1.84108337 3.0171151 -3.71936035 3.05848694 C-9.75591385 3.16301249 -15.50389807 3.05629317 -21.46875 2.09765625 C-21.46875 1.76765625 -21.46875 1.43765625 -21.46875 1.09765625 C-14.29811517 -0.0237255 -7.24760163 -0.03047684 0 0 Z " fill="#E2E2E2" transform="translate(288.46875,338.90234375)"/>
<path d="M0 0 C1.93359375 1.36328125 1.93359375 1.36328125 2.7109375 4.0078125 C2.78441406 4.78511719 2.85789062 5.56242187 2.93359375 6.36328125 C2.33933594 6.07453125 1.74507812 5.78578125 1.1328125 5.48828125 C-7.78063185 1.49594537 -15.02229734 1.04937036 -24.25390625 4.36328125 C-25.86527866 5.01233755 -27.47240927 5.672652 -29.06640625 6.36328125 C-29.06640625 5.04328125 -29.06640625 3.72328125 -29.06640625 2.36328125 C-27.79685325 1.71493471 -26.52570919 1.0697031 -25.25390625 0.42578125 C-24.54621094 0.06613281 -23.83851562 -0.29351562 -23.109375 -0.6640625 C-15.30593343 -4.37927656 -7.80436368 -2.95859653 0 0 Z " fill="#090909" transform="translate(56.06640625,311.63671875)"/>
<path d="M0 0 C1.86328125 0.2578125 1.86328125 0.2578125 4 1 C5.23046875 2.7421875 5.23046875 2.7421875 6.1875 4.875 C6.51105469 5.57367187 6.83460938 6.27234375 7.16796875 6.9921875 C10.09075739 14.04530188 9.40785513 19.95242732 6.8671875 26.9453125 C5.80580854 29.4601113 4.5302505 31.74105878 3 34 C2.01 33.67 1.02 33.34 0 33 C0.28875 32.42894531 0.5775 31.85789062 0.875 31.26953125 C4.51307237 23.32388014 5.61699506 15.44341871 3.09375 6.94921875 C2.15274377 4.57317803 1.1527514 2.27977175 0 0 Z " fill="#111111" transform="translate(964,961)"/>
<path d="M0 0 C0.90105469 0.01804688 1.80210937 0.03609375 2.73046875 0.0546875 C3.41753906 0.07789063 4.10460937 0.10109375 4.8125 0.125 C4.50279053 3.53180413 4.12483339 5.68541967 2.125 8.5 C-0.88555225 10.6155232 -2.57993301 10.66229721 -6.1875 10.125 C-8.125 8.9375 -8.125 8.9375 -9.1875 7.125 C-9.0625 4.5625 -9.0625 4.5625 -8.1875 2.125 C-4.87379 -0.08414 -3.8428979 -0.09981553 0 0 Z " fill="#F2F2F3" transform="translate(808.1875,62.875)"/>
<path d="M0 0 C9.24 0 18.48 0 28 0 C28 1.32 28 2.64 28 4 C18.76 4 9.52 4 0 4 C0 2.68 0 1.36 0 0 Z " fill="#030304" transform="translate(27,558)"/>
<path d="M0 0 C0.99 0 1.98 0 3 0 C1 6 1 6 -0.125 8.8125 C-2.62389601 17.91562119 -0.13924713 25.72150574 4 34 C2.68 34 1.36 34 0 34 C-4.44694872 26.0749021 -6.45657741 19.09800659 -5 10 C-3.67094846 6.42530966 -2.03569796 3.22076499 0 0 Z " fill="#0B0B0B" transform="translate(858,961)"/>
<path d="M0 0 C2.3431213 0.25561323 4.67843403 0.59270772 7 1 C8.38550197 3.77100394 8.1877467 5.9334706 8 9 C7.01 10.485 7.01 10.485 6 12 C3 12.3125 3 12.3125 0 12 C-2 10 -2 10 -2.25 6.5625 C-2 3 -2 3 0 0 Z " fill="#F9FAF9" transform="translate(1094,911)"/>
<path d="M0 0 C1.32 0 2.64 0 4 0 C4 8.58 4 17.16 4 26 C2.68 26 1.36 26 0 26 C0 17.42 0 8.84 0 0 Z " fill="#010101" transform="translate(637,50)"/>
<path d="M0 0 C2 2 2 2 2.265625 3.875 C2.26046875 4.57625 2.2553125 5.2775 2.25 6 C2.25515625 6.70125 2.2603125 7.4025 2.265625 8.125 C2 10 2 10 0 12 C-2.4375 12.375 -2.4375 12.375 -5 12 C-6.875 10.4375 -6.875 10.4375 -8 8 C-7.8125 4.3125 -7.8125 4.3125 -7 1 C-4.48718205 -0.25640898 -2.78302919 -0.20872719 0 0 Z " fill="#F8F8F8" transform="translate(655,920)"/>
<path d="M0 0 C3 -0.3125 3 -0.3125 6 0 C8 2 8 2 8.3125 5.4375 C8 9 8 9 6.8125 11 C5 12 5 12 2.4375 11.8125 C0 11 0 11 -2 9 C-2.34490322 4.94738713 -2.30163882 3.45245824 0 0 Z " fill="#F8F8F8" transform="translate(90,121)"/>
<path d="M0 0 C2.07642455 1.82049316 2.91358116 3.26109653 3.2355957 6.0144043 C3.29557533 8.43324208 3.26118557 10.83160165 3.1875 13.25 C3.17396484 14.09046875 3.16042969 14.9309375 3.14648438 15.796875 C3.11123464 17.86485938 3.0574302 19.93251271 3 22 C2.01 22 1.02 22 0 22 C-0.06058594 20.86820313 -0.12117187 19.73640625 -0.18359375 18.5703125 C-0.26799917 17.08852855 -0.35264717 15.6067584 -0.4375 14.125 C-0.47681641 13.37863281 -0.51613281 12.63226562 -0.55664062 11.86328125 C-0.71573624 7.80013136 -0.71573624 7.80013136 -2 4 C-4.32156597 3.59270772 -6.6568787 3.25561323 -9 3 C-8.67 2.01 -8.34 1.02 -8 0 C-5.03475663 -1.48262169 -3.14877613 -0.83538959 0 0 Z " fill="#0A0A0A" transform="translate(767,969)"/>
<path d="M0 0 C1.85233285 2.40803271 3 3.92741925 3 7 C-1.95 7 -6.9 7 -12 7 C-11 2 -11 2 -8.8125 0.125 C-5.2944454 -1.28222184 -3.57187004 -1.24238958 0 0 Z " fill="#F4F4F4" transform="translate(878,54)"/>
<path d="M0 0 C1.32 0 2.64 0 4 0 C4 7.26 4 14.52 4 22 C2.68 22 1.36 22 0 22 C0 14.74 0 7.48 0 0 Z " fill="#0B0B0B" transform="translate(742,969)"/>
<path d="M0 0 C1.32 0 2.64 0 4 0 C4 7.26 4 14.52 4 22 C2.68 22 1.36 22 0 22 C0 14.74 0 7.48 0 0 Z " fill="#212121" transform="translate(641,969)"/>
<path d="M0 0 C2.63995097 0.07186799 3.79303107 0.14408192 6.0625 1.5625 C7.0625 3.3125 7.0625 3.3125 7.0625 7.3125 C2.1125 7.3125 -2.8375 7.3125 -7.9375 7.3125 C-5.17684426 0.41086066 -5.17684426 0.41086066 0 0 Z " fill="#FAFAFA" transform="translate(706.9375,53.6875)"/>
<path d="M0 0 C2 1.8125 2 1.8125 3 4 C3 4.99 3 5.98 3 7 C-1.95 7 -6.9 7 -12 7 C-11.34 5.02 -10.68 3.04 -10 1 C-6.81413895 -0.59293052 -3.45940051 -0.52350846 0 0 Z " fill="#FAFAFA" transform="translate(578,54)"/>
<path d="M0 0 C5.70936495 -0.50976473 9.15120007 -0.03608047 13.90234375 3.22265625 C18.04090422 6.72925776 21.52131894 10.85296124 25 15 C22 15 22 15 19.84375 12.84765625 C19.0703125 11.92855469 18.296875 11.00945313 17.5 10.0625 C14.36251515 6.14942384 14.36251515 6.14942384 10 4 C12.475 5.98 12.475 5.98 15 8 C14.67 8.99 14.34 9.98 14 11 C13.360625 10.4225 12.72125 9.845 12.0625 9.25 C8.2797269 6.47081977 4.32481492 4.77138389 0 3 C0 2.01 0 1.02 0 0 Z " fill="#0F0F0F" transform="translate(35,688)"/>
<path d="M0 0 C5.48029891 0.6089221 5.48029891 0.6089221 7.6809082 2.26489258 C9.36395068 4.47873357 9.34850156 5.69108931 9.29296875 8.44921875 C9.28330078 9.29677734 9.27363281 10.14433594 9.26367188 11.01757812 C9.23853516 11.89865234 9.21339844 12.77972656 9.1875 13.6875 C9.17396484 14.58017578 9.16042969 15.47285156 9.14648438 16.39257812 C9.11114079 18.59566166 9.06180493 20.79752582 9 23 C8.01 23 7.02 23 6 23 C5.95101562 21.87980469 5.90203125 20.75960937 5.8515625 19.60546875 C5.77652144 18.13278797 5.70097418 16.66013293 5.625 15.1875 C5.5940625 14.44951172 5.563125 13.71152344 5.53125 12.95117188 C5.32653852 9.18106885 5.13566173 7.20349259 3 4 C0.94996045 2.80767387 0.94996045 2.80767387 -1 2 C-0.67 1.34 -0.34 0.68 0 0 Z " fill="#0D0D0D" transform="translate(714,968)"/>
<path d="M0 0 C6.93 0 13.86 0 21 0 C21 1.32 21 2.64 21 4 C14.07 4 7.14 4 0 4 C0 2.68 0 1.36 0 0 Z " fill="#000000" transform="translate(34,498)"/>
<path d="M0 0 C2.4375 0.75 2.4375 0.75 4.4375 2.75 C4.75 5.25 4.75 5.25 4.4375 7.75 C1.21376323 9.89915785 0.17046326 10.13286803 -3.5625 9.75 C-5.5625 7.75 -5.5625 7.75 -5.875 4.75 C-5.771875 3.76 -5.66875 2.77 -5.5625 1.75 C-2.5625 -0.25 -2.5625 -0.25 0 0 Z " fill="#F9F9F9" transform="translate(951.5625,922.25)"/>
<path d="M0 0 C0.99 0 1.98 0 3 0 C3 8.58 3 17.16 3 26 C2.01 26 1.02 26 0 26 C0 17.42 0 8.84 0 0 Z " fill="#282828" transform="translate(44,647)"/>
<path d="M0 0 C0.99 0 1.98 0 3 0 C3 8.58 3 17.16 3 26 C2.01 26 1.02 26 0 26 C0 17.42 0 8.84 0 0 Z " fill="#020202" transform="translate(38,647)"/>
<path d="M0 0 C2.9375 0.8125 2.9375 0.8125 4.9375 3.8125 C4.9375 4.8025 4.9375 5.7925 4.9375 6.8125 C0.9775 6.8125 -2.9825 6.8125 -7.0625 6.8125 C-6.7325 5.1625 -6.4025 3.5125 -6.0625 1.8125 C-3.0625 -0.1875 -3.0625 -0.1875 0 0 Z " fill="#F0F0F0" transform="translate(678.0625,971.1875)"/>
<path d="M0 0 C3.01243677 1.05435287 3.92565011 2.14060283 5.5 4.875 C5.5 5.535 5.5 6.195 5.5 6.875 C1.21 6.875 -3.08 6.875 -7.5 6.875 C-4.65686275 -0.23284314 -4.65686275 -0.23284314 0 0 Z " fill="#F2F2F2" transform="translate(808.5,971.125)"/>
<path d="M0 0 C0.33 0 0.66 0 1 0 C1 4.29 1 8.58 1 13 C-1.97 13 -4.94 13 -8 13 C-7.23302204 11.58124235 -6.46123222 10.16508548 -5.6875 8.75 C-5.04361328 7.56664062 -5.04361328 7.56664062 -4.38671875 6.359375 C-3.0564685 4.09607599 -1.66280463 2.03076419 0 0 Z " fill="#F8F8F8" transform="translate(94,332)"/>
<path d="M0 0 C3 0.125 3 0.125 4 1.125 C4.125 4.125 4.125 4.125 4 7.125 C3 8.125 3 8.125 0.0625 8.3125 C-3 8.125 -3 8.125 -5 6.125 C-4.27477017 0.17811542 -4.27477017 0.17811542 0 0 Z " fill="#F1F1F1" transform="translate(951,910.875)"/>
<path d="M0 0 C4.75 0.75 4.75 0.75 7 3 C7.1875 6.0625 7.1875 6.0625 7 9 C6 10 6 10 3.5 10.125 C1 10 1 10 0 9 C-0.07179964 7.48071962 -0.08392007 5.95832518 -0.0625 4.4375 C-0.05347656 3.61121094 -0.04445312 2.78492188 -0.03515625 1.93359375 C-0.02355469 1.29550781 -0.01195312 0.65742188 0 0 Z " fill="#FAFBFA" transform="translate(45,370)"/>
<path d="M0 0 C6.6 0 13.2 0 20 0 C20 0.99 20 1.98 20 3 C13.4 3 6.8 3 0 3 C0 2.01 0 1.02 0 0 Z " fill="#1F1F1F" transform="translate(600,974)"/>
<path d="M0 0 C0.33 0 0.66 0 1 0 C1 3.96 1 7.92 1 12 C-1.64 12 -4.28 12 -7 12 C-5.48109469 7.44328408 -3.04597738 3.68276708 0 0 Z " fill="#F6F6F6" transform="translate(504,913)"/>
<path d="M0 0 C1.95766281 -0.08082094 3.91626728 -0.13910778 5.875 -0.1875 C7.51082031 -0.23970703 7.51082031 -0.23970703 9.1796875 -0.29296875 C10.11039063 -0.19628906 11.04109375 -0.09960938 12 0 C12.66 0.99 13.32 1.98 14 3 C10.37 3.33 6.74 3.66 3 4 C3.66 5.32 4.32 6.64 5 8 C2.53199953 6.84826645 0.95216435 5.95216435 -1 4 C-0.625 1.875 -0.625 1.875 0 0 Z " fill="#111110" transform="translate(36,701)"/>
<path d="M0 0 C2.28097502 1.46751887 3.895027 2.65333525 5.12109375 5.10546875 C4.54359375 4.79609375 3.96609375 4.48671875 3.37109375 4.16796875 C1.27815191 3.17963511 -0.624259 2.58860745 -2.87890625 2.10546875 C-2.87890625 1.44546875 -2.87890625 0.78546875 -2.87890625 0.10546875 C-9.94899296 0.51049333 -9.94899296 0.51049333 -15.87890625 4.10546875 C-18.62890625 4.79296875 -18.62890625 4.79296875 -20.87890625 5.10546875 C-14.84152436 -1.44940301 -8.48706778 -4.04062063 0 0 Z " fill="#125AA6" transform="translate(1106.87890625,435.89453125)"/>
<path d="M0 0 C0 3.96 0 7.92 0 12 C-4 10 -4 10 -5 9 C-5.4664311 3.6360424 -5.4664311 3.6360424 -3.625 1.125 C-2 0 -2 0 0 0 Z " fill="#FAFAFA" transform="translate(42,537)"/>
<path d="M0 0 C0 3.96 0 7.92 0 12 C-4 10 -4 10 -5 9 C-5.4664311 3.6360424 -5.4664311 3.6360424 -3.625 1.125 C-2 0 -2 0 0 0 Z " fill="#FAFBFA" transform="translate(42,441)"/>
<path d="M0 0 C0.99 0.33 1.98 0.66 3 1 C1.25 4.875 1.25 4.875 -1 6 C-2.49756871 6.09499503 -3.99942932 6.12987198 -5.5 6.125 C-6.2940625 6.12757813 -7.088125 6.13015625 -7.90625 6.1328125 C-10 6 -10 6 -12 5 C-12 4.01 -12 3.02 -12 2 C-8.04 2 -4.08 2 0 2 C0 1.34 0 0.68 0 0 Z " fill="#0A0A0A" transform="translate(96,239)"/>
<path d="M0 0 C0.99 0.33 1.98 0.66 3 1 C3 5.62 3 10.24 3 15 C2.01 15 1.02 15 0 15 C0 10.05 0 5.1 0 0 Z " fill="#050405" transform="translate(706,976)"/>
<path d="M0 0 C0.66 0.33 1.32 0.66 2 1 C1.67 1.99 1.34 2.98 1 4 C1.87914688 6.6569191 1.87914688 6.6569191 3 9 C3.99 9 4.98 9 6 9 C6 9.66 6 10.32 6 11 C4.35 11.66 2.7 12.32 1 13 C0.81824219 12.44570313 0.63648438 11.89140625 0.44921875 11.3203125 C0.07216797 10.23363281 0.07216797 10.23363281 -0.3125 9.125 C-0.55613281 8.40570312 -0.79976562 7.68640625 -1.05078125 6.9453125 C-1.96335547 4.66005095 -1.96335547 4.66005095 -5 3 C-2.625 1.4375 -2.625 1.4375 0 0 Z " fill="#181819" transform="translate(571,978)"/>
<path d="M0 0 C0.33 0.66 0.66 1.32 1 2 C-1.66666667 6 -4.33333333 10 -7 14 C-7.66 13.67 -8.32 13.34 -9 13 C-7.11399805 7.65632782 -4.7782344 3.1854896 0 0 Z " fill="#070808" transform="translate(503,912)"/>
<path d="M0 0 C0.66 0.99 1.32 1.98 2 3 C-1.63 3.33 -5.26 3.66 -9 4 C-9 2.68 -9 1.36 -9 0 C-5.85135005 -1.57432497 -3.35512575 -0.71895552 0 0 Z " fill="#1A1A1A" transform="translate(806,51)"/>
<path d="M0 0 C0.99 0.33 1.98 0.66 3 1 C3 4.96 3 8.92 3 13 C2.01 13 1.02 13 0 13 C0 8.71 0 4.42 0 0 Z " fill="#030303" transform="translate(720,978)"/>
<path d="M0 0 C0.99 0.33 1.98 0.66 3 1 C3.125 8.75 3.125 8.75 2 11 C1.34 11 0.68 11 0 11 C0 7.37 0 3.74 0 0 Z " fill="#020202" transform="translate(692,978)"/>
<path d="M0 0 C3.8555225 0.88355724 6.47228379 1.91056908 9 5 C8.67 5.99 8.34 6.98 8 8 C6.948125 7.071875 6.948125 7.071875 5.875 6.125 C2.94222819 3.9572991 0.48817594 2.97344445 -3 2 C-2.01 1.34 -1.02 0.68 0 0 Z " fill="#181718" transform="translate(41,691)"/>
<path d="M0 0 C3.465 1.485 3.465 1.485 7 3 C6.67 3.99 6.34 4.98 6 6 C3.03 5.505 3.03 5.505 0 5 C0 3.35 0 1.7 0 0 Z " fill="#040404" transform="translate(740,70)"/>
<path d="M0 0 C1.65 0 3.3 0 5 0 C5 1.65 5 3.3 5 5 C3.35 5 1.7 5 0 5 C0 3.35 0 1.7 0 0 Z " fill="#151516" transform="translate(636,40)"/>
<path d="M0 0 C-0.61277612 2.96175123 -1.25372522 4.38058783 -3 7 C-3.66 6.67 -4.32 6.34 -5 6 C-5 4.35 -5 2.7 -5 1 C-3 0 -3 0 0 0 Z " fill="#181819" transform="translate(578,971)"/>
<path d="M0 0 C0.33 0 0.66 0 1 0 C1 4.29 1 8.58 1 13 C-0.32 13 -1.64 13 -3 13 C-3 12.34 -3 11.68 -3 11 C-2.34 11 -1.68 11 -1 11 C-0.67 7.37 -0.34 3.74 0 0 Z " fill="#1A1A1A" transform="translate(695,978)"/>
<path d="M0 0 C1.32 0 2.64 0 4 0 C4 1.65 4 3.3 4 5 C2.68 5 1.36 5 0 5 C0 3.35 0 1.7 0 0 Z " fill="#1B1A1A" transform="translate(905,986)"/>
<path d="M0 0 C1.32 0 2.64 0 4 0 C4 1.65 4 3.3 4 5 C2.68 5 1.36 5 0 5 C0 3.35 0 1.7 0 0 Z " fill="#161617" transform="translate(891,986)"/>
<path d="M0 0 C1.32 0 2.64 0 4 0 C4 1.65 4 3.3 4 5 C2.68 5 1.36 5 0 5 C0 3.35 0 1.7 0 0 Z " fill="#191919" transform="translate(742,960)"/>
<path d="M0 0 C0.66 0.99 1.32 1.98 2 3 C-2.455 4.485 -2.455 4.485 -7 6 C-2.25 1.125 -2.25 1.125 0 0 Z " fill="#0A5FAB" transform="translate(1093,435)"/>
<path d="M0 0 C1.32 0 2.64 0 4 0 C3.67 1.65 3.34 3.3 3 5 C2.01 5 1.02 5 0 5 C0 3.35 0 1.7 0 0 Z " fill="#2B2B2B" transform="translate(641,960)"/>
<path d="M0 0 C0.33 0 0.66 0 1 0 C1.33 4.29 1.66 8.58 2 13 C1.01 13 0.02 13 -1 13 C-0.67 8.71 -0.34 4.42 0 0 Z " fill="#080809" transform="translate(642,978)"/>
<path d="M0 0 C0.33 0.66 0.66 1.32 1 2 C-0.28062485 3.7074998 -1.61767557 5.37373596 -3 7 C-3.66 7 -4.32 7 -5 7 C-3.75023244 3.34683329 -3.32901247 2.21934164 0 0 Z " fill="#070707" transform="translate(91,334)"/>
</svg>
