<?xml version="1.0" encoding="utf-8" standalone="no"?>
<!DOCTYPE svg PUBLIC "-//W3C//DTD SVG 1.1//EN"
  "http://www.w3.org/Graphics/SVG/1.1/DTD/svg11.dtd">
<svg xmlns:xlink="http://www.w3.org/1999/xlink" width="734.385625pt" height="428.989687pt" viewBox="0 0 734.385625 428.989687" xmlns="http://www.w3.org/2000/svg" version="1.1">
 <metadata>
  <rdf:RDF xmlns:dc="http://purl.org/dc/elements/1.1/" xmlns:cc="http://creativecommons.org/ns#" xmlns:rdf="http://www.w3.org/1999/02/22-rdf-syntax-ns#">
   <cc:Work>
    <dc:type rdf:resource="http://purl.org/dc/dcmitype/StillImage"/>
    <dc:date>2025-10-26T15:16:07.768262</dc:date>
    <dc:format>image/svg+xml</dc:format>
    <dc:creator>
     <cc:Agent>
      <dc:title>Matplotlib v3.6.3, https://matplotlib.org/</dc:title>
     </cc:Agent>
    </dc:creator>
   </cc:Work>
  </rdf:RDF>
 </metadata>
 <defs>
  <style type="text/css">*{stroke-linejoin: round; stroke-linecap: butt}</style>
 </defs>
 <g id="figure_1">
  <g id="patch_1">
   <path d="M 0 428.989687 
L 734.385625 428.989687 
L 734.385625 0 
L 0 0 
z
" style="fill: #ffffff"/>
  </g>
  <g id="axes_1">
   <g id="patch_2">
    <path d="M 337.044375 361.753373 
L 704.934375 361.753373 
L 704.934375 23.077969 
L 337.044375 23.077969 
z
" style="fill: #ffffff"/>
   </g>
   <g id="patch_3">
    <path d="M 407.118661 346.359036 
L 547.267232 346.359036 
L 547.267232 331.697764 
L 407.118661 331.697764 
z
" clip-path="url(#p90c7a2da62)" style="fill: #52b788"/>
   </g>
   <g id="patch_4">
    <path d="M 337.044375 317.036491 
L 372.081518 317.036491 
L 372.081518 302.375218 
L 337.044375 302.375218 
z
" clip-path="url(#p90c7a2da62)" style="fill: #4ea8de"/>
   </g>
   <g id="patch_5">
    <path d="M 407.118661 287.713945 
L 547.267232 287.713945 
L 547.267232 273.052672 
L 407.118661 273.052672 
z
" clip-path="url(#p90c7a2da62)" style="fill: #52b788"/>
   </g>
   <g id="patch_6">
    <path d="M 512.230089 258.391399 
L 582.304375 258.391399 
L 582.304375 243.730126 
L 512.230089 243.730126 
z
" clip-path="url(#p90c7a2da62)" style="fill: #52b788"/>
   </g>
   <g id="patch_7">
    <path d="M 512.230089 229.068853 
L 617.341518 229.068853 
L 617.341518 214.40758 
L 512.230089 214.40758 
z
" clip-path="url(#p90c7a2da62)" style="fill: #52b788"/>
   </g>
   <g id="patch_8">
    <path d="M 407.118661 199.746307 
L 442.155804 199.746307 
L 442.155804 185.085034 
L 407.118661 185.085034 
z
" clip-path="url(#p90c7a2da62)" style="fill: #4ea8de"/>
   </g>
   <g id="patch_9">
    <path d="M 477.192946 170.423762 
L 547.267232 170.423762 
L 547.267232 155.762489 
L 477.192946 155.762489 
z
" clip-path="url(#p90c7a2da62)" style="fill: #52b788"/>
   </g>
   <g id="patch_10">
    <path d="M 547.267232 141.101216 
L 582.304375 141.101216 
L 582.304375 126.439943 
L 547.267232 126.439943 
z
" clip-path="url(#p90c7a2da62)" style="fill: #52b788"/>
   </g>
   <g id="patch_11">
    <path d="M 372.081518 111.77867 
L 407.118661 111.77867 
L 407.118661 97.117397 
L 372.081518 97.117397 
z
" clip-path="url(#p90c7a2da62)" style="fill: #52b788"/>
   </g>
   <g id="patch_12">
    <path d="M 372.081518 82.456124 
L 442.155804 82.456124 
L 442.155804 67.794851 
L 372.081518 67.794851 
z
" clip-path="url(#p90c7a2da62)" style="fill: #52b788"/>
   </g>
   <g id="patch_13">
    <path d="M 617.341518 53.133578 
L 687.415804 53.133578 
L 687.415804 38.472305 
L 617.341518 38.472305 
z
" clip-path="url(#p90c7a2da62)" style="fill: #f9c74f"/>
   </g>
   <g id="matplotlib.axis_1">
    <g id="xtick_1">
     <g id="line2d_1">
      <path d="M 337.044375 361.753373 
L 337.044375 23.077969 
" clip-path="url(#p90c7a2da62)" style="fill: none; stroke-dasharray: 2.22,0.96; stroke-dashoffset: 0; stroke: #b0b0b0; stroke-opacity: 0.7; stroke-width: 0.6"/>
     </g>
     <g id="line2d_2">
      <defs>
       <path id="m1966a63353" d="M 0 0 
L 0 -3.5 
" style="stroke: #1a1a1a; stroke-width: 0.8"/>
      </defs>
      <g>
       <use xlink:href="#m1966a63353" x="337.044375" y="361.753373" style="fill: #1a1a1a; stroke: #1a1a1a; stroke-width: 0.8"/>
      </g>
     </g>
     <g id="text_1">
      <!-- Oct 17 -->
      <g style="fill: #1a1a1a" transform="translate(325.302867 399.866692) rotate(-45) scale(0.12 -0.12)">
       <defs>
        <path id="DejaVuSans-4f" d="M 2522 4238 
Q 1834 4238 1429 3725 
Q 1025 3213 1025 2328 
Q 1025 1447 1429 934 
Q 1834 422 2522 422 
Q 3209 422 3611 934 
Q 4013 1447 4013 2328 
Q 4013 3213 3611 3725 
Q 3209 4238 2522 4238 
z
M 2522 4750 
Q 3503 4750 4090 4092 
Q 4678 3434 4678 2328 
Q 4678 1225 4090 567 
Q 3503 -91 2522 -91 
Q 1538 -91 948 565 
Q 359 1222 359 2328 
Q 359 3434 948 4092 
Q 1538 4750 2522 4750 
z
" transform="scale(0.015625)"/>
        <path id="DejaVuSans-63" d="M 3122 3366 
L 3122 2828 
Q 2878 2963 2633 3030 
Q 2388 3097 2138 3097 
Q 1578 3097 1268 2742 
Q 959 2388 959 1747 
Q 959 1106 1268 751 
Q 1578 397 2138 397 
Q 2388 397 2633 464 
Q 2878 531 3122 666 
L 3122 134 
Q 2881 22 2623 -34 
Q 2366 -91 2075 -91 
Q 1284 -91 818 406 
Q 353 903 353 1747 
Q 353 2603 823 3093 
Q 1294 3584 2113 3584 
Q 2378 3584 2631 3529 
Q 2884 3475 3122 3366 
z
" transform="scale(0.015625)"/>
        <path id="DejaVuSans-74" d="M 1172 4494 
L 1172 3500 
L 2356 3500 
L 2356 3053 
L 1172 3053 
L 1172 1153 
Q 1172 725 1289 603 
Q 1406 481 1766 481 
L 2356 481 
L 2356 0 
L 1766 0 
Q 1100 0 847 248 
Q 594 497 594 1153 
L 594 3053 
L 172 3053 
L 172 3500 
L 594 3500 
L 594 4494 
L 1172 4494 
z
" transform="scale(0.015625)"/>
        <path id="DejaVuSans-20" transform="scale(0.015625)"/>
        <path id="DejaVuSans-31" d="M 794 531 
L 1825 531 
L 1825 4091 
L 703 3866 
L 703 4441 
L 1819 4666 
L 2450 4666 
L 2450 531 
L 3481 531 
L 3481 0 
L 794 0 
L 794 531 
z
" transform="scale(0.015625)"/>
        <path id="DejaVuSans-37" d="M 525 4666 
L 3525 4666 
L 3525 4397 
L 1831 0 
L 1172 0 
L 2766 4134 
L 525 4134 
L 525 4666 
z
" transform="scale(0.015625)"/>
       </defs>
       <use xlink:href="#DejaVuSans-4f"/>
       <use xlink:href="#DejaVuSans-63" x="78.710938"/>
       <use xlink:href="#DejaVuSans-74" x="133.691406"/>
       <use xlink:href="#DejaVuSans-20" x="172.900391"/>
       <use xlink:href="#DejaVuSans-31" x="204.6875"/>
       <use xlink:href="#DejaVuSans-37" x="268.310547"/>
      </g>
     </g>
    </g>
    <g id="xtick_2">
     <g id="line2d_3">
      <path d="M 407.118661 361.753373 
L 407.118661 23.077969 
" clip-path="url(#p90c7a2da62)" style="fill: none; stroke-dasharray: 2.22,0.96; stroke-dashoffset: 0; stroke: #b0b0b0; stroke-opacity: 0.7; stroke-width: 0.6"/>
     </g>
     <g id="line2d_4">
      <g>
       <use xlink:href="#m1966a63353" x="407.118661" y="361.753373" style="fill: #1a1a1a; stroke: #1a1a1a; stroke-width: 0.8"/>
      </g>
     </g>
     <g id="text_2">
      <!-- Oct 19 -->
      <g style="fill: #1a1a1a" transform="translate(395.377153 399.866692) rotate(-45) scale(0.12 -0.12)">
       <defs>
        <path id="DejaVuSans-39" d="M 703 97 
L 703 672 
Q 941 559 1184 500 
Q 1428 441 1663 441 
Q 2288 441 2617 861 
Q 2947 1281 2994 2138 
Q 2813 1869 2534 1725 
Q 2256 1581 1919 1581 
Q 1219 1581 811 2004 
Q 403 2428 403 3163 
Q 403 3881 828 4315 
Q 1253 4750 1959 4750 
Q 2769 4750 3195 4129 
Q 3622 3509 3622 2328 
Q 3622 1225 3098 567 
Q 2575 -91 1691 -91 
Q 1453 -91 1209 -44 
Q 966 3 703 97 
z
M 1959 2075 
Q 2384 2075 2632 2365 
Q 2881 2656 2881 3163 
Q 2881 3666 2632 3958 
Q 2384 4250 1959 4250 
Q 1534 4250 1286 3958 
Q 1038 3666 1038 3163 
Q 1038 2656 1286 2365 
Q 1534 2075 1959 2075 
z
" transform="scale(0.015625)"/>
       </defs>
       <use xlink:href="#DejaVuSans-4f"/>
       <use xlink:href="#DejaVuSans-63" x="78.710938"/>
       <use xlink:href="#DejaVuSans-74" x="133.691406"/>
       <use xlink:href="#DejaVuSans-20" x="172.900391"/>
       <use xlink:href="#DejaVuSans-31" x="204.6875"/>
       <use xlink:href="#DejaVuSans-39" x="268.310547"/>
      </g>
     </g>
    </g>
    <g id="xtick_3">
     <g id="line2d_5">
      <path d="M 477.192946 361.753373 
L 477.192946 23.077969 
" clip-path="url(#p90c7a2da62)" style="fill: none; stroke-dasharray: 2.22,0.96; stroke-dashoffset: 0; stroke: #b0b0b0; stroke-opacity: 0.7; stroke-width: 0.6"/>
     </g>
     <g id="line2d_6">
      <g>
       <use xlink:href="#m1966a63353" x="477.192946" y="361.753373" style="fill: #1a1a1a; stroke: #1a1a1a; stroke-width: 0.8"/>
      </g>
     </g>
     <g id="text_3">
      <!-- Oct 21 -->
      <g style="fill: #1a1a1a" transform="translate(465.451438 399.866692) rotate(-45) scale(0.12 -0.12)">
       <defs>
        <path id="DejaVuSans-32" d="M 1228 531 
L 3431 531 
L 3431 0 
L 469 0 
L 469 531 
Q 828 903 1448 1529 
Q 2069 2156 2228 2338 
Q 2531 2678 2651 2914 
Q 2772 3150 2772 3378 
Q 2772 3750 2511 3984 
Q 2250 4219 1831 4219 
Q 1534 4219 1204 4116 
Q 875 4013 500 3803 
L 500 4441 
Q 881 4594 1212 4672 
Q 1544 4750 1819 4750 
Q 2544 4750 2975 4387 
Q 3406 4025 3406 3419 
Q 3406 3131 3298 2873 
Q 3191 2616 2906 2266 
Q 2828 2175 2409 1742 
Q 1991 1309 1228 531 
z
" transform="scale(0.015625)"/>
       </defs>
       <use xlink:href="#DejaVuSans-4f"/>
       <use xlink:href="#DejaVuSans-63" x="78.710938"/>
       <use xlink:href="#DejaVuSans-74" x="133.691406"/>
       <use xlink:href="#DejaVuSans-20" x="172.900391"/>
       <use xlink:href="#DejaVuSans-32" x="204.6875"/>
       <use xlink:href="#DejaVuSans-31" x="268.310547"/>
      </g>
     </g>
    </g>
    <g id="xtick_4">
     <g id="line2d_7">
      <path d="M 547.267232 361.753373 
L 547.267232 23.077969 
" clip-path="url(#p90c7a2da62)" style="fill: none; stroke-dasharray: 2.22,0.96; stroke-dashoffset: 0; stroke: #b0b0b0; stroke-opacity: 0.7; stroke-width: 0.6"/>
     </g>
     <g id="line2d_8">
      <g>
       <use xlink:href="#m1966a63353" x="547.267232" y="361.753373" style="fill: #1a1a1a; stroke: #1a1a1a; stroke-width: 0.8"/>
      </g>
     </g>
     <g id="text_4">
      <!-- Oct 23 -->
      <g style="fill: #1a1a1a" transform="translate(535.525724 399.866692) rotate(-45) scale(0.12 -0.12)">
       <defs>
        <path id="DejaVuSans-33" d="M 2597 2516 
Q 3050 2419 3304 2112 
Q 3559 1806 3559 1356 
Q 3559 666 3084 287 
Q 2609 -91 1734 -91 
Q 1441 -91 1130 -33 
Q 819 25 488 141 
L 488 750 
Q 750 597 1062 519 
Q 1375 441 1716 441 
Q 2309 441 2620 675 
Q 2931 909 2931 1356 
Q 2931 1769 2642 2001 
Q 2353 2234 1838 2234 
L 1294 2234 
L 1294 2753 
L 1863 2753 
Q 2328 2753 2575 2939 
Q 2822 3125 2822 3475 
Q 2822 3834 2567 4026 
Q 2313 4219 1838 4219 
Q 1578 4219 1281 4162 
Q 984 4106 628 3988 
L 628 4550 
Q 988 4650 1302 4700 
Q 1616 4750 1894 4750 
Q 2613 4750 3031 4423 
Q 3450 4097 3450 3541 
Q 3450 3153 3228 2886 
Q 3006 2619 2597 2516 
z
" transform="scale(0.015625)"/>
       </defs>
       <use xlink:href="#DejaVuSans-4f"/>
       <use xlink:href="#DejaVuSans-63" x="78.710938"/>
       <use xlink:href="#DejaVuSans-74" x="133.691406"/>
       <use xlink:href="#DejaVuSans-20" x="172.900391"/>
       <use xlink:href="#DejaVuSans-32" x="204.6875"/>
       <use xlink:href="#DejaVuSans-33" x="268.310547"/>
      </g>
     </g>
    </g>
    <g id="xtick_5">
     <g id="line2d_9">
      <path d="M 617.341518 361.753373 
L 617.341518 23.077969 
" clip-path="url(#p90c7a2da62)" style="fill: none; stroke-dasharray: 2.22,0.96; stroke-dashoffset: 0; stroke: #b0b0b0; stroke-opacity: 0.7; stroke-width: 0.6"/>
     </g>
     <g id="line2d_10">
      <g>
       <use xlink:href="#m1966a63353" x="617.341518" y="361.753373" style="fill: #1a1a1a; stroke: #1a1a1a; stroke-width: 0.8"/>
      </g>
     </g>
     <g id="text_5">
      <!-- Oct 25 -->
      <g style="fill: #1a1a1a" transform="translate(605.60001 399.866692) rotate(-45) scale(0.12 -0.12)">
       <defs>
        <path id="DejaVuSans-35" d="M 691 4666 
L 3169 4666 
L 3169 4134 
L 1269 4134 
L 1269 2991 
Q 1406 3038 1543 3061 
Q 1681 3084 1819 3084 
Q 2600 3084 3056 2656 
Q 3513 2228 3513 1497 
Q 3513 744 3044 326 
Q 2575 -91 1722 -91 
Q 1428 -91 1123 -41 
Q 819 9 494 109 
L 494 744 
Q 775 591 1075 516 
Q 1375 441 1709 441 
Q 2250 441 2565 725 
Q 2881 1009 2881 1497 
Q 2881 1984 2565 2268 
Q 2250 2553 1709 2553 
Q 1456 2553 1204 2497 
Q 953 2441 691 2322 
L 691 4666 
z
" transform="scale(0.015625)"/>
       </defs>
       <use xlink:href="#DejaVuSans-4f"/>
       <use xlink:href="#DejaVuSans-63" x="78.710938"/>
       <use xlink:href="#DejaVuSans-74" x="133.691406"/>
       <use xlink:href="#DejaVuSans-20" x="172.900391"/>
       <use xlink:href="#DejaVuSans-32" x="204.6875"/>
       <use xlink:href="#DejaVuSans-35" x="268.310547"/>
      </g>
     </g>
    </g>
    <g id="xtick_6">
     <g id="line2d_11">
      <path d="M 687.415804 361.753373 
L 687.415804 23.077969 
" clip-path="url(#p90c7a2da62)" style="fill: none; stroke-dasharray: 2.22,0.96; stroke-dashoffset: 0; stroke: #b0b0b0; stroke-opacity: 0.7; stroke-width: 0.6"/>
     </g>
     <g id="line2d_12">
      <g>
       <use xlink:href="#m1966a63353" x="687.415804" y="361.753373" style="fill: #1a1a1a; stroke: #1a1a1a; stroke-width: 0.8"/>
      </g>
     </g>
     <g id="text_6">
      <!-- Oct 27 -->
      <g style="fill: #1a1a1a" transform="translate(675.674295 399.866692) rotate(-45) scale(0.12 -0.12)">
       <use xlink:href="#DejaVuSans-4f"/>
       <use xlink:href="#DejaVuSans-63" x="78.710938"/>
       <use xlink:href="#DejaVuSans-74" x="133.691406"/>
       <use xlink:href="#DejaVuSans-20" x="172.900391"/>
       <use xlink:href="#DejaVuSans-32" x="204.6875"/>
       <use xlink:href="#DejaVuSans-37" x="268.310547"/>
      </g>
     </g>
    </g>
    <g id="text_7">
     <!-- Timeline -->
     <g style="fill: #1a1a1a" transform="translate(495.480937 414.74949) scale(0.12 -0.12)">
      <defs>
       <path id="DejaVuSans-54" d="M -19 4666 
L 3928 4666 
L 3928 4134 
L 2272 4134 
L 2272 0 
L 1638 0 
L 1638 4134 
L -19 4134 
L -19 4666 
z
" transform="scale(0.015625)"/>
       <path id="DejaVuSans-69" d="M 603 3500 
L 1178 3500 
L 1178 0 
L 603 0 
L 603 3500 
z
M 603 4863 
L 1178 4863 
L 1178 4134 
L 603 4134 
L 603 4863 
z
" transform="scale(0.015625)"/>
       <path id="DejaVuSans-6d" d="M 3328 2828 
Q 3544 3216 3844 3400 
Q 4144 3584 4550 3584 
Q 5097 3584 5394 3201 
Q 5691 2819 5691 2113 
L 5691 0 
L 5113 0 
L 5113 2094 
Q 5113 2597 4934 2840 
Q 4756 3084 4391 3084 
Q 3944 3084 3684 2787 
Q 3425 2491 3425 1978 
L 3425 0 
L 2847 0 
L 2847 2094 
Q 2847 2600 2669 2842 
Q 2491 3084 2119 3084 
Q 1678 3084 1418 2786 
Q 1159 2488 1159 1978 
L 1159 0 
L 581 0 
L 581 3500 
L 1159 3500 
L 1159 2956 
Q 1356 3278 1631 3431 
Q 1906 3584 2284 3584 
Q 2666 3584 2933 3390 
Q 3200 3197 3328 2828 
z
" transform="scale(0.015625)"/>
       <path id="DejaVuSans-65" d="M 3597 1894 
L 3597 1613 
L 953 1613 
Q 991 1019 1311 708 
Q 1631 397 2203 397 
Q 2534 397 2845 478 
Q 3156 559 3463 722 
L 3463 178 
Q 3153 47 2828 -22 
Q 2503 -91 2169 -91 
Q 1331 -91 842 396 
Q 353 884 353 1716 
Q 353 2575 817 3079 
Q 1281 3584 2069 3584 
Q 2775 3584 3186 3129 
Q 3597 2675 3597 1894 
z
M 3022 2063 
Q 3016 2534 2758 2815 
Q 2500 3097 2075 3097 
Q 1594 3097 1305 2825 
Q 1016 2553 972 2059 
L 3022 2063 
z
" transform="scale(0.015625)"/>
       <path id="DejaVuSans-6c" d="M 603 4863 
L 1178 4863 
L 1178 0 
L 603 0 
L 603 4863 
z
" transform="scale(0.015625)"/>
       <path id="DejaVuSans-6e" d="M 3513 2113 
L 3513 0 
L 2938 0 
L 2938 2094 
Q 2938 2591 2744 2837 
Q 2550 3084 2163 3084 
Q 1697 3084 1428 2787 
Q 1159 2491 1159 1978 
L 1159 0 
L 581 0 
L 581 3500 
L 1159 3500 
L 1159 2956 
Q 1366 3272 1645 3428 
Q 1925 3584 2291 3584 
Q 2894 3584 3203 3211 
Q 3513 2838 3513 2113 
z
" transform="scale(0.015625)"/>
      </defs>
      <use xlink:href="#DejaVuSans-54"/>
      <use xlink:href="#DejaVuSans-69" x="57.958984"/>
      <use xlink:href="#DejaVuSans-6d" x="85.742188"/>
      <use xlink:href="#DejaVuSans-65" x="183.154297"/>
      <use xlink:href="#DejaVuSans-6c" x="244.677734"/>
      <use xlink:href="#DejaVuSans-69" x="272.460938"/>
      <use xlink:href="#DejaVuSans-6e" x="300.244141"/>
      <use xlink:href="#DejaVuSans-65" x="363.623047"/>
     </g>
    </g>
   </g>
   <g id="matplotlib.axis_2">
    <g id="ytick_1">
     <g id="line2d_13">
      <path d="M 337.044375 339.0284 
L 704.934375 339.0284 
" clip-path="url(#p90c7a2da62)" style="fill: none; stroke-dasharray: 2.22,0.96; stroke-dashoffset: 0; stroke: #b0b0b0; stroke-opacity: 0.7; stroke-width: 0.6"/>
     </g>
     <g id="line2d_14">
      <defs>
       <path id="mc2a606a62f" d="M 0 0 
L 3.5 0 
" style="stroke: #1a1a1a; stroke-width: 0.8"/>
      </defs>
      <g>
       <use xlink:href="#mc2a606a62f" x="337.044375" y="339.0284" style="fill: #1a1a1a; stroke: #1a1a1a; stroke-width: 0.8"/>
      </g>
     </g>
     <g id="text_8">
      <!-- BE - Incident Registration API -->
      <g style="fill: #1a1a1a" transform="translate(158.41 343.587463) scale(0.12 -0.12)">
       <defs>
        <path id="DejaVuSans-42" d="M 1259 2228 
L 1259 519 
L 2272 519 
Q 2781 519 3026 730 
Q 3272 941 3272 1375 
Q 3272 1813 3026 2020 
Q 2781 2228 2272 2228 
L 1259 2228 
z
M 1259 4147 
L 1259 2741 
L 2194 2741 
Q 2656 2741 2882 2914 
Q 3109 3088 3109 3444 
Q 3109 3797 2882 3972 
Q 2656 4147 2194 4147 
L 1259 4147 
z
M 628 4666 
L 2241 4666 
Q 2963 4666 3353 4366 
Q 3744 4066 3744 3513 
Q 3744 3084 3544 2831 
Q 3344 2578 2956 2516 
Q 3422 2416 3680 2098 
Q 3938 1781 3938 1306 
Q 3938 681 3513 340 
Q 3088 0 2303 0 
L 628 0 
L 628 4666 
z
" transform="scale(0.015625)"/>
        <path id="DejaVuSans-45" d="M 628 4666 
L 3578 4666 
L 3578 4134 
L 1259 4134 
L 1259 2753 
L 3481 2753 
L 3481 2222 
L 1259 2222 
L 1259 531 
L 3634 531 
L 3634 0 
L 628 0 
L 628 4666 
z
" transform="scale(0.015625)"/>
        <path id="DejaVuSans-2d" d="M 313 2009 
L 1997 2009 
L 1997 1497 
L 313 1497 
L 313 2009 
z
" transform="scale(0.015625)"/>
        <path id="DejaVuSans-49" d="M 628 4666 
L 1259 4666 
L 1259 0 
L 628 0 
L 628 4666 
z
" transform="scale(0.015625)"/>
        <path id="DejaVuSans-64" d="M 2906 2969 
L 2906 4863 
L 3481 4863 
L 3481 0 
L 2906 0 
L 2906 525 
Q 2725 213 2448 61 
Q 2172 -91 1784 -91 
Q 1150 -91 751 415 
Q 353 922 353 1747 
Q 353 2572 751 3078 
Q 1150 3584 1784 3584 
Q 2172 3584 2448 3432 
Q 2725 3281 2906 2969 
z
M 947 1747 
Q 947 1113 1208 752 
Q 1469 391 1925 391 
Q 2381 391 2643 752 
Q 2906 1113 2906 1747 
Q 2906 2381 2643 2742 
Q 2381 3103 1925 3103 
Q 1469 3103 1208 2742 
Q 947 2381 947 1747 
z
" transform="scale(0.015625)"/>
        <path id="DejaVuSans-52" d="M 2841 2188 
Q 3044 2119 3236 1894 
Q 3428 1669 3622 1275 
L 4263 0 
L 3584 0 
L 2988 1197 
Q 2756 1666 2539 1819 
Q 2322 1972 1947 1972 
L 1259 1972 
L 1259 0 
L 628 0 
L 628 4666 
L 2053 4666 
Q 2853 4666 3247 4331 
Q 3641 3997 3641 3322 
Q 3641 2881 3436 2590 
Q 3231 2300 2841 2188 
z
M 1259 4147 
L 1259 2491 
L 2053 2491 
Q 2509 2491 2742 2702 
Q 2975 2913 2975 3322 
Q 2975 3731 2742 3939 
Q 2509 4147 2053 4147 
L 1259 4147 
z
" transform="scale(0.015625)"/>
        <path id="DejaVuSans-67" d="M 2906 1791 
Q 2906 2416 2648 2759 
Q 2391 3103 1925 3103 
Q 1463 3103 1205 2759 
Q 947 2416 947 1791 
Q 947 1169 1205 825 
Q 1463 481 1925 481 
Q 2391 481 2648 825 
Q 2906 1169 2906 1791 
z
M 3481 434 
Q 3481 -459 3084 -895 
Q 2688 -1331 1869 -1331 
Q 1566 -1331 1297 -1286 
Q 1028 -1241 775 -1147 
L 775 -588 
Q 1028 -725 1275 -790 
Q 1522 -856 1778 -856 
Q 2344 -856 2625 -561 
Q 2906 -266 2906 331 
L 2906 616 
Q 2728 306 2450 153 
Q 2172 0 1784 0 
Q 1141 0 747 490 
Q 353 981 353 1791 
Q 353 2603 747 3093 
Q 1141 3584 1784 3584 
Q 2172 3584 2450 3431 
Q 2728 3278 2906 2969 
L 2906 3500 
L 3481 3500 
L 3481 434 
z
" transform="scale(0.015625)"/>
        <path id="DejaVuSans-73" d="M 2834 3397 
L 2834 2853 
Q 2591 2978 2328 3040 
Q 2066 3103 1784 3103 
Q 1356 3103 1142 2972 
Q 928 2841 928 2578 
Q 928 2378 1081 2264 
Q 1234 2150 1697 2047 
L 1894 2003 
Q 2506 1872 2764 1633 
Q 3022 1394 3022 966 
Q 3022 478 2636 193 
Q 2250 -91 1575 -91 
Q 1294 -91 989 -36 
Q 684 19 347 128 
L 347 722 
Q 666 556 975 473 
Q 1284 391 1588 391 
Q 1994 391 2212 530 
Q 2431 669 2431 922 
Q 2431 1156 2273 1281 
Q 2116 1406 1581 1522 
L 1381 1569 
Q 847 1681 609 1914 
Q 372 2147 372 2553 
Q 372 3047 722 3315 
Q 1072 3584 1716 3584 
Q 2034 3584 2315 3537 
Q 2597 3491 2834 3397 
z
" transform="scale(0.015625)"/>
        <path id="DejaVuSans-72" d="M 2631 2963 
Q 2534 3019 2420 3045 
Q 2306 3072 2169 3072 
Q 1681 3072 1420 2755 
Q 1159 2438 1159 1844 
L 1159 0 
L 581 0 
L 581 3500 
L 1159 3500 
L 1159 2956 
Q 1341 3275 1631 3429 
Q 1922 3584 2338 3584 
Q 2397 3584 2469 3576 
Q 2541 3569 2628 3553 
L 2631 2963 
z
" transform="scale(0.015625)"/>
        <path id="DejaVuSans-61" d="M 2194 1759 
Q 1497 1759 1228 1600 
Q 959 1441 959 1056 
Q 959 750 1161 570 
Q 1363 391 1709 391 
Q 2188 391 2477 730 
Q 2766 1069 2766 1631 
L 2766 1759 
L 2194 1759 
z
M 3341 1997 
L 3341 0 
L 2766 0 
L 2766 531 
Q 2569 213 2275 61 
Q 1981 -91 1556 -91 
Q 1019 -91 701 211 
Q 384 513 384 1019 
Q 384 1609 779 1909 
Q 1175 2209 1959 2209 
L 2766 2209 
L 2766 2266 
Q 2766 2663 2505 2880 
Q 2244 3097 1772 3097 
Q 1472 3097 1187 3025 
Q 903 2953 641 2809 
L 641 3341 
Q 956 3463 1253 3523 
Q 1550 3584 1831 3584 
Q 2591 3584 2966 3190 
Q 3341 2797 3341 1997 
z
" transform="scale(0.015625)"/>
        <path id="DejaVuSans-6f" d="M 1959 3097 
Q 1497 3097 1228 2736 
Q 959 2375 959 1747 
Q 959 1119 1226 758 
Q 1494 397 1959 397 
Q 2419 397 2687 759 
Q 2956 1122 2956 1747 
Q 2956 2369 2687 2733 
Q 2419 3097 1959 3097 
z
M 1959 3584 
Q 2709 3584 3137 3096 
Q 3566 2609 3566 1747 
Q 3566 888 3137 398 
Q 2709 -91 1959 -91 
Q 1206 -91 779 398 
Q 353 888 353 1747 
Q 353 2609 779 3096 
Q 1206 3584 1959 3584 
z
" transform="scale(0.015625)"/>
        <path id="DejaVuSans-41" d="M 2188 4044 
L 1331 1722 
L 3047 1722 
L 2188 4044 
z
M 1831 4666 
L 2547 4666 
L 4325 0 
L 3669 0 
L 3244 1197 
L 1141 1197 
L 716 0 
L 50 0 
L 1831 4666 
z
" transform="scale(0.015625)"/>
        <path id="DejaVuSans-50" d="M 1259 4147 
L 1259 2394 
L 2053 2394 
Q 2494 2394 2734 2622 
Q 2975 2850 2975 3272 
Q 2975 3691 2734 3919 
Q 2494 4147 2053 4147 
L 1259 4147 
z
M 628 4666 
L 2053 4666 
Q 2838 4666 3239 4311 
Q 3641 3956 3641 3272 
Q 3641 2581 3239 2228 
Q 2838 1875 2053 1875 
L 1259 1875 
L 1259 0 
L 628 0 
L 628 4666 
z
" transform="scale(0.015625)"/>
       </defs>
       <use xlink:href="#DejaVuSans-42"/>
       <use xlink:href="#DejaVuSans-45" x="68.603516"/>
       <use xlink:href="#DejaVuSans-20" x="131.787109"/>
       <use xlink:href="#DejaVuSans-2d" x="163.574219"/>
       <use xlink:href="#DejaVuSans-20" x="199.658203"/>
       <use xlink:href="#DejaVuSans-49" x="231.445312"/>
       <use xlink:href="#DejaVuSans-6e" x="260.9375"/>
       <use xlink:href="#DejaVuSans-63" x="324.316406"/>
       <use xlink:href="#DejaVuSans-69" x="379.296875"/>
       <use xlink:href="#DejaVuSans-64" x="407.080078"/>
       <use xlink:href="#DejaVuSans-65" x="470.556641"/>
       <use xlink:href="#DejaVuSans-6e" x="532.080078"/>
       <use xlink:href="#DejaVuSans-74" x="595.458984"/>
       <use xlink:href="#DejaVuSans-20" x="634.667969"/>
       <use xlink:href="#DejaVuSans-52" x="666.455078"/>
       <use xlink:href="#DejaVuSans-65" x="731.4375"/>
       <use xlink:href="#DejaVuSans-67" x="792.960938"/>
       <use xlink:href="#DejaVuSans-69" x="856.4375"/>
       <use xlink:href="#DejaVuSans-73" x="884.220703"/>
       <use xlink:href="#DejaVuSans-74" x="936.320312"/>
       <use xlink:href="#DejaVuSans-72" x="975.529297"/>
       <use xlink:href="#DejaVuSans-61" x="1016.642578"/>
       <use xlink:href="#DejaVuSans-74" x="1077.921875"/>
       <use xlink:href="#DejaVuSans-69" x="1117.130859"/>
       <use xlink:href="#DejaVuSans-6f" x="1144.914062"/>
       <use xlink:href="#DejaVuSans-6e" x="1206.095703"/>
       <use xlink:href="#DejaVuSans-20" x="1269.474609"/>
       <use xlink:href="#DejaVuSans-41" x="1301.261719"/>
       <use xlink:href="#DejaVuSans-50" x="1369.669922"/>
       <use xlink:href="#DejaVuSans-49" x="1429.972656"/>
      </g>
     </g>
    </g>
    <g id="ytick_2">
     <g id="line2d_15">
      <path d="M 337.044375 309.705854 
L 704.934375 309.705854 
" clip-path="url(#p90c7a2da62)" style="fill: none; stroke-dasharray: 2.22,0.96; stroke-dashoffset: 0; stroke: #b0b0b0; stroke-opacity: 0.7; stroke-width: 0.6"/>
     </g>
     <g id="line2d_16">
      <g>
       <use xlink:href="#mc2a606a62f" x="337.044375" y="309.705854" style="fill: #1a1a1a; stroke: #1a1a1a; stroke-width: 0.8"/>
      </g>
     </g>
     <g id="text_9">
      <!-- FE - Region Dashboard - Show Incidents -->
      <g style="fill: #1a1a1a" transform="translate(94.313125 314.264917) scale(0.12 -0.12)">
       <defs>
        <path id="DejaVuSans-46" d="M 628 4666 
L 3309 4666 
L 3309 4134 
L 1259 4134 
L 1259 2759 
L 3109 2759 
L 3109 2228 
L 1259 2228 
L 1259 0 
L 628 0 
L 628 4666 
z
" transform="scale(0.015625)"/>
        <path id="DejaVuSans-44" d="M 1259 4147 
L 1259 519 
L 2022 519 
Q 2988 519 3436 956 
Q 3884 1394 3884 2338 
Q 3884 3275 3436 3711 
Q 2988 4147 2022 4147 
L 1259 4147 
z
M 628 4666 
L 1925 4666 
Q 3281 4666 3915 4102 
Q 4550 3538 4550 2338 
Q 4550 1131 3912 565 
Q 3275 0 1925 0 
L 628 0 
L 628 4666 
z
" transform="scale(0.015625)"/>
        <path id="DejaVuSans-68" d="M 3513 2113 
L 3513 0 
L 2938 0 
L 2938 2094 
Q 2938 2591 2744 2837 
Q 2550 3084 2163 3084 
Q 1697 3084 1428 2787 
Q 1159 2491 1159 1978 
L 1159 0 
L 581 0 
L 581 4863 
L 1159 4863 
L 1159 2956 
Q 1366 3272 1645 3428 
Q 1925 3584 2291 3584 
Q 2894 3584 3203 3211 
Q 3513 2838 3513 2113 
z
" transform="scale(0.015625)"/>
        <path id="DejaVuSans-62" d="M 3116 1747 
Q 3116 2381 2855 2742 
Q 2594 3103 2138 3103 
Q 1681 3103 1420 2742 
Q 1159 2381 1159 1747 
Q 1159 1113 1420 752 
Q 1681 391 2138 391 
Q 2594 391 2855 752 
Q 3116 1113 3116 1747 
z
M 1159 2969 
Q 1341 3281 1617 3432 
Q 1894 3584 2278 3584 
Q 2916 3584 3314 3078 
Q 3713 2572 3713 1747 
Q 3713 922 3314 415 
Q 2916 -91 2278 -91 
Q 1894 -91 1617 61 
Q 1341 213 1159 525 
L 1159 0 
L 581 0 
L 581 4863 
L 1159 4863 
L 1159 2969 
z
" transform="scale(0.015625)"/>
        <path id="DejaVuSans-53" d="M 3425 4513 
L 3425 3897 
Q 3066 4069 2747 4153 
Q 2428 4238 2131 4238 
Q 1616 4238 1336 4038 
Q 1056 3838 1056 3469 
Q 1056 3159 1242 3001 
Q 1428 2844 1947 2747 
L 2328 2669 
Q 3034 2534 3370 2195 
Q 3706 1856 3706 1288 
Q 3706 609 3251 259 
Q 2797 -91 1919 -91 
Q 1588 -91 1214 -16 
Q 841 59 441 206 
L 441 856 
Q 825 641 1194 531 
Q 1563 422 1919 422 
Q 2459 422 2753 634 
Q 3047 847 3047 1241 
Q 3047 1584 2836 1778 
Q 2625 1972 2144 2069 
L 1759 2144 
Q 1053 2284 737 2584 
Q 422 2884 422 3419 
Q 422 4038 858 4394 
Q 1294 4750 2059 4750 
Q 2388 4750 2728 4690 
Q 3069 4631 3425 4513 
z
" transform="scale(0.015625)"/>
        <path id="DejaVuSans-77" d="M 269 3500 
L 844 3500 
L 1563 769 
L 2278 3500 
L 2956 3500 
L 3675 769 
L 4391 3500 
L 4966 3500 
L 4050 0 
L 3372 0 
L 2619 2869 
L 1863 0 
L 1184 0 
L 269 3500 
z
" transform="scale(0.015625)"/>
       </defs>
       <use xlink:href="#DejaVuSans-46"/>
       <use xlink:href="#DejaVuSans-45" x="57.519531"/>
       <use xlink:href="#DejaVuSans-20" x="120.703125"/>
       <use xlink:href="#DejaVuSans-2d" x="152.490234"/>
       <use xlink:href="#DejaVuSans-20" x="188.574219"/>
       <use xlink:href="#DejaVuSans-52" x="220.361328"/>
       <use xlink:href="#DejaVuSans-65" x="285.34375"/>
       <use xlink:href="#DejaVuSans-67" x="346.867188"/>
       <use xlink:href="#DejaVuSans-69" x="410.34375"/>
       <use xlink:href="#DejaVuSans-6f" x="438.126953"/>
       <use xlink:href="#DejaVuSans-6e" x="499.308594"/>
       <use xlink:href="#DejaVuSans-20" x="562.6875"/>
       <use xlink:href="#DejaVuSans-44" x="594.474609"/>
       <use xlink:href="#DejaVuSans-61" x="671.476562"/>
       <use xlink:href="#DejaVuSans-73" x="732.755859"/>
       <use xlink:href="#DejaVuSans-68" x="784.855469"/>
       <use xlink:href="#DejaVuSans-62" x="848.234375"/>
       <use xlink:href="#DejaVuSans-6f" x="911.710938"/>
       <use xlink:href="#DejaVuSans-61" x="972.892578"/>
       <use xlink:href="#DejaVuSans-72" x="1034.171875"/>
       <use xlink:href="#DejaVuSans-64" x="1073.535156"/>
       <use xlink:href="#DejaVuSans-20" x="1137.011719"/>
       <use xlink:href="#DejaVuSans-2d" x="1168.798828"/>
       <use xlink:href="#DejaVuSans-20" x="1204.882812"/>
       <use xlink:href="#DejaVuSans-53" x="1236.669922"/>
       <use xlink:href="#DejaVuSans-68" x="1300.146484"/>
       <use xlink:href="#DejaVuSans-6f" x="1363.525391"/>
       <use xlink:href="#DejaVuSans-77" x="1424.707031"/>
       <use xlink:href="#DejaVuSans-20" x="1506.494141"/>
       <use xlink:href="#DejaVuSans-49" x="1538.28125"/>
       <use xlink:href="#DejaVuSans-6e" x="1567.773438"/>
       <use xlink:href="#DejaVuSans-63" x="1631.152344"/>
       <use xlink:href="#DejaVuSans-69" x="1686.132812"/>
       <use xlink:href="#DejaVuSans-64" x="1713.916016"/>
       <use xlink:href="#DejaVuSans-65" x="1777.392578"/>
       <use xlink:href="#DejaVuSans-6e" x="1838.916016"/>
       <use xlink:href="#DejaVuSans-74" x="1902.294922"/>
       <use xlink:href="#DejaVuSans-73" x="1941.503906"/>
      </g>
     </g>
    </g>
    <g id="ytick_3">
     <g id="line2d_17">
      <path d="M 337.044375 280.383308 
L 704.934375 280.383308 
" clip-path="url(#p90c7a2da62)" style="fill: none; stroke-dasharray: 2.22,0.96; stroke-dashoffset: 0; stroke: #b0b0b0; stroke-opacity: 0.7; stroke-width: 0.6"/>
     </g>
     <g id="line2d_18">
      <g>
       <use xlink:href="#mc2a606a62f" x="337.044375" y="280.383308" style="fill: #1a1a1a; stroke: #1a1a1a; stroke-width: 0.8"/>
      </g>
     </g>
     <g id="text_10">
      <!-- BE - Incident Get All API -->
      <g style="fill: #1a1a1a" transform="translate(190.695625 284.942371) scale(0.12 -0.12)">
       <defs>
        <path id="DejaVuSans-47" d="M 3809 666 
L 3809 1919 
L 2778 1919 
L 2778 2438 
L 4434 2438 
L 4434 434 
Q 4069 175 3628 42 
Q 3188 -91 2688 -91 
Q 1594 -91 976 548 
Q 359 1188 359 2328 
Q 359 3472 976 4111 
Q 1594 4750 2688 4750 
Q 3144 4750 3555 4637 
Q 3966 4525 4313 4306 
L 4313 3634 
Q 3963 3931 3569 4081 
Q 3175 4231 2741 4231 
Q 1884 4231 1454 3753 
Q 1025 3275 1025 2328 
Q 1025 1384 1454 906 
Q 1884 428 2741 428 
Q 3075 428 3337 486 
Q 3600 544 3809 666 
z
" transform="scale(0.015625)"/>
       </defs>
       <use xlink:href="#DejaVuSans-42"/>
       <use xlink:href="#DejaVuSans-45" x="68.603516"/>
       <use xlink:href="#DejaVuSans-20" x="131.787109"/>
       <use xlink:href="#DejaVuSans-2d" x="163.574219"/>
       <use xlink:href="#DejaVuSans-20" x="199.658203"/>
       <use xlink:href="#DejaVuSans-49" x="231.445312"/>
       <use xlink:href="#DejaVuSans-6e" x="260.9375"/>
       <use xlink:href="#DejaVuSans-63" x="324.316406"/>
       <use xlink:href="#DejaVuSans-69" x="379.296875"/>
       <use xlink:href="#DejaVuSans-64" x="407.080078"/>
       <use xlink:href="#DejaVuSans-65" x="470.556641"/>
       <use xlink:href="#DejaVuSans-6e" x="532.080078"/>
       <use xlink:href="#DejaVuSans-74" x="595.458984"/>
       <use xlink:href="#DejaVuSans-20" x="634.667969"/>
       <use xlink:href="#DejaVuSans-47" x="666.455078"/>
       <use xlink:href="#DejaVuSans-65" x="743.945312"/>
       <use xlink:href="#DejaVuSans-74" x="805.46875"/>
       <use xlink:href="#DejaVuSans-20" x="844.677734"/>
       <use xlink:href="#DejaVuSans-41" x="876.464844"/>
       <use xlink:href="#DejaVuSans-6c" x="944.873047"/>
       <use xlink:href="#DejaVuSans-6c" x="972.65625"/>
       <use xlink:href="#DejaVuSans-20" x="1000.439453"/>
       <use xlink:href="#DejaVuSans-41" x="1032.226562"/>
       <use xlink:href="#DejaVuSans-50" x="1100.634766"/>
       <use xlink:href="#DejaVuSans-49" x="1160.9375"/>
      </g>
     </g>
    </g>
    <g id="ytick_4">
     <g id="line2d_19">
      <path d="M 337.044375 251.060763 
L 704.934375 251.060763 
" clip-path="url(#p90c7a2da62)" style="fill: none; stroke-dasharray: 2.22,0.96; stroke-dashoffset: 0; stroke: #b0b0b0; stroke-opacity: 0.7; stroke-width: 0.6"/>
     </g>
     <g id="line2d_20">
      <g>
       <use xlink:href="#mc2a606a62f" x="337.044375" y="251.060763" style="fill: #1a1a1a; stroke: #1a1a1a; stroke-width: 0.8"/>
      </g>
     </g>
     <g id="text_11">
      <!-- BE - Grip Level API -->
      <g style="fill: #1a1a1a" transform="translate(222.296875 255.619825) scale(0.12 -0.12)">
       <defs>
        <path id="DejaVuSans-70" d="M 1159 525 
L 1159 -1331 
L 581 -1331 
L 581 3500 
L 1159 3500 
L 1159 2969 
Q 1341 3281 1617 3432 
Q 1894 3584 2278 3584 
Q 2916 3584 3314 3078 
Q 3713 2572 3713 1747 
Q 3713 922 3314 415 
Q 2916 -91 2278 -91 
Q 1894 -91 1617 61 
Q 1341 213 1159 525 
z
M 3116 1747 
Q 3116 2381 2855 2742 
Q 2594 3103 2138 3103 
Q 1681 3103 1420 2742 
Q 1159 2381 1159 1747 
Q 1159 1113 1420 752 
Q 1681 391 2138 391 
Q 2594 391 2855 752 
Q 3116 1113 3116 1747 
z
" transform="scale(0.015625)"/>
        <path id="DejaVuSans-4c" d="M 628 4666 
L 1259 4666 
L 1259 531 
L 3531 531 
L 3531 0 
L 628 0 
L 628 4666 
z
" transform="scale(0.015625)"/>
        <path id="DejaVuSans-76" d="M 191 3500 
L 800 3500 
L 1894 563 
L 2988 3500 
L 3597 3500 
L 2284 0 
L 1503 0 
L 191 3500 
z
" transform="scale(0.015625)"/>
       </defs>
       <use xlink:href="#DejaVuSans-42"/>
       <use xlink:href="#DejaVuSans-45" x="68.603516"/>
       <use xlink:href="#DejaVuSans-20" x="131.787109"/>
       <use xlink:href="#DejaVuSans-2d" x="163.574219"/>
       <use xlink:href="#DejaVuSans-20" x="199.658203"/>
       <use xlink:href="#DejaVuSans-47" x="231.445312"/>
       <use xlink:href="#DejaVuSans-72" x="308.935547"/>
       <use xlink:href="#DejaVuSans-69" x="350.048828"/>
       <use xlink:href="#DejaVuSans-70" x="377.832031"/>
       <use xlink:href="#DejaVuSans-20" x="441.308594"/>
       <use xlink:href="#DejaVuSans-4c" x="473.095703"/>
       <use xlink:href="#DejaVuSans-65" x="527.058594"/>
       <use xlink:href="#DejaVuSans-76" x="588.582031"/>
       <use xlink:href="#DejaVuSans-65" x="647.761719"/>
       <use xlink:href="#DejaVuSans-6c" x="709.285156"/>
       <use xlink:href="#DejaVuSans-20" x="737.068359"/>
       <use xlink:href="#DejaVuSans-41" x="768.855469"/>
       <use xlink:href="#DejaVuSans-50" x="837.263672"/>
       <use xlink:href="#DejaVuSans-49" x="897.566406"/>
      </g>
     </g>
    </g>
    <g id="ytick_5">
     <g id="line2d_21">
      <path d="M 337.044375 221.738217 
L 704.934375 221.738217 
" clip-path="url(#p90c7a2da62)" style="fill: none; stroke-dasharray: 2.22,0.96; stroke-dashoffset: 0; stroke: #b0b0b0; stroke-opacity: 0.7; stroke-width: 0.6"/>
     </g>
     <g id="line2d_22">
      <g>
       <use xlink:href="#mc2a606a62f" x="337.044375" y="221.738217" style="fill: #1a1a1a; stroke: #1a1a1a; stroke-width: 0.8"/>
      </g>
     </g>
     <g id="text_12">
      <!-- BE - Update Incident -->
      <g style="fill: #1a1a1a" transform="translate(210.109375 226.297279) scale(0.12 -0.12)">
       <defs>
        <path id="DejaVuSans-55" d="M 556 4666 
L 1191 4666 
L 1191 1831 
Q 1191 1081 1462 751 
Q 1734 422 2344 422 
Q 2950 422 3222 751 
Q 3494 1081 3494 1831 
L 3494 4666 
L 4128 4666 
L 4128 1753 
Q 4128 841 3676 375 
Q 3225 -91 2344 -91 
Q 1459 -91 1007 375 
Q 556 841 556 1753 
L 556 4666 
z
" transform="scale(0.015625)"/>
       </defs>
       <use xlink:href="#DejaVuSans-42"/>
       <use xlink:href="#DejaVuSans-45" x="68.603516"/>
       <use xlink:href="#DejaVuSans-20" x="131.787109"/>
       <use xlink:href="#DejaVuSans-2d" x="163.574219"/>
       <use xlink:href="#DejaVuSans-20" x="199.658203"/>
       <use xlink:href="#DejaVuSans-55" x="231.445312"/>
       <use xlink:href="#DejaVuSans-70" x="304.638672"/>
       <use xlink:href="#DejaVuSans-64" x="368.115234"/>
       <use xlink:href="#DejaVuSans-61" x="431.591797"/>
       <use xlink:href="#DejaVuSans-74" x="492.871094"/>
       <use xlink:href="#DejaVuSans-65" x="532.080078"/>
       <use xlink:href="#DejaVuSans-20" x="593.603516"/>
       <use xlink:href="#DejaVuSans-49" x="625.390625"/>
       <use xlink:href="#DejaVuSans-6e" x="654.882812"/>
       <use xlink:href="#DejaVuSans-63" x="718.261719"/>
       <use xlink:href="#DejaVuSans-69" x="773.242188"/>
       <use xlink:href="#DejaVuSans-64" x="801.025391"/>
       <use xlink:href="#DejaVuSans-65" x="864.501953"/>
       <use xlink:href="#DejaVuSans-6e" x="926.025391"/>
       <use xlink:href="#DejaVuSans-74" x="989.404297"/>
      </g>
     </g>
    </g>
    <g id="ytick_6">
     <g id="line2d_23">
      <path d="M 337.044375 192.415671 
L 704.934375 192.415671 
" clip-path="url(#p90c7a2da62)" style="fill: none; stroke-dasharray: 2.22,0.96; stroke-dashoffset: 0; stroke: #b0b0b0; stroke-opacity: 0.7; stroke-width: 0.6"/>
     </g>
     <g id="line2d_24">
      <g>
       <use xlink:href="#mc2a606a62f" x="337.044375" y="192.415671" style="fill: #1a1a1a; stroke: #1a1a1a; stroke-width: 0.8"/>
      </g>
     </g>
     <g id="text_13">
      <!-- FE - Region Dashboard - Update Grip Level -->
      <g style="fill: #1a1a1a" transform="translate(77.194375 196.974733) scale(0.12 -0.12)">
       <use xlink:href="#DejaVuSans-46"/>
       <use xlink:href="#DejaVuSans-45" x="57.519531"/>
       <use xlink:href="#DejaVuSans-20" x="120.703125"/>
       <use xlink:href="#DejaVuSans-2d" x="152.490234"/>
       <use xlink:href="#DejaVuSans-20" x="188.574219"/>
       <use xlink:href="#DejaVuSans-52" x="220.361328"/>
       <use xlink:href="#DejaVuSans-65" x="285.34375"/>
       <use xlink:href="#DejaVuSans-67" x="346.867188"/>
       <use xlink:href="#DejaVuSans-69" x="410.34375"/>
       <use xlink:href="#DejaVuSans-6f" x="438.126953"/>
       <use xlink:href="#DejaVuSans-6e" x="499.308594"/>
       <use xlink:href="#DejaVuSans-20" x="562.6875"/>
       <use xlink:href="#DejaVuSans-44" x="594.474609"/>
       <use xlink:href="#DejaVuSans-61" x="671.476562"/>
       <use xlink:href="#DejaVuSans-73" x="732.755859"/>
       <use xlink:href="#DejaVuSans-68" x="784.855469"/>
       <use xlink:href="#DejaVuSans-62" x="848.234375"/>
       <use xlink:href="#DejaVuSans-6f" x="911.710938"/>
       <use xlink:href="#DejaVuSans-61" x="972.892578"/>
       <use xlink:href="#DejaVuSans-72" x="1034.171875"/>
       <use xlink:href="#DejaVuSans-64" x="1073.535156"/>
       <use xlink:href="#DejaVuSans-20" x="1137.011719"/>
       <use xlink:href="#DejaVuSans-2d" x="1168.798828"/>
       <use xlink:href="#DejaVuSans-20" x="1204.882812"/>
       <use xlink:href="#DejaVuSans-55" x="1236.669922"/>
       <use xlink:href="#DejaVuSans-70" x="1309.863281"/>
       <use xlink:href="#DejaVuSans-64" x="1373.339844"/>
       <use xlink:href="#DejaVuSans-61" x="1436.816406"/>
       <use xlink:href="#DejaVuSans-74" x="1498.095703"/>
       <use xlink:href="#DejaVuSans-65" x="1537.304688"/>
       <use xlink:href="#DejaVuSans-20" x="1598.828125"/>
       <use xlink:href="#DejaVuSans-47" x="1630.615234"/>
       <use xlink:href="#DejaVuSans-72" x="1708.105469"/>
       <use xlink:href="#DejaVuSans-69" x="1749.21875"/>
       <use xlink:href="#DejaVuSans-70" x="1777.001953"/>
       <use xlink:href="#DejaVuSans-20" x="1840.478516"/>
       <use xlink:href="#DejaVuSans-4c" x="1872.265625"/>
       <use xlink:href="#DejaVuSans-65" x="1926.228516"/>
       <use xlink:href="#DejaVuSans-76" x="1987.751953"/>
       <use xlink:href="#DejaVuSans-65" x="2046.931641"/>
       <use xlink:href="#DejaVuSans-6c" x="2108.455078"/>
      </g>
     </g>
    </g>
    <g id="ytick_7">
     <g id="line2d_25">
      <path d="M 337.044375 163.093125 
L 704.934375 163.093125 
" clip-path="url(#p90c7a2da62)" style="fill: none; stroke-dasharray: 2.22,0.96; stroke-dashoffset: 0; stroke: #b0b0b0; stroke-opacity: 0.7; stroke-width: 0.6"/>
     </g>
     <g id="line2d_26">
      <g>
       <use xlink:href="#mc2a606a62f" x="337.044375" y="163.093125" style="fill: #1a1a1a; stroke: #1a1a1a; stroke-width: 0.8"/>
      </g>
     </g>
     <g id="text_14">
      <!-- BE - Notification Service - Sending Events to Region -->
      <g style="fill: #1a1a1a" transform="translate(22.81375 167.652188) scale(0.12 -0.12)">
       <defs>
        <path id="DejaVuSans-4e" d="M 628 4666 
L 1478 4666 
L 3547 763 
L 3547 4666 
L 4159 4666 
L 4159 0 
L 3309 0 
L 1241 3903 
L 1241 0 
L 628 0 
L 628 4666 
z
" transform="scale(0.015625)"/>
        <path id="DejaVuSans-66" d="M 2375 4863 
L 2375 4384 
L 1825 4384 
Q 1516 4384 1395 4259 
Q 1275 4134 1275 3809 
L 1275 3500 
L 2222 3500 
L 2222 3053 
L 1275 3053 
L 1275 0 
L 697 0 
L 697 3053 
L 147 3053 
L 147 3500 
L 697 3500 
L 697 3744 
Q 697 4328 969 4595 
Q 1241 4863 1831 4863 
L 2375 4863 
z
" transform="scale(0.015625)"/>
       </defs>
       <use xlink:href="#DejaVuSans-42"/>
       <use xlink:href="#DejaVuSans-45" x="68.603516"/>
       <use xlink:href="#DejaVuSans-20" x="131.787109"/>
       <use xlink:href="#DejaVuSans-2d" x="163.574219"/>
       <use xlink:href="#DejaVuSans-20" x="199.658203"/>
       <use xlink:href="#DejaVuSans-4e" x="231.445312"/>
       <use xlink:href="#DejaVuSans-6f" x="306.25"/>
       <use xlink:href="#DejaVuSans-74" x="367.431641"/>
       <use xlink:href="#DejaVuSans-69" x="406.640625"/>
       <use xlink:href="#DejaVuSans-66" x="434.423828"/>
       <use xlink:href="#DejaVuSans-69" x="469.628906"/>
       <use xlink:href="#DejaVuSans-63" x="497.412109"/>
       <use xlink:href="#DejaVuSans-61" x="552.392578"/>
       <use xlink:href="#DejaVuSans-74" x="613.671875"/>
       <use xlink:href="#DejaVuSans-69" x="652.880859"/>
       <use xlink:href="#DejaVuSans-6f" x="680.664062"/>
       <use xlink:href="#DejaVuSans-6e" x="741.845703"/>
       <use xlink:href="#DejaVuSans-20" x="805.224609"/>
       <use xlink:href="#DejaVuSans-53" x="837.011719"/>
       <use xlink:href="#DejaVuSans-65" x="900.488281"/>
       <use xlink:href="#DejaVuSans-72" x="962.011719"/>
       <use xlink:href="#DejaVuSans-76" x="1003.125"/>
       <use xlink:href="#DejaVuSans-69" x="1062.304688"/>
       <use xlink:href="#DejaVuSans-63" x="1090.087891"/>
       <use xlink:href="#DejaVuSans-65" x="1145.068359"/>
       <use xlink:href="#DejaVuSans-20" x="1206.591797"/>
       <use xlink:href="#DejaVuSans-2d" x="1238.378906"/>
       <use xlink:href="#DejaVuSans-20" x="1274.462891"/>
       <use xlink:href="#DejaVuSans-53" x="1306.25"/>
       <use xlink:href="#DejaVuSans-65" x="1369.726562"/>
       <use xlink:href="#DejaVuSans-6e" x="1431.25"/>
       <use xlink:href="#DejaVuSans-64" x="1494.628906"/>
       <use xlink:href="#DejaVuSans-69" x="1558.105469"/>
       <use xlink:href="#DejaVuSans-6e" x="1585.888672"/>
       <use xlink:href="#DejaVuSans-67" x="1649.267578"/>
       <use xlink:href="#DejaVuSans-20" x="1712.744141"/>
       <use xlink:href="#DejaVuSans-45" x="1744.53125"/>
       <use xlink:href="#DejaVuSans-76" x="1807.714844"/>
       <use xlink:href="#DejaVuSans-65" x="1866.894531"/>
       <use xlink:href="#DejaVuSans-6e" x="1928.417969"/>
       <use xlink:href="#DejaVuSans-74" x="1991.796875"/>
       <use xlink:href="#DejaVuSans-73" x="2031.005859"/>
       <use xlink:href="#DejaVuSans-20" x="2083.105469"/>
       <use xlink:href="#DejaVuSans-74" x="2114.892578"/>
       <use xlink:href="#DejaVuSans-6f" x="2154.101562"/>
       <use xlink:href="#DejaVuSans-20" x="2215.283203"/>
       <use xlink:href="#DejaVuSans-52" x="2247.070312"/>
       <use xlink:href="#DejaVuSans-65" x="2312.052734"/>
       <use xlink:href="#DejaVuSans-67" x="2373.576172"/>
       <use xlink:href="#DejaVuSans-69" x="2437.052734"/>
       <use xlink:href="#DejaVuSans-6f" x="2464.835938"/>
       <use xlink:href="#DejaVuSans-6e" x="2526.017578"/>
      </g>
     </g>
    </g>
    <g id="ytick_8">
     <g id="line2d_27">
      <path d="M 337.044375 133.770579 
L 704.934375 133.770579 
" clip-path="url(#p90c7a2da62)" style="fill: none; stroke-dasharray: 2.22,0.96; stroke-dashoffset: 0; stroke: #b0b0b0; stroke-opacity: 0.7; stroke-width: 0.6"/>
     </g>
     <g id="line2d_28">
      <g>
       <use xlink:href="#mc2a606a62f" x="337.044375" y="133.770579" style="fill: #1a1a1a; stroke: #1a1a1a; stroke-width: 0.8"/>
      </g>
     </g>
     <g id="text_15">
      <!-- BE - Notification Alert -->
      <g style="fill: #1a1a1a" transform="translate(204.540625 138.329642) scale(0.12 -0.12)">
       <use xlink:href="#DejaVuSans-42"/>
       <use xlink:href="#DejaVuSans-45" x="68.603516"/>
       <use xlink:href="#DejaVuSans-20" x="131.787109"/>
       <use xlink:href="#DejaVuSans-2d" x="163.574219"/>
       <use xlink:href="#DejaVuSans-20" x="199.658203"/>
       <use xlink:href="#DejaVuSans-4e" x="231.445312"/>
       <use xlink:href="#DejaVuSans-6f" x="306.25"/>
       <use xlink:href="#DejaVuSans-74" x="367.431641"/>
       <use xlink:href="#DejaVuSans-69" x="406.640625"/>
       <use xlink:href="#DejaVuSans-66" x="434.423828"/>
       <use xlink:href="#DejaVuSans-69" x="469.628906"/>
       <use xlink:href="#DejaVuSans-63" x="497.412109"/>
       <use xlink:href="#DejaVuSans-61" x="552.392578"/>
       <use xlink:href="#DejaVuSans-74" x="613.671875"/>
       <use xlink:href="#DejaVuSans-69" x="652.880859"/>
       <use xlink:href="#DejaVuSans-6f" x="680.664062"/>
       <use xlink:href="#DejaVuSans-6e" x="741.845703"/>
       <use xlink:href="#DejaVuSans-20" x="805.224609"/>
       <use xlink:href="#DejaVuSans-41" x="837.011719"/>
       <use xlink:href="#DejaVuSans-6c" x="905.419922"/>
       <use xlink:href="#DejaVuSans-65" x="933.203125"/>
       <use xlink:href="#DejaVuSans-72" x="994.726562"/>
       <use xlink:href="#DejaVuSans-74" x="1035.839844"/>
      </g>
     </g>
    </g>
    <g id="ytick_9">
     <g id="line2d_29">
      <path d="M 337.044375 104.448033 
L 704.934375 104.448033 
" clip-path="url(#p90c7a2da62)" style="fill: none; stroke-dasharray: 2.22,0.96; stroke-dashoffset: 0; stroke: #b0b0b0; stroke-opacity: 0.7; stroke-width: 0.6"/>
     </g>
     <g id="line2d_30">
      <g>
       <use xlink:href="#mc2a606a62f" x="337.044375" y="104.448033" style="fill: #1a1a1a; stroke: #1a1a1a; stroke-width: 0.8"/>
      </g>
     </g>
     <g id="text_16">
      <!-- BE - API Gateway -->
      <g style="fill: #1a1a1a" transform="translate(229.96375 109.007096) scale(0.12 -0.12)">
       <defs>
        <path id="DejaVuSans-79" d="M 2059 -325 
Q 1816 -950 1584 -1140 
Q 1353 -1331 966 -1331 
L 506 -1331 
L 506 -850 
L 844 -850 
Q 1081 -850 1212 -737 
Q 1344 -625 1503 -206 
L 1606 56 
L 191 3500 
L 800 3500 
L 1894 763 
L 2988 3500 
L 3597 3500 
L 2059 -325 
z
" transform="scale(0.015625)"/>
       </defs>
       <use xlink:href="#DejaVuSans-42"/>
       <use xlink:href="#DejaVuSans-45" x="68.603516"/>
       <use xlink:href="#DejaVuSans-20" x="131.787109"/>
       <use xlink:href="#DejaVuSans-2d" x="163.574219"/>
       <use xlink:href="#DejaVuSans-20" x="199.658203"/>
       <use xlink:href="#DejaVuSans-41" x="231.445312"/>
       <use xlink:href="#DejaVuSans-50" x="299.853516"/>
       <use xlink:href="#DejaVuSans-49" x="360.15625"/>
       <use xlink:href="#DejaVuSans-20" x="389.648438"/>
       <use xlink:href="#DejaVuSans-47" x="421.435547"/>
       <use xlink:href="#DejaVuSans-61" x="498.925781"/>
       <use xlink:href="#DejaVuSans-74" x="560.205078"/>
       <use xlink:href="#DejaVuSans-65" x="599.414062"/>
       <use xlink:href="#DejaVuSans-77" x="660.9375"/>
       <use xlink:href="#DejaVuSans-61" x="742.724609"/>
       <use xlink:href="#DejaVuSans-79" x="804.003906"/>
      </g>
     </g>
    </g>
    <g id="ytick_10">
     <g id="line2d_31">
      <path d="M 337.044375 75.125488 
L 704.934375 75.125488 
" clip-path="url(#p90c7a2da62)" style="fill: none; stroke-dasharray: 2.22,0.96; stroke-dashoffset: 0; stroke: #b0b0b0; stroke-opacity: 0.7; stroke-width: 0.6"/>
     </g>
     <g id="line2d_32">
      <g>
       <use xlink:href="#mc2a606a62f" x="337.044375" y="75.125488" style="fill: #1a1a1a; stroke: #1a1a1a; stroke-width: 0.8"/>
      </g>
     </g>
     <g id="text_17">
      <!-- BE - Region API -->
      <g style="fill: #1a1a1a" transform="translate(241.8925 79.68455) scale(0.12 -0.12)">
       <use xlink:href="#DejaVuSans-42"/>
       <use xlink:href="#DejaVuSans-45" x="68.603516"/>
       <use xlink:href="#DejaVuSans-20" x="131.787109"/>
       <use xlink:href="#DejaVuSans-2d" x="163.574219"/>
       <use xlink:href="#DejaVuSans-20" x="199.658203"/>
       <use xlink:href="#DejaVuSans-52" x="231.445312"/>
       <use xlink:href="#DejaVuSans-65" x="296.427734"/>
       <use xlink:href="#DejaVuSans-67" x="357.951172"/>
       <use xlink:href="#DejaVuSans-69" x="421.427734"/>
       <use xlink:href="#DejaVuSans-6f" x="449.210938"/>
       <use xlink:href="#DejaVuSans-6e" x="510.392578"/>
       <use xlink:href="#DejaVuSans-20" x="573.771484"/>
       <use xlink:href="#DejaVuSans-41" x="605.558594"/>
       <use xlink:href="#DejaVuSans-50" x="673.966797"/>
       <use xlink:href="#DejaVuSans-49" x="734.269531"/>
      </g>
     </g>
    </g>
    <g id="ytick_11">
     <g id="line2d_33">
      <path d="M 337.044375 45.802942 
L 704.934375 45.802942 
" clip-path="url(#p90c7a2da62)" style="fill: none; stroke-dasharray: 2.22,0.96; stroke-dashoffset: 0; stroke: #b0b0b0; stroke-opacity: 0.7; stroke-width: 0.6"/>
     </g>
     <g id="line2d_34">
      <g>
       <use xlink:href="#mc2a606a62f" x="337.044375" y="45.802942" style="fill: #1a1a1a; stroke: #1a1a1a; stroke-width: 0.8"/>
      </g>
     </g>
     <g id="text_18">
      <!-- Iterate ADD -->
      <g style="fill: #1a1a1a" transform="translate(263.03875 50.362004) scale(0.12 -0.12)">
       <use xlink:href="#DejaVuSans-49"/>
       <use xlink:href="#DejaVuSans-74" x="29.492188"/>
       <use xlink:href="#DejaVuSans-65" x="68.701172"/>
       <use xlink:href="#DejaVuSans-72" x="130.224609"/>
       <use xlink:href="#DejaVuSans-61" x="171.337891"/>
       <use xlink:href="#DejaVuSans-74" x="232.617188"/>
       <use xlink:href="#DejaVuSans-65" x="271.826172"/>
       <use xlink:href="#DejaVuSans-20" x="333.349609"/>
       <use xlink:href="#DejaVuSans-41" x="365.136719"/>
       <use xlink:href="#DejaVuSans-44" x="433.544922"/>
       <use xlink:href="#DejaVuSans-44" x="510.546875"/>
      </g>
     </g>
    </g>
    <g id="text_19">
     <!-- Tasks -->
     <g style="fill: #1a1a1a" transform="translate(16.318125 208.492858) rotate(-90) scale(0.12 -0.12)">
      <defs>
       <path id="DejaVuSans-6b" d="M 581 4863 
L 1159 4863 
L 1159 1991 
L 2875 3500 
L 3609 3500 
L 1753 1863 
L 3688 0 
L 2938 0 
L 1159 1709 
L 1159 0 
L 581 0 
L 581 4863 
z
" transform="scale(0.015625)"/>
      </defs>
      <use xlink:href="#DejaVuSans-54"/>
      <use xlink:href="#DejaVuSans-61" x="44.583984"/>
      <use xlink:href="#DejaVuSans-73" x="105.863281"/>
      <use xlink:href="#DejaVuSans-6b" x="157.962891"/>
      <use xlink:href="#DejaVuSans-73" x="215.873047"/>
     </g>
    </g>
   </g>
   <g id="patch_14">
    <path d="M 337.044375 361.753373 
L 337.044375 23.077969 
" style="fill: none; stroke: #1a1a1a; stroke-linejoin: miter; stroke-linecap: square"/>
   </g>
   <g id="patch_15">
    <path d="M 337.044375 361.753373 
L 704.934375 361.753373 
" style="fill: none; stroke: #1a1a1a; stroke-linejoin: miter; stroke-linecap: square"/>
   </g>
   <g id="text_20">
    <!-- Sprint 5 — Cycle Time Gantt (2025-10-17 to 2025-10-26) -->
    <g style="fill: #333333" transform="translate(314.793125 17.077969) scale(0.13 -0.13)">
     <defs>
      <path id="DejaVuSans-Bold-53" d="M 3834 4519 
L 3834 3531 
Q 3450 3703 3084 3790 
Q 2719 3878 2394 3878 
Q 1963 3878 1756 3759 
Q 1550 3641 1550 3391 
Q 1550 3203 1689 3098 
Q 1828 2994 2194 2919 
L 2706 2816 
Q 3484 2659 3812 2340 
Q 4141 2022 4141 1434 
Q 4141 663 3683 286 
Q 3225 -91 2284 -91 
Q 1841 -91 1394 -6 
Q 947 78 500 244 
L 500 1259 
Q 947 1022 1364 901 
Q 1781 781 2169 781 
Q 2563 781 2772 912 
Q 2981 1044 2981 1288 
Q 2981 1506 2839 1625 
Q 2697 1744 2272 1838 
L 1806 1941 
Q 1106 2091 782 2419 
Q 459 2747 459 3303 
Q 459 4000 909 4375 
Q 1359 4750 2203 4750 
Q 2588 4750 2994 4692 
Q 3400 4634 3834 4519 
z
" transform="scale(0.015625)"/>
      <path id="DejaVuSans-Bold-70" d="M 1656 506 
L 1656 -1331 
L 538 -1331 
L 538 3500 
L 1656 3500 
L 1656 2988 
Q 1888 3294 2169 3439 
Q 2450 3584 2816 3584 
Q 3463 3584 3878 3070 
Q 4294 2556 4294 1747 
Q 4294 938 3878 423 
Q 3463 -91 2816 -91 
Q 2450 -91 2169 54 
Q 1888 200 1656 506 
z
M 2400 2772 
Q 2041 2772 1848 2508 
Q 1656 2244 1656 1747 
Q 1656 1250 1848 986 
Q 2041 722 2400 722 
Q 2759 722 2948 984 
Q 3138 1247 3138 1747 
Q 3138 2247 2948 2509 
Q 2759 2772 2400 2772 
z
" transform="scale(0.015625)"/>
      <path id="DejaVuSans-Bold-72" d="M 3138 2547 
Q 2991 2616 2845 2648 
Q 2700 2681 2553 2681 
Q 2122 2681 1889 2404 
Q 1656 2128 1656 1613 
L 1656 0 
L 538 0 
L 538 3500 
L 1656 3500 
L 1656 2925 
Q 1872 3269 2151 3426 
Q 2431 3584 2822 3584 
Q 2878 3584 2943 3579 
Q 3009 3575 3134 3559 
L 3138 2547 
z
" transform="scale(0.015625)"/>
      <path id="DejaVuSans-Bold-69" d="M 538 3500 
L 1656 3500 
L 1656 0 
L 538 0 
L 538 3500 
z
M 538 4863 
L 1656 4863 
L 1656 3950 
L 538 3950 
L 538 4863 
z
" transform="scale(0.015625)"/>
      <path id="DejaVuSans-Bold-6e" d="M 4056 2131 
L 4056 0 
L 2931 0 
L 2931 347 
L 2931 1631 
Q 2931 2084 2911 2256 
Q 2891 2428 2841 2509 
Q 2775 2619 2662 2680 
Q 2550 2741 2406 2741 
Q 2056 2741 1856 2470 
Q 1656 2200 1656 1722 
L 1656 0 
L 538 0 
L 538 3500 
L 1656 3500 
L 1656 2988 
Q 1909 3294 2193 3439 
Q 2478 3584 2822 3584 
Q 3428 3584 3742 3212 
Q 4056 2841 4056 2131 
z
" transform="scale(0.015625)"/>
      <path id="DejaVuSans-Bold-74" d="M 1759 4494 
L 1759 3500 
L 2913 3500 
L 2913 2700 
L 1759 2700 
L 1759 1216 
Q 1759 972 1856 886 
Q 1953 800 2241 800 
L 2816 800 
L 2816 0 
L 1856 0 
Q 1194 0 917 276 
Q 641 553 641 1216 
L 641 2700 
L 84 2700 
L 84 3500 
L 641 3500 
L 641 4494 
L 1759 4494 
z
" transform="scale(0.015625)"/>
      <path id="DejaVuSans-Bold-20" transform="scale(0.015625)"/>
      <path id="DejaVuSans-Bold-35" d="M 678 4666 
L 3669 4666 
L 3669 3781 
L 1638 3781 
L 1638 3059 
Q 1775 3097 1914 3117 
Q 2053 3138 2203 3138 
Q 3056 3138 3531 2711 
Q 4006 2284 4006 1522 
Q 4006 766 3489 337 
Q 2972 -91 2053 -91 
Q 1656 -91 1267 -14 
Q 878 63 494 219 
L 494 1166 
Q 875 947 1217 837 
Q 1559 728 1863 728 
Q 2300 728 2551 942 
Q 2803 1156 2803 1522 
Q 2803 1891 2551 2103 
Q 2300 2316 1863 2316 
Q 1603 2316 1309 2248 
Q 1016 2181 678 2041 
L 678 4666 
z
" transform="scale(0.015625)"/>
      <path id="DejaVuSans-Bold-2014" d="M 344 2156 
L 6056 2156 
L 6056 1350 
L 344 1350 
L 344 2156 
z
" transform="scale(0.015625)"/>
      <path id="DejaVuSans-Bold-43" d="M 4288 256 
Q 3956 84 3597 -3 
Q 3238 -91 2847 -91 
Q 1681 -91 1000 561 
Q 319 1213 319 2328 
Q 319 3447 1000 4098 
Q 1681 4750 2847 4750 
Q 3238 4750 3597 4662 
Q 3956 4575 4288 4403 
L 4288 3438 
Q 3953 3666 3628 3772 
Q 3303 3878 2944 3878 
Q 2300 3878 1931 3465 
Q 1563 3053 1563 2328 
Q 1563 1606 1931 1193 
Q 2300 781 2944 781 
Q 3303 781 3628 887 
Q 3953 994 4288 1222 
L 4288 256 
z
" transform="scale(0.015625)"/>
      <path id="DejaVuSans-Bold-79" d="M 78 3500 
L 1197 3500 
L 2138 1125 
L 2938 3500 
L 4056 3500 
L 2584 -331 
Q 2363 -916 2067 -1148 
Q 1772 -1381 1288 -1381 
L 641 -1381 
L 641 -647 
L 991 -647 
Q 1275 -647 1404 -556 
Q 1534 -466 1606 -231 
L 1638 -134 
L 78 3500 
z
" transform="scale(0.015625)"/>
      <path id="DejaVuSans-Bold-63" d="M 3366 3391 
L 3366 2478 
Q 3138 2634 2908 2709 
Q 2678 2784 2431 2784 
Q 1963 2784 1702 2511 
Q 1441 2238 1441 1747 
Q 1441 1256 1702 982 
Q 1963 709 2431 709 
Q 2694 709 2930 787 
Q 3166 866 3366 1019 
L 3366 103 
Q 3103 6 2833 -42 
Q 2563 -91 2291 -91 
Q 1344 -91 809 395 
Q 275 881 275 1747 
Q 275 2613 809 3098 
Q 1344 3584 2291 3584 
Q 2566 3584 2833 3536 
Q 3100 3488 3366 3391 
z
" transform="scale(0.015625)"/>
      <path id="DejaVuSans-Bold-6c" d="M 538 4863 
L 1656 4863 
L 1656 0 
L 538 0 
L 538 4863 
z
" transform="scale(0.015625)"/>
      <path id="DejaVuSans-Bold-65" d="M 4031 1759 
L 4031 1441 
L 1416 1441 
Q 1456 1047 1700 850 
Q 1944 653 2381 653 
Q 2734 653 3104 758 
Q 3475 863 3866 1075 
L 3866 213 
Q 3469 63 3072 -14 
Q 2675 -91 2278 -91 
Q 1328 -91 801 392 
Q 275 875 275 1747 
Q 275 2603 792 3093 
Q 1309 3584 2216 3584 
Q 3041 3584 3536 3087 
Q 4031 2591 4031 1759 
z
M 2881 2131 
Q 2881 2450 2695 2645 
Q 2509 2841 2209 2841 
Q 1884 2841 1681 2658 
Q 1478 2475 1428 2131 
L 2881 2131 
z
" transform="scale(0.015625)"/>
      <path id="DejaVuSans-Bold-54" d="M 31 4666 
L 4331 4666 
L 4331 3756 
L 2784 3756 
L 2784 0 
L 1581 0 
L 1581 3756 
L 31 3756 
L 31 4666 
z
" transform="scale(0.015625)"/>
      <path id="DejaVuSans-Bold-6d" d="M 3781 2919 
Q 3994 3244 4286 3414 
Q 4578 3584 4928 3584 
Q 5531 3584 5847 3212 
Q 6163 2841 6163 2131 
L 6163 0 
L 5038 0 
L 5038 1825 
Q 5041 1866 5042 1909 
Q 5044 1953 5044 2034 
Q 5044 2406 4934 2573 
Q 4825 2741 4581 2741 
Q 4263 2741 4089 2478 
Q 3916 2216 3909 1719 
L 3909 0 
L 2784 0 
L 2784 1825 
Q 2784 2406 2684 2573 
Q 2584 2741 2328 2741 
Q 2006 2741 1831 2477 
Q 1656 2213 1656 1722 
L 1656 0 
L 531 0 
L 531 3500 
L 1656 3500 
L 1656 2988 
Q 1863 3284 2130 3434 
Q 2397 3584 2719 3584 
Q 3081 3584 3359 3409 
Q 3638 3234 3781 2919 
z
" transform="scale(0.015625)"/>
      <path id="DejaVuSans-Bold-47" d="M 4781 347 
Q 4331 128 3847 18 
Q 3363 -91 2847 -91 
Q 1681 -91 1000 561 
Q 319 1213 319 2328 
Q 319 3456 1012 4103 
Q 1706 4750 2913 4750 
Q 3378 4750 3804 4662 
Q 4231 4575 4609 4403 
L 4609 3438 
Q 4219 3659 3833 3768 
Q 3447 3878 3059 3878 
Q 2341 3878 1952 3476 
Q 1563 3075 1563 2328 
Q 1563 1588 1938 1184 
Q 2313 781 3003 781 
Q 3191 781 3352 804 
Q 3513 828 3641 878 
L 3641 1784 
L 2906 1784 
L 2906 2591 
L 4781 2591 
L 4781 347 
z
" transform="scale(0.015625)"/>
      <path id="DejaVuSans-Bold-61" d="M 2106 1575 
Q 1756 1575 1579 1456 
Q 1403 1338 1403 1106 
Q 1403 894 1545 773 
Q 1688 653 1941 653 
Q 2256 653 2472 879 
Q 2688 1106 2688 1447 
L 2688 1575 
L 2106 1575 
z
M 3816 1997 
L 3816 0 
L 2688 0 
L 2688 519 
Q 2463 200 2181 54 
Q 1900 -91 1497 -91 
Q 953 -91 614 226 
Q 275 544 275 1050 
Q 275 1666 698 1953 
Q 1122 2241 2028 2241 
L 2688 2241 
L 2688 2328 
Q 2688 2594 2478 2717 
Q 2269 2841 1825 2841 
Q 1466 2841 1156 2769 
Q 847 2697 581 2553 
L 581 3406 
Q 941 3494 1303 3539 
Q 1666 3584 2028 3584 
Q 2975 3584 3395 3211 
Q 3816 2838 3816 1997 
z
" transform="scale(0.015625)"/>
      <path id="DejaVuSans-Bold-28" d="M 2413 -844 
L 1484 -844 
Q 1006 -72 778 623 
Q 550 1319 550 2003 
Q 550 2688 779 3389 
Q 1009 4091 1484 4856 
L 2413 4856 
Q 2013 4116 1813 3408 
Q 1613 2700 1613 2009 
Q 1613 1319 1811 609 
Q 2009 -100 2413 -844 
z
" transform="scale(0.015625)"/>
      <path id="DejaVuSans-Bold-32" d="M 1844 884 
L 3897 884 
L 3897 0 
L 506 0 
L 506 884 
L 2209 2388 
Q 2438 2594 2547 2791 
Q 2656 2988 2656 3200 
Q 2656 3528 2436 3728 
Q 2216 3928 1850 3928 
Q 1569 3928 1234 3808 
Q 900 3688 519 3450 
L 519 4475 
Q 925 4609 1322 4679 
Q 1719 4750 2100 4750 
Q 2938 4750 3402 4381 
Q 3866 4013 3866 3353 
Q 3866 2972 3669 2642 
Q 3472 2313 2841 1759 
L 1844 884 
z
" transform="scale(0.015625)"/>
      <path id="DejaVuSans-Bold-30" d="M 2944 2338 
Q 2944 3213 2780 3570 
Q 2616 3928 2228 3928 
Q 1841 3928 1675 3570 
Q 1509 3213 1509 2338 
Q 1509 1453 1675 1090 
Q 1841 728 2228 728 
Q 2613 728 2778 1090 
Q 2944 1453 2944 2338 
z
M 4147 2328 
Q 4147 1169 3647 539 
Q 3147 -91 2228 -91 
Q 1306 -91 806 539 
Q 306 1169 306 2328 
Q 306 3491 806 4120 
Q 1306 4750 2228 4750 
Q 3147 4750 3647 4120 
Q 4147 3491 4147 2328 
z
" transform="scale(0.015625)"/>
      <path id="DejaVuSans-Bold-2d" d="M 347 2297 
L 2309 2297 
L 2309 1388 
L 347 1388 
L 347 2297 
z
" transform="scale(0.015625)"/>
      <path id="DejaVuSans-Bold-31" d="M 750 831 
L 1813 831 
L 1813 3847 
L 722 3622 
L 722 4441 
L 1806 4666 
L 2950 4666 
L 2950 831 
L 4013 831 
L 4013 0 
L 750 0 
L 750 831 
z
" transform="scale(0.015625)"/>
      <path id="DejaVuSans-Bold-37" d="M 428 4666 
L 3944 4666 
L 3944 3988 
L 2125 0 
L 953 0 
L 2675 3781 
L 428 3781 
L 428 4666 
z
" transform="scale(0.015625)"/>
      <path id="DejaVuSans-Bold-6f" d="M 2203 2784 
Q 1831 2784 1636 2517 
Q 1441 2250 1441 1747 
Q 1441 1244 1636 976 
Q 1831 709 2203 709 
Q 2569 709 2762 976 
Q 2956 1244 2956 1747 
Q 2956 2250 2762 2517 
Q 2569 2784 2203 2784 
z
M 2203 3584 
Q 3106 3584 3614 3096 
Q 4122 2609 4122 1747 
Q 4122 884 3614 396 
Q 3106 -91 2203 -91 
Q 1297 -91 786 396 
Q 275 884 275 1747 
Q 275 2609 786 3096 
Q 1297 3584 2203 3584 
z
" transform="scale(0.015625)"/>
      <path id="DejaVuSans-Bold-36" d="M 2316 2303 
Q 2000 2303 1842 2098 
Q 1684 1894 1684 1484 
Q 1684 1075 1842 870 
Q 2000 666 2316 666 
Q 2634 666 2792 870 
Q 2950 1075 2950 1484 
Q 2950 1894 2792 2098 
Q 2634 2303 2316 2303 
z
M 3803 4544 
L 3803 3681 
Q 3506 3822 3243 3889 
Q 2981 3956 2731 3956 
Q 2194 3956 1894 3657 
Q 1594 3359 1544 2772 
Q 1750 2925 1990 3001 
Q 2231 3078 2516 3078 
Q 3231 3078 3670 2659 
Q 4109 2241 4109 1563 
Q 4109 813 3618 361 
Q 3128 -91 2303 -91 
Q 1394 -91 895 523 
Q 397 1138 397 2266 
Q 397 3422 980 4083 
Q 1563 4744 2578 4744 
Q 2900 4744 3203 4694 
Q 3506 4644 3803 4544 
z
" transform="scale(0.015625)"/>
      <path id="DejaVuSans-Bold-29" d="M 513 -844 
Q 913 -100 1113 609 
Q 1313 1319 1313 2009 
Q 1313 2700 1113 3408 
Q 913 4116 513 4856 
L 1441 4856 
Q 1916 4091 2145 3389 
Q 2375 2688 2375 2003 
Q 2375 1319 2147 623 
Q 1919 -72 1441 -844 
L 513 -844 
z
" transform="scale(0.015625)"/>
     </defs>
     <use xlink:href="#DejaVuSans-Bold-53"/>
     <use xlink:href="#DejaVuSans-Bold-70" x="72.021484"/>
     <use xlink:href="#DejaVuSans-Bold-72" x="143.603516"/>
     <use xlink:href="#DejaVuSans-Bold-69" x="192.919922"/>
     <use xlink:href="#DejaVuSans-Bold-6e" x="227.197266"/>
     <use xlink:href="#DejaVuSans-Bold-74" x="298.388672"/>
     <use xlink:href="#DejaVuSans-Bold-20" x="346.191406"/>
     <use xlink:href="#DejaVuSans-Bold-35" x="381.005859"/>
     <use xlink:href="#DejaVuSans-Bold-20" x="450.585938"/>
     <use xlink:href="#DejaVuSans-Bold-2014" x="485.400391"/>
     <use xlink:href="#DejaVuSans-Bold-20" x="585.400391"/>
     <use xlink:href="#DejaVuSans-Bold-43" x="620.214844"/>
     <use xlink:href="#DejaVuSans-Bold-79" x="693.603516"/>
     <use xlink:href="#DejaVuSans-Bold-63" x="758.789062"/>
     <use xlink:href="#DejaVuSans-Bold-6c" x="818.066406"/>
     <use xlink:href="#DejaVuSans-Bold-65" x="852.34375"/>
     <use xlink:href="#DejaVuSans-Bold-20" x="920.166016"/>
     <use xlink:href="#DejaVuSans-Bold-54" x="954.980469"/>
     <use xlink:href="#DejaVuSans-Bold-69" x="1023.193359"/>
     <use xlink:href="#DejaVuSans-Bold-6d" x="1057.470703"/>
     <use xlink:href="#DejaVuSans-Bold-65" x="1161.669922"/>
     <use xlink:href="#DejaVuSans-Bold-20" x="1229.492188"/>
     <use xlink:href="#DejaVuSans-Bold-47" x="1264.306641"/>
     <use xlink:href="#DejaVuSans-Bold-61" x="1346.386719"/>
     <use xlink:href="#DejaVuSans-Bold-6e" x="1413.867188"/>
     <use xlink:href="#DejaVuSans-Bold-74" x="1485.058594"/>
     <use xlink:href="#DejaVuSans-Bold-74" x="1532.861328"/>
     <use xlink:href="#DejaVuSans-Bold-20" x="1580.664062"/>
     <use xlink:href="#DejaVuSans-Bold-28" x="1615.478516"/>
     <use xlink:href="#DejaVuSans-Bold-32" x="1661.181641"/>
     <use xlink:href="#DejaVuSans-Bold-30" x="1730.761719"/>
     <use xlink:href="#DejaVuSans-Bold-32" x="1800.341797"/>
     <use xlink:href="#DejaVuSans-Bold-35" x="1869.921875"/>
     <use xlink:href="#DejaVuSans-Bold-2d" x="1939.501953"/>
     <use xlink:href="#DejaVuSans-Bold-31" x="1981.005859"/>
     <use xlink:href="#DejaVuSans-Bold-30" x="2050.585938"/>
     <use xlink:href="#DejaVuSans-Bold-2d" x="2120.166016"/>
     <use xlink:href="#DejaVuSans-Bold-31" x="2161.669922"/>
     <use xlink:href="#DejaVuSans-Bold-37" x="2231.25"/>
     <use xlink:href="#DejaVuSans-Bold-20" x="2300.830078"/>
     <use xlink:href="#DejaVuSans-Bold-74" x="2335.644531"/>
     <use xlink:href="#DejaVuSans-Bold-6f" x="2383.447266"/>
     <use xlink:href="#DejaVuSans-Bold-20" x="2452.148438"/>
     <use xlink:href="#DejaVuSans-Bold-32" x="2486.962891"/>
     <use xlink:href="#DejaVuSans-Bold-30" x="2556.542969"/>
     <use xlink:href="#DejaVuSans-Bold-32" x="2626.123047"/>
     <use xlink:href="#DejaVuSans-Bold-35" x="2695.703125"/>
     <use xlink:href="#DejaVuSans-Bold-2d" x="2765.283203"/>
     <use xlink:href="#DejaVuSans-Bold-31" x="2806.787109"/>
     <use xlink:href="#DejaVuSans-Bold-30" x="2876.367188"/>
     <use xlink:href="#DejaVuSans-Bold-2d" x="2945.947266"/>
     <use xlink:href="#DejaVuSans-Bold-32" x="2987.451172"/>
     <use xlink:href="#DejaVuSans-Bold-36" x="3057.03125"/>
     <use xlink:href="#DejaVuSans-Bold-29" x="3126.611328"/>
    </g>
   </g>
   <g id="legend_1">
    <g id="patch_16">
     <path d="M 551.201562 75.112344 
L 697.934375 75.112344 
Q 699.934375 75.112344 699.934375 73.112344 
L 699.934375 30.077969 
Q 699.934375 28.077969 697.934375 28.077969 
L 551.201562 28.077969 
Q 549.201562 28.077969 549.201562 30.077969 
L 549.201562 73.112344 
Q 549.201562 75.112344 551.201562 75.112344 
z
" style="fill: #ffffff; opacity: 0.8; stroke: #cccccc; stroke-linejoin: miter"/>
    </g>
    <g id="patch_17">
     <path d="M 553.201562 39.676406 
L 573.201562 39.676406 
L 573.201562 32.676406 
L 553.201562 32.676406 
z
" style="fill: #4ea8de"/>
    </g>
    <g id="text_21">
     <!-- FE tasks (Blue) -->
     <g style="fill: #333333" transform="translate(581.201562 39.676406) scale(0.1 -0.1)">
      <defs>
       <path id="DejaVuSans-28" d="M 1984 4856 
Q 1566 4138 1362 3434 
Q 1159 2731 1159 2009 
Q 1159 1288 1364 580 
Q 1569 -128 1984 -844 
L 1484 -844 
Q 1016 -109 783 600 
Q 550 1309 550 2009 
Q 550 2706 781 3412 
Q 1013 4119 1484 4856 
L 1984 4856 
z
" transform="scale(0.015625)"/>
       <path id="DejaVuSans-75" d="M 544 1381 
L 544 3500 
L 1119 3500 
L 1119 1403 
Q 1119 906 1312 657 
Q 1506 409 1894 409 
Q 2359 409 2629 706 
Q 2900 1003 2900 1516 
L 2900 3500 
L 3475 3500 
L 3475 0 
L 2900 0 
L 2900 538 
Q 2691 219 2414 64 
Q 2138 -91 1772 -91 
Q 1169 -91 856 284 
Q 544 659 544 1381 
z
M 1991 3584 
L 1991 3584 
z
" transform="scale(0.015625)"/>
       <path id="DejaVuSans-29" d="M 513 4856 
L 1013 4856 
Q 1481 4119 1714 3412 
Q 1947 2706 1947 2009 
Q 1947 1309 1714 600 
Q 1481 -109 1013 -844 
L 513 -844 
Q 928 -128 1133 580 
Q 1338 1288 1338 2009 
Q 1338 2731 1133 3434 
Q 928 4138 513 4856 
z
" transform="scale(0.015625)"/>
      </defs>
      <use xlink:href="#DejaVuSans-46"/>
      <use xlink:href="#DejaVuSans-45" x="57.519531"/>
      <use xlink:href="#DejaVuSans-20" x="120.703125"/>
      <use xlink:href="#DejaVuSans-74" x="152.490234"/>
      <use xlink:href="#DejaVuSans-61" x="191.699219"/>
      <use xlink:href="#DejaVuSans-73" x="252.978516"/>
      <use xlink:href="#DejaVuSans-6b" x="305.078125"/>
      <use xlink:href="#DejaVuSans-73" x="362.988281"/>
      <use xlink:href="#DejaVuSans-20" x="415.087891"/>
      <use xlink:href="#DejaVuSans-28" x="446.875"/>
      <use xlink:href="#DejaVuSans-42" x="485.888672"/>
      <use xlink:href="#DejaVuSans-6c" x="554.492188"/>
      <use xlink:href="#DejaVuSans-75" x="582.275391"/>
      <use xlink:href="#DejaVuSans-65" x="645.654297"/>
      <use xlink:href="#DejaVuSans-29" x="707.177734"/>
     </g>
    </g>
    <g id="patch_18">
     <path d="M 553.201562 54.354531 
L 573.201562 54.354531 
L 573.201562 47.354531 
L 553.201562 47.354531 
z
" style="fill: #52b788"/>
    </g>
    <g id="text_22">
     <!-- BE tasks (Green) -->
     <g style="fill: #333333" transform="translate(581.201562 54.354531) scale(0.1 -0.1)">
      <use xlink:href="#DejaVuSans-42"/>
      <use xlink:href="#DejaVuSans-45" x="68.603516"/>
      <use xlink:href="#DejaVuSans-20" x="131.787109"/>
      <use xlink:href="#DejaVuSans-74" x="163.574219"/>
      <use xlink:href="#DejaVuSans-61" x="202.783203"/>
      <use xlink:href="#DejaVuSans-73" x="264.0625"/>
      <use xlink:href="#DejaVuSans-6b" x="316.162109"/>
      <use xlink:href="#DejaVuSans-73" x="374.072266"/>
      <use xlink:href="#DejaVuSans-20" x="426.171875"/>
      <use xlink:href="#DejaVuSans-28" x="457.958984"/>
      <use xlink:href="#DejaVuSans-47" x="496.972656"/>
      <use xlink:href="#DejaVuSans-72" x="574.462891"/>
      <use xlink:href="#DejaVuSans-65" x="613.326172"/>
      <use xlink:href="#DejaVuSans-65" x="674.849609"/>
      <use xlink:href="#DejaVuSans-6e" x="736.373047"/>
      <use xlink:href="#DejaVuSans-29" x="799.751953"/>
     </g>
    </g>
    <g id="patch_19">
     <path d="M 553.201562 69.032656 
L 573.201562 69.032656 
L 573.201562 62.032656 
L 553.201562 62.032656 
z
" style="fill: #f9c74f"/>
    </g>
    <g id="text_23">
     <!-- Analysis/Other (Yellow) -->
     <g style="fill: #333333" transform="translate(581.201562 69.032656) scale(0.1 -0.1)">
      <defs>
       <path id="DejaVuSans-2f" d="M 1625 4666 
L 2156 4666 
L 531 -594 
L 0 -594 
L 1625 4666 
z
" transform="scale(0.015625)"/>
       <path id="DejaVuSans-59" d="M -13 4666 
L 666 4666 
L 1959 2747 
L 3244 4666 
L 3922 4666 
L 2272 2222 
L 2272 0 
L 1638 0 
L 1638 2222 
L -13 4666 
z
" transform="scale(0.015625)"/>
      </defs>
      <use xlink:href="#DejaVuSans-41"/>
      <use xlink:href="#DejaVuSans-6e" x="68.408203"/>
      <use xlink:href="#DejaVuSans-61" x="131.787109"/>
      <use xlink:href="#DejaVuSans-6c" x="193.066406"/>
      <use xlink:href="#DejaVuSans-79" x="220.849609"/>
      <use xlink:href="#DejaVuSans-73" x="280.029297"/>
      <use xlink:href="#DejaVuSans-69" x="332.128906"/>
      <use xlink:href="#DejaVuSans-73" x="359.912109"/>
      <use xlink:href="#DejaVuSans-2f" x="412.011719"/>
      <use xlink:href="#DejaVuSans-4f" x="445.703125"/>
      <use xlink:href="#DejaVuSans-74" x="524.414062"/>
      <use xlink:href="#DejaVuSans-68" x="563.623047"/>
      <use xlink:href="#DejaVuSans-65" x="627.001953"/>
      <use xlink:href="#DejaVuSans-72" x="688.525391"/>
      <use xlink:href="#DejaVuSans-20" x="729.638672"/>
      <use xlink:href="#DejaVuSans-28" x="761.425781"/>
      <use xlink:href="#DejaVuSans-59" x="800.439453"/>
      <use xlink:href="#DejaVuSans-65" x="848.273438"/>
      <use xlink:href="#DejaVuSans-6c" x="909.796875"/>
      <use xlink:href="#DejaVuSans-6c" x="937.580078"/>
      <use xlink:href="#DejaVuSans-6f" x="965.363281"/>
      <use xlink:href="#DejaVuSans-77" x="1026.544922"/>
      <use xlink:href="#DejaVuSans-29" x="1108.332031"/>
     </g>
    </g>
   </g>
  </g>
  <g id="text_24">
   <!-- Bars span Start→Done dates inclusive; color legend: Blue = FE tasks, Green = BE tasks, Yellow = Analysis/Other. -->
   <g style="fill: #696969" transform="translate(67.734375 419.917969) scale(0.09 -0.09)">
    <defs>
     <path id="DejaVuSans-Oblique-42" d="M 1081 4666 
L 2694 4666 
Q 3350 4666 3675 4422 
Q 4000 4178 4000 3688 
Q 4000 3238 3720 2911 
Q 3441 2584 2988 2516 
Q 3375 2428 3569 2181 
Q 3763 1934 3763 1522 
Q 3763 819 3242 409 
Q 2722 0 1819 0 
L 172 0 
L 1081 4666 
z
M 1234 2228 
L 903 519 
L 1919 519 
Q 2491 519 2800 781 
Q 3109 1044 3109 1522 
Q 3109 1891 2904 2059 
Q 2700 2228 2247 2228 
L 1234 2228 
z
M 1606 4147 
L 1331 2741 
L 2272 2741 
Q 2775 2741 3058 2959 
Q 3341 3178 3341 3566 
Q 3341 3869 3150 4008 
Q 2959 4147 2541 4147 
L 1606 4147 
z
" transform="scale(0.015625)"/>
     <path id="DejaVuSans-Oblique-61" d="M 3438 1997 
L 3047 0 
L 2472 0 
L 2578 531 
Q 2325 219 2001 64 
Q 1678 -91 1281 -91 
Q 834 -91 548 182 
Q 263 456 263 884 
Q 263 1497 752 1853 
Q 1241 2209 2100 2209 
L 2900 2209 
L 2931 2363 
Q 2938 2388 2941 2417 
Q 2944 2447 2944 2509 
Q 2944 2788 2717 2942 
Q 2491 3097 2081 3097 
Q 1800 3097 1504 3025 
Q 1209 2953 897 2809 
L 997 3341 
Q 1322 3463 1633 3523 
Q 1944 3584 2234 3584 
Q 2853 3584 3176 3315 
Q 3500 3047 3500 2534 
Q 3500 2431 3484 2292 
Q 3469 2153 3438 1997 
z
M 2816 1759 
L 2241 1759 
Q 1534 1759 1195 1570 
Q 856 1381 856 984 
Q 856 709 1029 553 
Q 1203 397 1509 397 
Q 1978 397 2328 733 
Q 2678 1069 2791 1631 
L 2816 1759 
z
" transform="scale(0.015625)"/>
     <path id="DejaVuSans-Oblique-72" d="M 2853 2969 
Q 2766 3016 2653 3041 
Q 2541 3066 2413 3066 
Q 1953 3066 1609 2717 
Q 1266 2369 1153 1784 
L 800 0 
L 225 0 
L 909 3500 
L 1484 3500 
L 1375 2956 
Q 1603 3259 1920 3421 
Q 2238 3584 2597 3584 
Q 2691 3584 2781 3573 
Q 2872 3563 2963 3538 
L 2853 2969 
z
" transform="scale(0.015625)"/>
     <path id="DejaVuSans-Oblique-73" d="M 3200 3397 
L 3091 2853 
Q 2863 2978 2609 3040 
Q 2356 3103 2088 3103 
Q 1634 3103 1373 2948 
Q 1113 2794 1113 2528 
Q 1113 2219 1719 2053 
Q 1766 2041 1788 2034 
L 1972 1978 
Q 2547 1819 2739 1644 
Q 2931 1469 2931 1166 
Q 2931 609 2489 259 
Q 2047 -91 1331 -91 
Q 1053 -91 747 -37 
Q 441 16 72 128 
L 184 722 
Q 500 559 806 475 
Q 1113 391 1394 391 
Q 1816 391 2080 572 
Q 2344 753 2344 1031 
Q 2344 1331 1650 1516 
L 1591 1531 
L 1394 1581 
Q 956 1697 753 1886 
Q 550 2075 550 2369 
Q 550 2928 970 3256 
Q 1391 3584 2113 3584 
Q 2397 3584 2667 3537 
Q 2938 3491 3200 3397 
z
" transform="scale(0.015625)"/>
     <path id="DejaVuSans-Oblique-20" transform="scale(0.015625)"/>
     <path id="DejaVuSans-Oblique-70" d="M 3175 2156 
Q 3175 2616 2975 2859 
Q 2775 3103 2400 3103 
Q 2144 3103 1911 2972 
Q 1678 2841 1497 2591 
Q 1319 2344 1212 1994 
Q 1106 1644 1106 1300 
Q 1106 863 1306 627 
Q 1506 391 1875 391 
Q 2147 391 2380 519 
Q 2613 647 2778 891 
Q 2956 1147 3065 1494 
Q 3175 1841 3175 2156 
z
M 1394 2969 
Q 1625 3272 1939 3428 
Q 2253 3584 2638 3584 
Q 3175 3584 3472 3232 
Q 3769 2881 3769 2247 
Q 3769 1728 3584 1258 
Q 3400 788 3053 416 
Q 2822 169 2531 39 
Q 2241 -91 1919 -91 
Q 1547 -91 1294 64 
Q 1041 219 916 525 
L 556 -1331 
L -19 -1331 
L 922 3500 
L 1497 3500 
L 1394 2969 
z
" transform="scale(0.015625)"/>
     <path id="DejaVuSans-Oblique-6e" d="M 3566 2113 
L 3156 0 
L 2578 0 
L 2988 2091 
Q 3016 2238 3031 2350 
Q 3047 2463 3047 2528 
Q 3047 2791 2881 2937 
Q 2716 3084 2419 3084 
Q 1956 3084 1622 2776 
Q 1288 2469 1184 1941 
L 800 0 
L 225 0 
L 903 3500 
L 1478 3500 
L 1363 2950 
Q 1603 3253 1940 3418 
Q 2278 3584 2650 3584 
Q 3113 3584 3367 3334 
Q 3622 3084 3622 2631 
Q 3622 2519 3608 2391 
Q 3594 2263 3566 2113 
z
" transform="scale(0.015625)"/>
     <path id="DejaVuSans-Oblique-53" d="M 3859 4513 
L 3738 3897 
Q 3422 4066 3111 4152 
Q 2800 4238 2509 4238 
Q 1944 4238 1609 3991 
Q 1275 3744 1275 3334 
Q 1275 3109 1398 2989 
Q 1522 2869 2034 2731 
L 2413 2638 
Q 3053 2472 3303 2217 
Q 3553 1963 3553 1503 
Q 3553 797 2998 353 
Q 2444 -91 1538 -91 
Q 1166 -91 791 -17 
Q 416 56 38 206 
L 166 856 
Q 513 641 861 531 
Q 1209 422 1556 422 
Q 2147 422 2503 684 
Q 2859 947 2859 1369 
Q 2859 1650 2717 1795 
Q 2575 1941 2106 2059 
L 1728 2156 
Q 1081 2325 845 2545 
Q 609 2766 609 3163 
Q 609 3859 1145 4304 
Q 1681 4750 2541 4750 
Q 2875 4750 3203 4690 
Q 3531 4631 3859 4513 
z
" transform="scale(0.015625)"/>
     <path id="DejaVuSans-Oblique-74" d="M 2706 3500 
L 2619 3053 
L 1472 3053 
L 1100 1153 
Q 1081 1047 1072 975 
Q 1063 903 1063 863 
Q 1063 663 1183 572 
Q 1303 481 1569 481 
L 2150 481 
L 2053 0 
L 1503 0 
Q 991 0 739 200 
Q 488 400 488 806 
Q 488 878 497 964 
Q 506 1050 525 1153 
L 897 3053 
L 409 3053 
L 500 3500 
L 978 3500 
L 1172 4494 
L 1747 4494 
L 1556 3500 
L 2706 3500 
z
" transform="scale(0.015625)"/>
     <path id="DejaVuSans-Oblique-2192" d="M 5050 2147 
L 5050 1866 
L 3822 638 
L 3447 1013 
L 4175 1741 
L 366 1741 
L 366 2272 
L 4175 2272 
L 3447 3000 
L 3822 3375 
L 5050 2147 
z
" transform="scale(0.015625)"/>
     <path id="DejaVuSans-Oblique-44" d="M 1081 4666 
L 2438 4666 
Q 3519 4666 4070 4208 
Q 4622 3750 4622 2847 
Q 4622 2250 4412 1698 
Q 4203 1147 3834 769 
Q 3463 381 2891 190 
Q 2319 0 1538 0 
L 172 0 
L 1081 4666 
z
M 1613 4147 
L 909 519 
L 1734 519 
Q 2794 519 3375 1128 
Q 3956 1738 3956 2847 
Q 3956 3519 3581 3833 
Q 3206 4147 2406 4147 
L 1613 4147 
z
" transform="scale(0.015625)"/>
     <path id="DejaVuSans-Oblique-6f" d="M 1625 -91 
Q 1009 -91 651 289 
Q 294 669 294 1325 
Q 294 1706 417 2101 
Q 541 2497 738 2766 
Q 1047 3184 1428 3384 
Q 1809 3584 2291 3584 
Q 2888 3584 3255 3212 
Q 3622 2841 3622 2241 
Q 3622 1825 3500 1412 
Q 3378 1000 3181 728 
Q 2875 309 2494 109 
Q 2113 -91 1625 -91 
z
M 891 1344 
Q 891 869 1089 633 
Q 1288 397 1691 397 
Q 2269 397 2648 901 
Q 3028 1406 3028 2181 
Q 3028 2634 2825 2865 
Q 2622 3097 2228 3097 
Q 1903 3097 1650 2945 
Q 1397 2794 1197 2484 
Q 1050 2253 970 1956 
Q 891 1659 891 1344 
z
" transform="scale(0.015625)"/>
     <path id="DejaVuSans-Oblique-65" d="M 3078 2063 
Q 3088 2113 3092 2166 
Q 3097 2219 3097 2272 
Q 3097 2653 2873 2875 
Q 2650 3097 2266 3097 
Q 1838 3097 1509 2826 
Q 1181 2556 1013 2059 
L 3078 2063 
z
M 3578 1613 
L 903 1613 
Q 884 1494 878 1425 
Q 872 1356 872 1306 
Q 872 872 1139 634 
Q 1406 397 1894 397 
Q 2269 397 2603 481 
Q 2938 566 3225 728 
L 3116 159 
Q 2806 34 2476 -28 
Q 2147 -91 1806 -91 
Q 1078 -91 686 257 
Q 294 606 294 1247 
Q 294 1794 489 2264 
Q 684 2734 1063 3103 
Q 1306 3334 1642 3459 
Q 1978 3584 2356 3584 
Q 2950 3584 3301 3228 
Q 3653 2872 3653 2272 
Q 3653 2128 3634 1964 
Q 3616 1800 3578 1613 
z
" transform="scale(0.015625)"/>
     <path id="DejaVuSans-Oblique-64" d="M 2675 525 
Q 2444 222 2128 65 
Q 1813 -91 1428 -91 
Q 903 -91 598 267 
Q 294 625 294 1247 
Q 294 1766 478 2236 
Q 663 2706 1013 3078 
Q 1244 3325 1534 3454 
Q 1825 3584 2144 3584 
Q 2481 3584 2739 3421 
Q 2997 3259 3138 2956 
L 3513 4863 
L 4091 4863 
L 3144 0 
L 2566 0 
L 2675 525 
z
M 891 1350 
Q 891 897 1095 644 
Q 1300 391 1663 391 
Q 1931 391 2161 520 
Q 2391 650 2566 903 
Q 2750 1166 2856 1509 
Q 2963 1853 2963 2188 
Q 2963 2622 2758 2865 
Q 2553 3109 2194 3109 
Q 1922 3109 1687 2981 
Q 1453 2853 1288 2613 
Q 1106 2353 998 2009 
Q 891 1666 891 1350 
z
" transform="scale(0.015625)"/>
     <path id="DejaVuSans-Oblique-69" d="M 1172 4863 
L 1747 4863 
L 1606 4134 
L 1031 4134 
L 1172 4863 
z
M 909 3500 
L 1484 3500 
L 800 0 
L 225 0 
L 909 3500 
z
" transform="scale(0.015625)"/>
     <path id="DejaVuSans-Oblique-63" d="M 3431 3366 
L 3316 2797 
Q 3109 2947 2876 3022 
Q 2644 3097 2394 3097 
Q 2119 3097 1870 3000 
Q 1622 2903 1453 2725 
Q 1184 2453 1037 2087 
Q 891 1722 891 1331 
Q 891 859 1127 628 
Q 1363 397 1844 397 
Q 2081 397 2348 469 
Q 2616 541 2906 684 
L 2797 116 
Q 2547 13 2283 -39 
Q 2019 -91 1741 -91 
Q 1044 -91 669 257 
Q 294 606 294 1253 
Q 294 1797 489 2255 
Q 684 2713 1069 3078 
Q 1331 3328 1684 3456 
Q 2038 3584 2456 3584 
Q 2700 3584 2940 3529 
Q 3181 3475 3431 3366 
z
" transform="scale(0.015625)"/>
     <path id="DejaVuSans-Oblique-6c" d="M 1172 4863 
L 1747 4863 
L 800 0 
L 225 0 
L 1172 4863 
z
" transform="scale(0.015625)"/>
     <path id="DejaVuSans-Oblique-75" d="M 428 1388 
L 838 3500 
L 1416 3500 
L 1006 1409 
Q 975 1256 961 1147 
Q 947 1038 947 966 
Q 947 700 1109 554 
Q 1272 409 1569 409 
Q 2031 409 2368 721 
Q 2706 1034 2809 1563 
L 3194 3500 
L 3769 3500 
L 3091 0 
L 2516 0 
L 2631 550 
Q 2388 244 2052 76 
Q 1716 -91 1338 -91 
Q 878 -91 622 161 
Q 366 413 366 863 
Q 366 956 381 1097 
Q 397 1238 428 1388 
z
" transform="scale(0.015625)"/>
     <path id="DejaVuSans-Oblique-76" d="M 459 3500 
L 1069 3500 
L 1581 525 
L 3256 3500 
L 3866 3500 
L 1875 0 
L 1100 0 
L 459 3500 
z
" transform="scale(0.015625)"/>
     <path id="DejaVuSans-Oblique-3b" d="M 563 794 
L 1222 794 
L 1113 256 
L 409 -744 
L 6 -744 
L 453 256 
L 563 794 
z
M 1050 3309 
L 1709 3309 
L 1556 2516 
L 897 2516 
L 1050 3309 
z
" transform="scale(0.015625)"/>
     <path id="DejaVuSans-Oblique-67" d="M 3816 3500 
L 3219 434 
Q 3047 -456 2561 -893 
Q 2075 -1331 1253 -1331 
Q 950 -1331 690 -1286 
Q 431 -1241 206 -1147 
L 313 -588 
Q 525 -725 762 -790 
Q 1000 -856 1269 -856 
Q 1816 -856 2167 -557 
Q 2519 -259 2631 300 
L 2681 563 
Q 2441 288 2122 144 
Q 1803 0 1434 0 
Q 903 0 598 351 
Q 294 703 294 1319 
Q 294 1803 478 2267 
Q 663 2731 997 3091 
Q 1219 3328 1514 3456 
Q 1809 3584 2131 3584 
Q 2484 3584 2746 3420 
Q 3009 3256 3138 2956 
L 3238 3500 
L 3816 3500 
z
M 2950 2216 
Q 2950 2641 2750 2872 
Q 2550 3103 2181 3103 
Q 1953 3103 1747 3012 
Q 1541 2922 1394 2759 
Q 1156 2491 1023 2127 
Q 891 1763 891 1375 
Q 891 944 1092 712 
Q 1294 481 1672 481 
Q 2219 481 2584 976 
Q 2950 1472 2950 2216 
z
" transform="scale(0.015625)"/>
     <path id="DejaVuSans-Oblique-3a" d="M 978 3309 
L 1638 3309 
L 1484 2516 
L 825 2516 
L 978 3309 
z
M 488 794 
L 1147 794 
L 991 0 
L 331 0 
L 488 794 
z
" transform="scale(0.015625)"/>
     <path id="DejaVuSans-Oblique-3d" d="M 678 2906 
L 4684 2906 
L 4684 2381 
L 678 2381 
L 678 2906 
z
M 678 1631 
L 4684 1631 
L 4684 1100 
L 678 1100 
L 678 1631 
z
" transform="scale(0.015625)"/>
     <path id="DejaVuSans-Oblique-46" d="M 1081 4666 
L 3756 4666 
L 3653 4134 
L 1606 4134 
L 1338 2759 
L 3188 2759 
L 3084 2228 
L 1234 2228 
L 800 0 
L 172 0 
L 1081 4666 
z
" transform="scale(0.015625)"/>
     <path id="DejaVuSans-Oblique-45" d="M 1081 4666 
L 4031 4666 
L 3928 4134 
L 1606 4134 
L 1338 2753 
L 3566 2753 
L 3463 2222 
L 1234 2222 
L 909 531 
L 3284 531 
L 3181 0 
L 172 0 
L 1081 4666 
z
" transform="scale(0.015625)"/>
     <path id="DejaVuSans-Oblique-6b" d="M 1172 4863 
L 1747 4863 
L 1197 2028 
L 3169 3500 
L 3916 3500 
L 1716 1825 
L 3322 0 
L 2625 0 
L 1131 1709 
L 800 0 
L 225 0 
L 1172 4863 
z
" transform="scale(0.015625)"/>
     <path id="DejaVuSans-Oblique-2c" d="M 575 794 
L 1234 794 
L 1131 256 
L 422 -744 
L 19 -744 
L 469 256 
L 575 794 
z
" transform="scale(0.015625)"/>
     <path id="DejaVuSans-Oblique-47" d="M 3494 697 
L 3738 1919 
L 2700 1919 
L 2797 2438 
L 4453 2438 
L 4050 384 
Q 3634 156 3143 32 
Q 2653 -91 2156 -91 
Q 1278 -91 783 396 
Q 288 884 288 1753 
Q 288 2475 589 3126 
Q 891 3778 1422 4213 
Q 1756 4484 2153 4617 
Q 2550 4750 3034 4750 
Q 3472 4750 3873 4639 
Q 4275 4528 4641 4306 
L 4513 3634 
Q 4231 3928 3853 4083 
Q 3475 4238 3047 4238 
Q 2550 4238 2172 4048 
Q 1794 3859 1497 3463 
Q 1244 3125 1098 2667 
Q 953 2209 953 1734 
Q 953 1081 1287 751 
Q 1622 422 2284 422 
Q 2616 422 2925 492 
Q 3234 563 3494 697 
z
" transform="scale(0.015625)"/>
     <path id="DejaVuSans-Oblique-59" d="M 403 4666 
L 1081 4666 
L 1953 2747 
L 3616 4666 
L 4325 4666 
L 2209 2222 
L 1778 0 
L 1147 0 
L 1575 2222 
L 403 4666 
z
" transform="scale(0.015625)"/>
     <path id="DejaVuSans-Oblique-77" d="M 544 3500 
L 1113 3500 
L 1259 684 
L 2566 3500 
L 3231 3500 
L 3425 684 
L 4666 3500 
L 5241 3500 
L 3641 0 
L 2969 0 
L 2797 2900 
L 1459 0 
L 781 0 
L 544 3500 
z
" transform="scale(0.015625)"/>
     <path id="DejaVuSans-Oblique-41" d="M 2356 4666 
L 3072 4666 
L 3938 0 
L 3278 0 
L 3084 1197 
L 984 1197 
L 325 0 
L -341 0 
L 2356 4666 
z
M 2584 4044 
L 1275 1722 
L 2988 1722 
L 2584 4044 
z
" transform="scale(0.015625)"/>
     <path id="DejaVuSans-Oblique-79" d="M 1588 -325 
Q 1188 -997 936 -1164 
Q 684 -1331 294 -1331 
L -159 -1331 
L -63 -850 
L 269 -850 
Q 509 -850 678 -719 
Q 847 -588 1056 -206 
L 1234 128 
L 459 3500 
L 1069 3500 
L 1650 819 
L 3256 3500 
L 3859 3500 
L 1588 -325 
z
" transform="scale(0.015625)"/>
     <path id="DejaVuSans-Oblique-2f" d="M 2175 4666 
L 2731 4666 
L 84 -594 
L -469 -594 
L 2175 4666 
z
" transform="scale(0.015625)"/>
     <path id="DejaVuSans-Oblique-4f" d="M 2919 4238 
Q 2400 4238 2003 3986 
Q 1606 3734 1313 3219 
Q 1125 2891 1026 2522 
Q 928 2153 928 1778 
Q 928 1128 1239 775 
Q 1550 422 2119 422 
Q 2631 422 3032 676 
Q 3434 931 3719 1434 
Q 3909 1772 4009 2142 
Q 4109 2513 4109 2881 
Q 4109 3528 3796 3883 
Q 3484 4238 2919 4238 
z
M 2100 -91 
Q 1241 -91 748 418 
Q 256 928 256 1813 
Q 256 2319 448 2847 
Q 641 3375 978 3788 
Q 1375 4272 1862 4511 
Q 2350 4750 2938 4750 
Q 3794 4750 4287 4245 
Q 4781 3741 4781 2869 
Q 4781 2331 4593 1812 
Q 4406 1294 4056 872 
Q 3656 384 3173 146 
Q 2691 -91 2100 -91 
z
" transform="scale(0.015625)"/>
     <path id="DejaVuSans-Oblique-68" d="M 3566 2113 
L 3156 0 
L 2578 0 
L 2988 2091 
Q 3016 2238 3031 2350 
Q 3047 2463 3047 2528 
Q 3047 2791 2881 2937 
Q 2716 3084 2419 3084 
Q 1956 3084 1617 2771 
Q 1278 2459 1178 1941 
L 800 0 
L 225 0 
L 1172 4863 
L 1747 4863 
L 1375 2950 
Q 1594 3244 1934 3414 
Q 2275 3584 2650 3584 
Q 3113 3584 3367 3334 
Q 3622 3084 3622 2631 
Q 3622 2519 3608 2391 
Q 3594 2263 3566 2113 
z
" transform="scale(0.015625)"/>
     <path id="DejaVuSans-Oblique-2e" d="M 525 794 
L 1184 794 
L 1031 0 
L 372 0 
L 525 794 
z
" transform="scale(0.015625)"/>
    </defs>
    <use xlink:href="#DejaVuSans-Oblique-42"/>
    <use xlink:href="#DejaVuSans-Oblique-61" x="68.603516"/>
    <use xlink:href="#DejaVuSans-Oblique-72" x="129.882812"/>
    <use xlink:href="#DejaVuSans-Oblique-73" x="170.996094"/>
    <use xlink:href="#DejaVuSans-Oblique-20" x="223.095703"/>
    <use xlink:href="#DejaVuSans-Oblique-73" x="254.882812"/>
    <use xlink:href="#DejaVuSans-Oblique-70" x="306.982422"/>
    <use xlink:href="#DejaVuSans-Oblique-61" x="370.458984"/>
    <use xlink:href="#DejaVuSans-Oblique-6e" x="431.738281"/>
    <use xlink:href="#DejaVuSans-Oblique-20" x="495.117188"/>
    <use xlink:href="#DejaVuSans-Oblique-53" x="526.904297"/>
    <use xlink:href="#DejaVuSans-Oblique-74" x="590.380859"/>
    <use xlink:href="#DejaVuSans-Oblique-61" x="629.589844"/>
    <use xlink:href="#DejaVuSans-Oblique-72" x="690.869141"/>
    <use xlink:href="#DejaVuSans-Oblique-74" x="731.982422"/>
    <use xlink:href="#DejaVuSans-Oblique-2192" x="771.191406"/>
    <use xlink:href="#DejaVuSans-Oblique-44" x="854.980469"/>
    <use xlink:href="#DejaVuSans-Oblique-6f" x="931.982422"/>
    <use xlink:href="#DejaVuSans-Oblique-6e" x="993.164062"/>
    <use xlink:href="#DejaVuSans-Oblique-65" x="1056.542969"/>
    <use xlink:href="#DejaVuSans-Oblique-20" x="1118.066406"/>
    <use xlink:href="#DejaVuSans-Oblique-64" x="1149.853516"/>
    <use xlink:href="#DejaVuSans-Oblique-61" x="1213.330078"/>
    <use xlink:href="#DejaVuSans-Oblique-74" x="1274.609375"/>
    <use xlink:href="#DejaVuSans-Oblique-65" x="1313.818359"/>
    <use xlink:href="#DejaVuSans-Oblique-73" x="1375.341797"/>
    <use xlink:href="#DejaVuSans-Oblique-20" x="1427.441406"/>
    <use xlink:href="#DejaVuSans-Oblique-69" x="1459.228516"/>
    <use xlink:href="#DejaVuSans-Oblique-6e" x="1487.011719"/>
    <use xlink:href="#DejaVuSans-Oblique-63" x="1550.390625"/>
    <use xlink:href="#DejaVuSans-Oblique-6c" x="1605.371094"/>
    <use xlink:href="#DejaVuSans-Oblique-75" x="1633.154297"/>
    <use xlink:href="#DejaVuSans-Oblique-73" x="1696.533203"/>
    <use xlink:href="#DejaVuSans-Oblique-69" x="1748.632812"/>
    <use xlink:href="#DejaVuSans-Oblique-76" x="1776.416016"/>
    <use xlink:href="#DejaVuSans-Oblique-65" x="1835.595703"/>
    <use xlink:href="#DejaVuSans-Oblique-3b" x="1897.119141"/>
    <use xlink:href="#DejaVuSans-Oblique-20" x="1930.810547"/>
    <use xlink:href="#DejaVuSans-Oblique-63" x="1962.597656"/>
    <use xlink:href="#DejaVuSans-Oblique-6f" x="2017.578125"/>
    <use xlink:href="#DejaVuSans-Oblique-6c" x="2078.759766"/>
    <use xlink:href="#DejaVuSans-Oblique-6f" x="2106.542969"/>
    <use xlink:href="#DejaVuSans-Oblique-72" x="2167.724609"/>
    <use xlink:href="#DejaVuSans-Oblique-20" x="2208.837891"/>
    <use xlink:href="#DejaVuSans-Oblique-6c" x="2240.625"/>
    <use xlink:href="#DejaVuSans-Oblique-65" x="2268.408203"/>
    <use xlink:href="#DejaVuSans-Oblique-67" x="2329.931641"/>
    <use xlink:href="#DejaVuSans-Oblique-65" x="2393.408203"/>
    <use xlink:href="#DejaVuSans-Oblique-6e" x="2454.931641"/>
    <use xlink:href="#DejaVuSans-Oblique-64" x="2518.310547"/>
    <use xlink:href="#DejaVuSans-Oblique-3a" x="2581.787109"/>
    <use xlink:href="#DejaVuSans-Oblique-20" x="2615.478516"/>
    <use xlink:href="#DejaVuSans-Oblique-42" x="2647.265625"/>
    <use xlink:href="#DejaVuSans-Oblique-6c" x="2715.869141"/>
    <use xlink:href="#DejaVuSans-Oblique-75" x="2743.652344"/>
    <use xlink:href="#DejaVuSans-Oblique-65" x="2807.03125"/>
    <use xlink:href="#DejaVuSans-Oblique-20" x="2868.554688"/>
    <use xlink:href="#DejaVuSans-Oblique-3d" x="2900.341797"/>
    <use xlink:href="#DejaVuSans-Oblique-20" x="2984.130859"/>
    <use xlink:href="#DejaVuSans-Oblique-46" x="3015.917969"/>
    <use xlink:href="#DejaVuSans-Oblique-45" x="3073.4375"/>
    <use xlink:href="#DejaVuSans-Oblique-20" x="3136.621094"/>
    <use xlink:href="#DejaVuSans-Oblique-74" x="3168.408203"/>
    <use xlink:href="#DejaVuSans-Oblique-61" x="3207.617188"/>
    <use xlink:href="#DejaVuSans-Oblique-73" x="3268.896484"/>
    <use xlink:href="#DejaVuSans-Oblique-6b" x="3320.996094"/>
    <use xlink:href="#DejaVuSans-Oblique-73" x="3378.90625"/>
    <use xlink:href="#DejaVuSans-Oblique-2c" x="3431.005859"/>
    <use xlink:href="#DejaVuSans-Oblique-20" x="3462.792969"/>
    <use xlink:href="#DejaVuSans-Oblique-47" x="3494.580078"/>
    <use xlink:href="#DejaVuSans-Oblique-72" x="3572.070312"/>
    <use xlink:href="#DejaVuSans-Oblique-65" x="3613.183594"/>
    <use xlink:href="#DejaVuSans-Oblique-65" x="3674.707031"/>
    <use xlink:href="#DejaVuSans-Oblique-6e" x="3736.230469"/>
    <use xlink:href="#DejaVuSans-Oblique-20" x="3799.609375"/>
    <use xlink:href="#DejaVuSans-Oblique-3d" x="3831.396484"/>
    <use xlink:href="#DejaVuSans-Oblique-20" x="3915.185547"/>
    <use xlink:href="#DejaVuSans-Oblique-42" x="3946.972656"/>
    <use xlink:href="#DejaVuSans-Oblique-45" x="4015.576172"/>
    <use xlink:href="#DejaVuSans-Oblique-20" x="4078.759766"/>
    <use xlink:href="#DejaVuSans-Oblique-74" x="4110.546875"/>
    <use xlink:href="#DejaVuSans-Oblique-61" x="4149.755859"/>
    <use xlink:href="#DejaVuSans-Oblique-73" x="4211.035156"/>
    <use xlink:href="#DejaVuSans-Oblique-6b" x="4263.134766"/>
    <use xlink:href="#DejaVuSans-Oblique-73" x="4321.044922"/>
    <use xlink:href="#DejaVuSans-Oblique-2c" x="4373.144531"/>
    <use xlink:href="#DejaVuSans-Oblique-20" x="4404.931641"/>
    <use xlink:href="#DejaVuSans-Oblique-59" x="4436.71875"/>
    <use xlink:href="#DejaVuSans-Oblique-65" x="4486.802734"/>
    <use xlink:href="#DejaVuSans-Oblique-6c" x="4548.326172"/>
    <use xlink:href="#DejaVuSans-Oblique-6c" x="4576.109375"/>
    <use xlink:href="#DejaVuSans-Oblique-6f" x="4603.892578"/>
    <use xlink:href="#DejaVuSans-Oblique-77" x="4665.074219"/>
    <use xlink:href="#DejaVuSans-Oblique-20" x="4746.861328"/>
    <use xlink:href="#DejaVuSans-Oblique-3d" x="4778.648438"/>
    <use xlink:href="#DejaVuSans-Oblique-20" x="4862.4375"/>
    <use xlink:href="#DejaVuSans-Oblique-41" x="4894.224609"/>
    <use xlink:href="#DejaVuSans-Oblique-6e" x="4962.632812"/>
    <use xlink:href="#DejaVuSans-Oblique-61" x="5026.011719"/>
    <use xlink:href="#DejaVuSans-Oblique-6c" x="5087.291016"/>
    <use xlink:href="#DejaVuSans-Oblique-79" x="5115.074219"/>
    <use xlink:href="#DejaVuSans-Oblique-73" x="5174.253906"/>
    <use xlink:href="#DejaVuSans-Oblique-69" x="5226.353516"/>
    <use xlink:href="#DejaVuSans-Oblique-73" x="5254.136719"/>
    <use xlink:href="#DejaVuSans-Oblique-2f" x="5306.236328"/>
    <use xlink:href="#DejaVuSans-Oblique-4f" x="5339.927734"/>
    <use xlink:href="#DejaVuSans-Oblique-74" x="5418.638672"/>
    <use xlink:href="#DejaVuSans-Oblique-68" x="5457.847656"/>
    <use xlink:href="#DejaVuSans-Oblique-65" x="5521.226562"/>
    <use xlink:href="#DejaVuSans-Oblique-72" x="5582.75"/>
    <use xlink:href="#DejaVuSans-Oblique-2e" x="5614.738281"/>
   </g>
  </g>
 </g>
 <defs>
  <clipPath id="p90c7a2da62">
   <rect x="337.044375" y="23.077969" width="367.89" height="338.675404"/>
  </clipPath>
 </defs>
</svg>
